{
DisplayStrings = (
"/ja-deva/j_ra-deva/ng_ka-deva/cha-deva/va-deva",
"/j_ra-deva/t_ra-deva",
"/dda-deva/nna-deva/d_gha-deva/da-deva/ga-deva",
"/g_na-deva/d_ra-deva/d_ba-deva",
"\U00C7/Scedilla/Scommaaccent \U00E7/scedilla/scommaaccent Ss"
);
classes = (
{
automatic = 1;
code = "iMatra-deva iMatra-deva.0 iMatra-deva.05 iMatra-deva.10";
name = DevaIMatras;
},
{
automatic = 1;
code = "iMatra_reph-deva iMatra_reph-deva.0 iMatra_reph-deva.05 iMatra_reph-deva.10";
name = DevaIMatraRephs;
},
{
automatic = 1;
code = "iMatra_reph_anusvara-deva iMatra_reph_anusvara-deva.0 iMatra_reph_anusvara-deva.05 iMatra_reph_anusvara-deva.10";
name = DevaIMatraRephAnusvaras;
},
{
automatic = 1;
code = "ka-deva kha-deva ga-deva gha-deva nga-deva ca-deva cha-deva ja-deva jha-deva nya-deva tta-deva ttha-deva dda-deva ddha-deva nna-deva ta-deva tha-deva da-deva dha-deva na-deva nnna-deva pa-deva pha-deva ba-deva bha-deva ma-deva ya-deva ra-deva rra-deva la-deva lla-deva llla-deva va-deva sha-deva ssa-deva sa-deva ha-deva qa-deva khha-deva ghha-deva za-deva dddha-deva rha-deva fa-deva yya-deva zha-deva gga-deva jja-deva ddda-deva bba-deva la-deva.loclMAR sha-deva.loclMAR jha-deva.loclNEP zha-deva.loclNEP ya-deva.post";
name = DevaFullforms;
},
{
automatic = 1;
code = "k-deva k_r-deva k_ss-deva kh-deva kh_r-deva g-deva g_r-deva gh-deva gh_r-deva ng-deva ng_k-deva c-deva ch-deva j-deva j_j-deva j_ny-deva jh-deva ny-deva tt-deva tth-deva tth_r-deva dd-deva dd_r-deva ddh-deva ddh_r-deva nn-deva t-deva t_t-deva t_r-deva th-deva d-deva dh-deva n-deva nnn-deva p-deva p_r-deva ph-deva b-deva bh-deva m-deva y-deva rr-deva l-deva ll-deva lll-deva v-deva sh-deva sh_r-deva ss-deva s-deva h-deva q-deva khh-deva ghh-deva z-deva f-deva r-deva.loclMAR l-deva.loclMAR sh-deva.loclMAR jh-deva.loclNEP";
name = DevaHalfforms;
},
{
automatic = 1;

glyphs = (
{
glyphname = A;
lastChange = "2014-09-10 13:48:40 +0100";
layers = (
{
layerId = "E777F328-EA17-4AE7-9EBA-8002E537BA4F";
name = Light;
paths = (
{
closed = 1;
nodes = (
"1 0 LINE",
"221 0 LINE",
"221 33 LINE",
"136 44 LINE",
"197 222 LINE",
"512 222 LINE",
"574 44 LINE",
"492 33 LINE",
"492 0 LINE",
"730 0 LINE",
"730 33 LINE",
"649 44 LINE",
"394 762 LINE",
"335 762 LINE",
"72 44 LINE",
"1 33 LINE"
);
},
{
closed = 1;
nodes = (
"212 267 LINE",
"356 680 LINE",
"392 566 LINE",
"497 267 LINE"
);
}
);
width = 729;
}
);
unicode = 0041;
},
{
glyphname = Aacute;
lastChange = "2014-09-10 13:48:40 +0100";
layers = (
{
layerId = "E777F328-EA17-4AE7-9EBA-8002E537BA4F";
name = Light;
paths = (
{
closed = 1;
nodes = (
"361 785 LINE",
"420 809 OFFCURVE",
"491 848 OFFCURVE",
"538 884 CURVE",
"485 938 LINE",
"341 806 LINE"
);
},
{
closed = 1;
nodes = (
"1 0 LINE",
"221 0 LINE",
"221 33 LINE",
"136 44 LINE",
"197 222 LINE",
"512 222 LINE",
"574 44 LINE",
"492 33 LINE",
"492 0 LINE",
"730 0 LINE",
"730 33 LINE",
"649 44 LINE",
"394 762 LINE",
"335 762 LINE",
"72 44 LINE",
"1 33 LINE"
);
},
{
closed = 1;
nodes = (
"212 267 LINE",
"356 680 LINE",
"392 566 LINE",
"497 267 LINE"
);
}
);
width = 729;
}
);
unicode = 00C1;
},
{
glyphname = Acircumflex;
lastChange = "2014-09-10 13:48:40 +0100";
layers = (
{
layerId = "E777F328-EA17-4AE7-9EBA-8002E537BA4F";
name = Light;
paths = (
{
closed = 1;
nodes = (
"228 790 LINE",
"364 887 LINE",
"497 790 LINE",
"531 809 LINE",
"400 938 LINE",
"329 938 LINE",
"197 808 LINE"
);
},
{
closed = 1;
nodes = (
"1 0 LINE",
"221 0 LINE",
"221 33 LINE",
"136 44 LINE",
"197 222 LINE",
"512 222 LINE",
"574 44 LINE",
"492 33 LINE",
"492 0 LINE",
"730 0 LINE",
"730 33 LINE",
"649 44 LINE",
"394 762 LINE",
"335 762 LINE",
"72 44 LINE",
"1 33 LINE"
);
},
{
closed = 1;
nodes = (
"212 267 LINE",
"356 680 LINE",
"392 566 LINE",
"497 267 LINE"
);
}
);
width = 729;
}
);
unicode = 00C2;
},
{
glyphname = Adieresis;
lastChange = "2014-09-10 13:48:40 +0100";
layers = (
{
layerId = "E777F328-EA17-4AE7-9EBA-8002E537BA4F";
name = Light;
paths = (
{
closed = 1;
nodes = (
"499 825 OFFCURVE",
"527 847 OFFCURVE",
"527 879 CURVE SMOOTH",
"527 905 OFFCURVE",
"513 926 OFFCURVE",
"479 926 CURVE SMOOTH",
"452 926 OFFCURVE",
"422 902 OFFCURVE",
"422 871 CURVE SMOOTH",
"422 842 OFFCURVE",
"445 825 OFFCURVE",
"470 825 CURVE SMOOTH"
);
},
{
closed = 1;
nodes = (
"276 825 OFFCURVE",
"304 847 OFFCURVE",
"304 880 CURVE SMOOTH",
"304 905 OFFCURVE",
"289 926 OFFCURVE",
"256 926 CURVE SMOOTH",
"229 926 OFFCURVE",
"199 903 OFFCURVE",
"199 872 CURVE SMOOTH",
"199 843 OFFCURVE",
"222 825 OFFCURVE",
"247 825 CURVE SMOOTH"
);
},
{
closed = 1;
nodes = (
"1 0 LINE",
"221 0 LINE",
"221 33 LINE",
"136 44 LINE",
"197 222 LINE",
"512 222 LINE",
"574 44 LINE",
"492 33 LINE",
"492 0 LINE",
"730 0 LINE",
"730 33 LINE",
"649 44 LINE",
"394 762 LINE",
"335 762 LINE",
"72 44 LINE",
"1 33 LINE"
);
},
{
closed = 1;
nodes = (
"212 267 LINE",
"356 680 LINE",
"392 566 LINE",
"497 267 LINE"
);
}
);
width = 729;
}
);
unicode = 00C4;
},
{
glyphname = Agrave;
lastChange = "2014-09-10 13:48:40 +0100";
layers = (
{
layerId = "E777F328-EA17-4AE7-9EBA-8002E537BA4F";
name = Light;
paths = (
{
closed = 1;
nodes = (
"386 806 LINE",
"242 938 LINE",
"189 884 LINE",
"236 848 OFFCURVE",
"307 809 OFFCURVE",
"366 785 CURVE"
);
},
{
closed = 1;
nodes = (
"1 0 LINE",
"221 0 LINE",
"221 33 LINE",
"136 44 LINE",
"197 222 LINE",
"512 222 LINE",
"574 44 LINE",
"492 33 LINE",
"492 0 LINE",
"730 0 LINE",
"730 33 LINE",
"649 44 LINE",
"394 762 LINE",
"335 762 LINE",
"72 44 LINE",
"1 33 LINE"
);
},
{
closed = 1;
nodes = (
"212 267 LINE",
"356 680 LINE",
"392 566 LINE",
"497 267 LINE"
);
}
);
width = 729;
}
);
unicode = 00C0;
},
{
glyphname = Aogonek;
lastChange = "2014-09-10 13:48:40 +0100";
layers = (
{
layerId = "E777F328-EA17-4AE7-9EBA-8002E537BA4F";
name = Light;
paths = (
{
closed = 1;
nodes = (
"1 0 LINE",
"221 0 LINE",
"221 33 LINE",
"136 44 LINE",
"197 222 LINE",
"512 222 LINE",
"574 44 LINE",
"492 33 LINE",
"492 0 LINE",
"573 0 LINE",
"497 -30 OFFCURVE",
"420 -101 OFFCURVE",
"420 -165 CURVE SMOOTH",
"420 -212 OFFCURVE",
"452 -255 OFFCURVE",
"518 -257 CURVE SMOOTH",
"598 -260 OFFCURVE",
"646 -228 OFFCURVE",
"672 -208 CURVE",
"663 -173 LINE",
"644 -185 OFFCURVE",
"599 -211 OFFCURVE",
"556 -209 CURVE SMOOTH",
"509 -207 OFFCURVE",
"486 -190 OFFCURVE",
"486 -145 CURVE SMOOTH",
"486 -85 OFFCURVE",
"589 -16 OFFCURVE",
"646 0 CURVE",
"730 0 LINE",
"730 33 LINE",
"649 44 LINE",
"394 762 LINE",
"335 762 LINE",
"72 44 LINE",
"1 33 LINE"
);
},
{
closed = 1;
nodes = (
"212 267 LINE",
"356 680 LINE",
"392 566 LINE",
"497 267 LINE"
);
}
);
width = 729;
}
);
unicode = 0104;
},
{
glyphname = Aring;
lastChange = "2014-09-10 13:48:40 +0100";
layers = (
{
layerId = "E777F328-EA17-4AE7-9EBA-8002E537BA4F";
name = Light;
paths = (
{
closed = 1;
nodes = (
"1 0 LINE",
"221 0 LINE",
"221 33 LINE",
"136 44 LINE",
"197 222 LINE",
"512 222 LINE",
"574 44 LINE",
"492 33 LINE",
"492 0 LINE",
"730 0 LINE",
"730 33 LINE",
"649 44 LINE",
"406 729 LINE",
"453 743 OFFCURVE",
"486 782 OFFCURVE",
"486 830 CURVE SMOOTH",
"486 893 OFFCURVE",
"431 938 OFFCURVE",
"363 938 CURVE SMOOTH",
"296 938 OFFCURVE",
"240 892 OFFCURVE",
"240 830 CURVE SMOOTH",
"240 780 OFFCURVE",
"275 743 OFFCURVE",
"322 728 CURVE",
"72 44 LINE",
"1 33 LINE"
);
},
{
closed = 1;
nodes = (
"321 763 OFFCURVE",
"286 790 OFFCURVE",
"286 830 CURVE SMOOTH",
"286 868 OFFCURVE",
"321 896 OFFCURVE",
"363 896 CURVE SMOOTH",
"405 896 OFFCURVE",
"440 868 OFFCURVE",
"440 829 CURVE SMOOTH",
"440 790 OFFCURVE",
"405 763 OFFCURVE",
"363 763 CURVE SMOOTH"
);
},
{
closed = 1;
nodes = (
"212 267 LINE",
"356 680 LINE",
"392 566 LINE",
"497 267 LINE"
);
}
);
width = 729;
}
);
unicode = 00C5;
},
{
glyphname = Atilde;
lastChange = "2014-09-10 13:48:40 +0100";
layers = (
{
layerId = "E777F328-EA17-4AE7-9EBA-8002E537BA4F";
name = Light;
paths = (
{
closed = 1;
nodes = (
"191 831 LINE",
"214 855 OFFCURVE",
"246 879 OFFCURVE",
"285 879 CURVE SMOOTH",
"335 879 OFFCURVE",
"358 807 OFFCURVE",
"421 807 CURVE SMOOTH",
"474 807 OFFCURVE",
"525 844 OFFCURVE",
"550 885 CURVE",
"529 915 LINE",
"507 890 OFFCURVE",
"477 867 OFFCURVE",
"436 867 CURVE SMOOTH",
"387 867 OFFCURVE",
"363 938 OFFCURVE",
"300 938 CURVE SMOOTH",
"248 938 OFFCURVE",
"196 902 OFFCURVE",
"171 859 CURVE"
);
},
{
closed = 1;
nodes = (
"1 0 LINE",
"221 0 LINE",
"221 33 LINE",
"136 44 LINE",
"197 222 LINE",
"512 222 LINE",
"574 44 LINE",
"492 33 LINE",
"492 0 LINE",
"730 0 LINE",
"730 33 LINE",
"649 44 LINE",
"394 762 LINE",
"335 762 LINE",
"72 44 LINE",
"1 33 LINE"
);
},
{
closed = 1;
nodes = (
"212 267 LINE",
"356 680 LINE",
"392 566 LINE",
"497 267 LINE"
);
}
);
width = 729;
}
);
unicode = 00C3;
},
{
glyphname = AE;
lastChange = "2014-09-10 13:48:40 +0100";
layers = (
{
layerId = "E777F328-EA17-4AE7-9EBA-8002E537BA4F";
name = Light;
paths = (
{
closed = 1;
nodes = (
"1 0 LINE",
"221 0 LINE",
"221 33 LINE",
"131 44 LINE",
"204 234 LINE",
"509 234 LINE",
"567 44 LINE",
"480 33 LINE",
"480 0 LINE",
"882 0 LINE",
"904 142 LINE",
"871 158 LINE",
"827 48 LINE",
"647 42 LINE",
"544 379 LINE",
"746 377 LINE",
"758 298 LINE",
"794 298 LINE",
"794 503 LINE",
"758 503 LINE",
"746 423 LINE",
"532 420 LINE",
"442 718 LINE",
"771 713 LINE",
"793 618 LINE",
"832 619 LINE",
"817 758 LINE",
"356 758 LINE",
"68 44 LINE",
"1 33 LINE"
);
},
{
closed = 1;
nodes = (
"220 278 LINE",
"376 686 LINE",
"395 600 LINE",
"495 278 LINE"
);
}
);
width = 947;
}
);
unicode = 00C6;
},
{
glyphname = B;
lastChange = "2014-09-10 13:48:40 +0100";
layers = (
{
layerId = "E777F328-EA17-4AE7-9EBA-8002E537BA4F";
name = Light;
paths = (
{
closed = 1;
nodes = (
"52 0 LINE",
"172 0 LINE",
"210 -1 OFFCURVE",
"276 -7 OFFCURVE",
"332 -7 CURVE SMOOTH",
"546 -7 OFFCURVE",
"647 89 OFFCURVE",
"647 224 CURVE SMOOTH",
"647 337 OFFCURVE",
"556 404 OFFCURVE",
"449 404 CURVE",
"552 425 OFFCURVE",
"598 505 OFFCURVE",
"598 594 CURVE SMOOTH",
"598 699 OFFCURVE",
"515 765 OFFCURVE",
"360 765 CURVE SMOOTH",
"282 765 OFFCURVE",
"230 760 OFFCURVE",
"171 758 CURVE SMOOTH",
"54 758 LINE",
"54 721 LINE",
"139 714 LINE",
"139 45 LINE",
"52 33 LINE"
);
},
{
closed = 1;
nodes = (
"211 717 LINE",
"239 723 OFFCURVE",
"306 724 OFFCURVE",
"345 724 CURVE SMOOTH",
"444 724 OFFCURVE",
"529 684 OFFCURVE",
"529 581 CURVE SMOOTH",
"529 467 OFFCURVE",
"452 418 OFFCURVE",
"356 418 CURVE SMOOTH",
"324 418 OFFCURVE",
"246 416 OFFCURVE",
"210 421 CURVE"
);
},
{
closed = 1;
nodes = (
"211 371 LINE",
"248 374 OFFCURVE",
"326 373 OFFCURVE",
"372 373 CURVE SMOOTH",
"488 373 OFFCURVE",
"572 331 OFFCURVE",
"572 209 CURVE SMOOTH",
"572 73 OFFCURVE",
"459 35 OFFCURVE",
"349 35 CURVE SMOOTH",
"308 35 OFFCURVE",
"234 42 OFFCURVE",
"211 50 CURVE"
);
}
);
width = 693;
}
);
unicode = 0042;
},
{
glyphname = C;
lastChange = "2014-09-10 13:48:40 +0100";
layers = (
{
layerId = "E777F328-EA17-4AE7-9EBA-8002E537BA4F";
name = Light;
paths = (
{
closed = 1;
nodes = (
"42 140 OFFCURVE",
"190 -14 OFFCURVE",
"392 -14 CURVE SMOOTH",
"531 -14 OFFCURVE",
"593 28 OFFCURVE",
"640 31 CURVE",
"640 163 LINE",
"630 163 OFFCURVE",
"616 164 OFFCURVE",
"606 164 CURVE",
"585 81 LINE",
"556 50 OFFCURVE",
"494 27 OFFCURVE",
"414 27 CURVE SMOOTH",
"221 25 OFFCURVE",
"117 189 OFFCURVE",
"117 380 CURVE SMOOTH",
"117 599 OFFCURVE",
"262 722 OFFCURVE",
"415 722 CURVE SMOOTH",
"483 722 OFFCURVE",
"533 709 OFFCURVE",
"574 684 CURVE",
"592 596 LINE",
"632 596 LINE",
"639 730 LINE",
"596 740 OFFCURVE",
"530 765 OFFCURVE",
"436 765 CURVE SMOOTH",
"227 765 OFFCURVE",
"42 605 OFFCURVE",
"42 357 CURVE SMOOTH"
);
}
);
width = 688;
}
);
unicode = 0043;
},
{
glyphname = Ccedilla;
lastChange = "2014-09-10 13:48:40 +0100";
layers = (
{
layerId = "E777F328-EA17-4AE7-9EBA-8002E537BA4F";
name = Light;
paths = (
{
closed = 1;
nodes = (
"42 149 OFFCURVE",
"178 0 OFFCURVE",
"366 -13 CURVE",
"358 -42 OFFCURVE",
"355 -69 OFFCURVE",
"355 -97 CURVE",
"360 -96 OFFCURVE",
"376 -94 OFFCURVE",
"385 -94 CURVE SMOOTH",
"437 -94 OFFCURVE",
"473 -111 OFFCURVE",
"473 -154 CURVE SMOOTH",
"473 -210 OFFCURVE",
"425 -217 OFFCURVE",
"389 -217 CURVE SMOOTH",
"375 -217 OFFCURVE",
"343 -213 OFFCURVE",
"325 -208 CURVE",
"325 -219 OFFCURVE",
"324 -236 OFFCURVE",
"324 -247 CURVE",
"349 -253 OFFCURVE",
"370 -260 OFFCURVE",
"420 -257 CURVE SMOOTH",
"487 -255 OFFCURVE",
"544 -219 OFFCURVE",
"544 -154 CURVE SMOOTH",
"544 -104 OFFCURVE",
"501 -58 OFFCURVE",
"410 -62 CURVE",
"409 -47 OFFCURVE",
"409 -28 OFFCURVE",
"411 -13 CURVE",
"538 -9 OFFCURVE",
"595 28 OFFCURVE",
"640 31 CURVE",
"640 163 LINE",
"630 163 OFFCURVE",
"616 164 OFFCURVE",
"606 164 CURVE",
"585 81 LINE",
"556 50 OFFCURVE",
"494 27 OFFCURVE",
"414 27 CURVE SMOOTH",
"221 25 OFFCURVE",
"117 189 OFFCURVE",
"117 380 CURVE SMOOTH",
"117 599 OFFCURVE",
"262 722 OFFCURVE",
"415 722 CURVE SMOOTH",
"483 722 OFFCURVE",
"533 709 OFFCURVE",
"574 684 CURVE",
"592 596 LINE",
"632 596 LINE",
"639 730 LINE",
"596 740 OFFCURVE",
"530 765 OFFCURVE",
"436 765 CURVE SMOOTH",
"227 765 OFFCURVE",
"42 605 OFFCURVE",
"42 357 CURVE SMOOTH"
);
}
);
width = 688;
}
);
unicode = 00C7;
},
{
glyphname = D;
lastChange = "2014-09-10 13:48:40 +0100";
layers = (
{
layerId = "E777F328-EA17-4AE7-9EBA-8002E537BA4F";
name = Light;
paths = (
{
closed = 1;
nodes = (
"52 0 LINE",
"82 0 OFFCURVE",
"146 0 OFFCURVE",
"176 0 CURVE SMOOTH",
"229 0 OFFCURVE",
"291 -5 OFFCURVE",
"338 -5 CURVE SMOOTH",
"569 -9 OFFCURVE",
"732 144 OFFCURVE",
"732 399 CURVE SMOOTH",
"732 629 OFFCURVE",
"610 766 OFFCURVE",
"363 765 CURVE SMOOTH",
"302 765 OFFCURVE",
"251 758 OFFCURVE",
"175 758 CURVE SMOOTH",
"54 758 LINE",
"54 721 LINE",
"140 713 LINE",
"140 45 LINE",
"52 33 LINE"
);
},
{
closed = 1;
nodes = (
"212 713 LINE",
"244 718 OFFCURVE",
"288 721 OFFCURVE",
"341 722 CURVE SMOOTH",
"541 728 OFFCURVE",
"657 611 OFFCURVE",
"657 379 CURVE SMOOTH",
"657 144 OFFCURVE",
"514 40 OFFCURVE",
"348 37 CURVE SMOOTH",
"298 36 OFFCURVE",
"257 41 OFFCURVE",
"212 49 CURVE"
);
}
);
width = 778;
}
);
unicode = 0044;
},
{
glyphname = Eth;
lastChange = "2014-09-10 13:48:40 +0100";
layers = (
{
layerId = "E777F328-EA17-4AE7-9EBA-8002E537BA4F";
name = Light;
paths = (
{
closed = 1;
nodes = (
"52 0 LINE",
"82 0 OFFCURVE",
"146 0 OFFCURVE",
"176 0 CURVE SMOOTH",
"229 0 OFFCURVE",
"291 -5 OFFCURVE",
"338 -5 CURVE SMOOTH",
"569 -9 OFFCURVE",
"732 144 OFFCURVE",
"732 399 CURVE SMOOTH",
"732 629 OFFCURVE",
"610 766 OFFCURVE",
"363 765 CURVE SMOOTH",
"302 765 OFFCURVE",
"251 758 OFFCURVE",
"175 758 CURVE SMOOTH",
"54 758 LINE",
"54 721 LINE",
"140 713 LINE",
"140 425 LINE",
"47 425 LINE",
"47 371 LINE",
"140 371 LINE",
"140 45 LINE",
"52 33 LINE"
);
},
{
closed = 1;
nodes = (
"212 371 LINE",
"345 371 LINE",
"345 425 LINE",
"212 425 LINE",
"212 713 LINE",
"244 718 OFFCURVE",
"288 721 OFFCURVE",
"341 722 CURVE SMOOTH",
"541 728 OFFCURVE",
"657 611 OFFCURVE",
"657 379 CURVE SMOOTH",
"657 144 OFFCURVE",
"514 40 OFFCURVE",
"348 37 CURVE SMOOTH",
"298 36 OFFCURVE",
"257 41 OFFCURVE",
"212 49 CURVE"
);
}
);
width = 778;
}
);
unicode = 00D0;
},
{
glyphname = E;
lastChange = "2014-09-10 13:48:40 +0100";
layers = (
{
layerId = "E777F328-EA17-4AE7-9EBA-8002E537BA4F";
name = Light;
paths = (
{
closed = 1;
nodes = (
"50 0 LINE",
"589 0 LINE",
"611 154 LINE",
"575 163 LINE",
"531 49 LINE",
"209 41 LINE",
"209 382 LINE",
"409 379 LINE",
"421 297 LINE",
"460 297 LINE",
"460 504 LINE",
"421 504 LINE",
"409 426 LINE",
"209 422 LINE",
"209 719 LINE",
"508 713 LINE",
"531 619 LINE",
"572 619 LINE",
"558 758 LINE",
"52 758 LINE",
"52 721 LINE",
"138 713 LINE",
"138 44 LINE",
"50 33 LINE"
);
}
);
width = 644;
}
);
unicode = 0045;
},
{
glyphname = Eacute;
lastChange = "2014-09-10 13:48:40 +0100";
layers = (
{
layerId = "E777F328-EA17-4AE7-9EBA-8002E537BA4F";
name = Light;
paths = (
{
closed = 1;
nodes = (
"350 785 LINE",
"409 809 OFFCURVE",
"479 848 OFFCURVE",
"525 884 CURVE",
"473 938 LINE",
"329 806 LINE"
);
},
{
closed = 1;
nodes = (
"50 0 LINE",
"589 0 LINE",
"611 154 LINE",
"575 163 LINE",
"531 49 LINE",
"209 41 LINE",
"209 382 LINE",
"409 379 LINE",
"421 297 LINE",
"460 297 LINE",
"460 504 LINE",
"421 504 LINE",
"409 426 LINE",
"209 422 LINE",
"209 719 LINE",
"508 713 LINE",
"531 619 LINE",
"572 619 LINE",
"558 758 LINE",
"52 758 LINE",
"52 721 LINE",
"138 713 LINE",
"138 44 LINE",
"50 33 LINE"
);
}
);
width = 644;
}
);
unicode = 00C9;
},
{
glyphname = Ecircumflex;
lastChange = "2014-09-10 13:48:40 +0100";
layers = (
{
layerId = "E777F328-EA17-4AE7-9EBA-8002E537BA4F";
name = Light;
paths = (
{
closed = 1;
nodes = (
"216 790 LINE",
"352 887 LINE",
"485 790 LINE",
"520 809 LINE",
"388 938 LINE",
"316 938 LINE",
"185 808 LINE"
);
},
{
closed = 1;
nodes = (
"50 0 LINE",
"589 0 LINE",
"611 154 LINE",
"575 163 LINE",
"531 49 LINE",
"209 41 LINE",
"209 382 LINE",
"409 379 LINE",
"421 297 LINE",
"460 297 LINE",
"460 504 LINE",
"421 504 LINE",
"409 426 LINE",
"209 422 LINE",
"209 719 LINE",
"508 713 LINE",
"531 619 LINE",
"572 619 LINE",
"558 758 LINE",
"52 758 LINE",
"52 721 LINE",
"138 713 LINE",
"138 44 LINE",
"50 33 LINE"
);
}
);
width = 644;
}
);
unicode = 00CA;
},
{
glyphname = Edieresis;
lastChange = "2014-09-10 13:48:40 +0100";
layers = (
{
layerId = "E777F328-EA17-4AE7-9EBA-8002E537BA4F";
name = Light;
paths = (
{
closed = 1;
nodes = (
"487 825 OFFCURVE",
"516 847 OFFCURVE",
"516 879 CURVE SMOOTH",
"516 905 OFFCURVE",
"500 926 OFFCURVE",
"467 926 CURVE SMOOTH",
"439 926 OFFCURVE",
"410 902 OFFCURVE",
"410 871 CURVE SMOOTH",
"410 842 OFFCURVE",
"433 825 OFFCURVE",
"458 825 CURVE SMOOTH"
);
},
{
closed = 1;
nodes = (
"264 825 OFFCURVE",
"292 847 OFFCURVE",
"292 880 CURVE SMOOTH",
"292 905 OFFCURVE",
"277 926 OFFCURVE",
"244 926 CURVE SMOOTH",
"216 926 OFFCURVE",
"187 903 OFFCURVE",
"187 872 CURVE SMOOTH",
"187 843 OFFCURVE",
"210 825 OFFCURVE",
"235 825 CURVE SMOOTH"
);
},
{
closed = 1;
nodes = (
"50 0 LINE",
"589 0 LINE",
"611 154 LINE",
"575 163 LINE",
"531 49 LINE",
"209 41 LINE",
"209 382 LINE",
"409 379 LINE",
"421 297 LINE",
"460 297 LINE",
"460 504 LINE",
"421 504 LINE",
"409 426 LINE",
"209 422 LINE",
"209 719 LINE",
"508 713 LINE",
"531 619 LINE",
"572 619 LINE",
"558 758 LINE",
"52 758 LINE",
"52 721 LINE",
"138 713 LINE",
"138 44 LINE",
"50 33 LINE"
);
}
);
width = 644;
}
);
unicode = 00CB;
},
{
glyphname = Egrave;
lastChange = "2014-09-10 13:48:40 +0100";
layers = (
{
layerId = "E777F328-EA17-4AE7-9EBA-8002E537BA4F";
name = Light;
paths = (
{
closed = 1;
nodes = (
"374 806 LINE",
"229 938 LINE",
"178 884 LINE",
"224 848 OFFCURVE",
"294 809 OFFCURVE",
"354 785 CURVE"
);
},
{
closed = 1;
nodes = (
"50 0 LINE",
"589 0 LINE",
"611 154 LINE",
"575 163 LINE",
"531 49 LINE",
"209 41 LINE",
"209 382 LINE",
"409 379 LINE",
"421 297 LINE",
"460 297 LINE",
"460 504 LINE",
"421 504 LINE",
"409 426 LINE",
"209 422 LINE",
"209 719 LINE",
"508 713 LINE",
"531 619 LINE",
"572 619 LINE",
"558 758 LINE",
"52 758 LINE",
"52 721 LINE",
"138 713 LINE",
"138 44 LINE",
"50 33 LINE"
);
}
);
width = 644;
}
);
unicode = 00C8;
},
{
glyphname = Eogonek;
lastChange = "2014-09-10 13:48:40 +0100";
layers = (
{
layerId = "E777F328-EA17-4AE7-9EBA-8002E537BA4F";
name = Light;
paths = (
{
closed = 1;
nodes = (
"50 0 LINE",
"516 0 LINE",
"440 -30 OFFCURVE",
"363 -101 OFFCURVE",
"363 -165 CURVE SMOOTH",
"363 -212 OFFCURVE",
"395 -255 OFFCURVE",
"461 -257 CURVE SMOOTH",
"542 -260 OFFCURVE",
"589 -228 OFFCURVE",
"615 -208 CURVE",
"606 -173 LINE",
"586 -185 OFFCURVE",
"542 -211 OFFCURVE",
"500 -209 CURVE SMOOTH",
"453 -207 OFFCURVE",
"429 -190 OFFCURVE",
"429 -145 CURVE SMOOTH",
"429 -85 OFFCURVE",
"533 -16 OFFCURVE",
"589 0 CURVE",
"611 154 LINE",
"575 163 LINE",
"531 49 LINE",
"209 41 LINE",
"209 382 LINE",
"409 379 LINE",
"421 297 LINE",
"460 297 LINE",
"460 504 LINE",
"421 504 LINE",
"409 426 LINE",
"209 422 LINE",
"209 719 LINE",
"508 713 LINE",
"531 619 LINE",
"572 619 LINE",
"558 758 LINE",
"52 758 LINE",
"52 721 LINE",
"138 713 LINE",
"138 44 LINE",
"50 33 LINE"
);
}
);
width = 644;
}
);
unicode = 0118;
},
{
glyphname = F;
lastChange = "2014-09-10 13:48:40 +0100";
layers = (
{
layerId = "E777F328-EA17-4AE7-9EBA-8002E537BA4F";
name = Light;
paths = (
{
closed = 1;
nodes = (
"51 0 LINE",
"367 0 LINE",
"367 36 LINE",
"216 44 LINE",
"216 367 LINE",
"442 363 LINE",
"454 282 LINE",
"496 282 LINE",
"496 487 LINE",
"458 487 LINE",
"442 411 LINE",
"216 407 LINE",
"216 717 LINE",
"525 711 LINE",
"548 618 LINE",
"586 619 LINE",
"575 758 LINE",
"58 758 LINE",
"58 721 LINE",
"144 713 LINE",
"144 45 LINE",
"51 33 LINE"
);
}
);
width = 604;
}
);
unicode = 0046;
},
{
glyphname = G;
lastChange = "2014-09-10 13:48:40 +0100";
layers = (
{
layerId = "E777F328-EA17-4AE7-9EBA-8002E537BA4F";
name = Light;
paths = (
{
closed = 1;
nodes = (
"42 143 OFFCURVE",
"180 -14 OFFCURVE",
"382 -14 CURVE SMOOTH",
"500 -14 OFFCURVE",
"611 33 OFFCURVE",
"654 37 CURVE",
"654 301 LINE",
"721 309 LINE",
"721 346 LINE",
"447 346 LINE",
"447 309 LINE",
"582 302 LINE",
"582 75 LINE",
"544 42 OFFCURVE",
"464 27 OFFCURVE",
"401 27 CURVE SMOOTH",
"204 27 OFFCURVE",
"117 202 OFFCURVE",
"117 379 CURVE SMOOTH",
"117 597 OFFCURVE",
"260 720 OFFCURVE",
"412 722 CURVE SMOOTH",
"504 723 OFFCURVE",
"567 701 OFFCURVE",
"586 685 CURVE",
"606 599 LINE",
"646 599 LINE",
"653 732 LINE",
"615 740 OFFCURVE",
"552 765 OFFCURVE",
"434 765 CURVE SMOOTH",
"221 765 OFFCURVE",
"42 606 OFFCURVE",
"42 357 CURVE SMOOTH"
);
}
);
width = 750;
}
);
unicode = 0047;
},
{
glyphname = H;
lastChange = "2014-09-10 13:48:40 +0100";
layers = (
{
layerId = "E777F328-EA17-4AE7-9EBA-8002E537BA4F";
name = Light;
paths = (
{
closed = 1;
nodes = (
"52 0 LINE",
"291 0 LINE",
"291 33 LINE",
"208 44 LINE",
"208 343 LINE",
"617 343 LINE",
"617 44 LINE",
"534 33 LINE",
"534 0 LINE",
"774 0 LINE",
"774 33 LINE",
"689 45 LINE",
"689 714 LINE",
"766 721 LINE",
"766 758 LINE",
"537 758 LINE",
"537 721 LINE",
"617 714 LINE",
"617 388 LINE",
"208 388 LINE",
"208 714 LINE",
"287 721 LINE",
"287 758 LINE",
"55 758 LINE",
"55 721 LINE",
"136 714 LINE",
"136 45 LINE",
"52 33 LINE"
);
}
);
width = 833;
}
);
unicode = 0048;
},
{
glyphname = I;
lastChange = "2014-09-10 13:48:40 +0100";
layers = (
{
layerId = "E777F328-EA17-4AE7-9EBA-8002E537BA4F";
name = Light;
paths = (
{
closed = 1;
nodes = (
"66 0 LINE",
"307 0 LINE",
"307 33 LINE",
"221 44 LINE",
"221 714 LINE",
"303 721 LINE",
"303 758 LINE",
"68 758 LINE",
"68 721 LINE",
"149 714 LINE",
"149 44 LINE",
"66 33 LINE"
);
}
);
width = 373;
}
);
unicode = 0049;
},
{
glyphname = IJ;
lastChange = "2014-09-10 13:48:40 +0100";
layers = (
{
layerId = "E777F328-EA17-4AE7-9EBA-8002E537BA4F";
name = Light;
paths = (
{
closed = 1;
nodes = (
"352 -189 LINE",
"451 -175 OFFCURVE",
"556 -100 OFFCURVE",
"579 17 CURVE SMOOTH",
"591 78 OFFCURVE",
"588 151 OFFCURVE",
"588 232 CURVE SMOOTH",
"588 714 LINE",
"676 721 LINE",
"676 758 LINE",
"430 758 LINE",
"430 721 LINE",
"516 714 LINE",
"516 196 LINE SMOOTH",
"516 96 OFFCURVE",
"514 28 OFFCURVE",
"495 -29 CURVE",
"470 -92 OFFCURVE",
"411 -139 OFFCURVE",
"331 -160 CURVE"
);
},
{
closed = 1;
nodes = (
"66 0 LINE",
"307 0 LINE",
"307 33 LINE",
"221 44 LINE",
"221 714 LINE",
"303 721 LINE",
"303 758 LINE",
"68 758 LINE",
"68 721 LINE",
"149 714 LINE",
"149 44 LINE",
"66 33 LINE"
);
}
);
width = 725;
}
);
unicode = 0132;
},
{
glyphname = Iacute;
lastChange = "2014-09-10 13:48:40 +0100";
layers = (
{
layerId = "E777F328-EA17-4AE7-9EBA-8002E537BA4F";
name = Light;
paths = (
{
closed = 1;
nodes = (
"184 785 LINE",
"243 809 OFFCURVE",
"313 848 OFFCURVE",
"360 884 CURVE",
"308 938 LINE",
"163 806 LINE"
);
},
{
closed = 1;
nodes = (
"66 0 LINE",
"307 0 LINE",
"307 33 LINE",
"221 44 LINE",
"221 714 LINE",
"303 721 LINE",
"303 758 LINE",
"68 758 LINE",
"68 721 LINE",
"149 714 LINE",
"149 44 LINE",
"66 33 LINE"
);
}
);
width = 373;
}
);
unicode = 00CD;
},
{
glyphname = Icircumflex;
lastChange = "2014-09-10 13:48:40 +0100";
layers = (
{
layerId = "E777F328-EA17-4AE7-9EBA-8002E537BA4F";
name = Light;
paths = (
{
closed = 1;
nodes = (
"50 790 LINE",
"187 887 LINE",
"320 790 LINE",
"354 809 LINE",
"222 938 LINE",
"151 938 LINE",
"20 808 LINE"
);
},
{
closed = 1;
nodes = (
"66 0 LINE",
"307 0 LINE",
"307 33 LINE",
"221 44 LINE",
"221 714 LINE",
"303 721 LINE",
"303 758 LINE",
"68 758 LINE",
"68 721 LINE",
"149 714 LINE",
"149 44 LINE",
"66 33 LINE"
);
}
);
width = 373;
}
);
unicode = 00CE;
},
{
glyphname = Idieresis;
lastChange = "2014-09-10 13:48:40 +0100";
layers = (
{
layerId = "E777F328-EA17-4AE7-9EBA-8002E537BA4F";
name = Light;
paths = (
{
closed = 1;
nodes = (
"322 825 OFFCURVE",
"350 847 OFFCURVE",
"350 879 CURVE SMOOTH",
"350 905 OFFCURVE",
"335 926 OFFCURVE",
"302 926 CURVE SMOOTH",
"274 926 OFFCURVE",
"244 902 OFFCURVE",
"244 871 CURVE SMOOTH",
"244 842 OFFCURVE",
"268 825 OFFCURVE",
"292 825 CURVE SMOOTH"
);
},
{
closed = 1;
nodes = (
"99 825 OFFCURVE",
"127 847 OFFCURVE",
"127 880 CURVE SMOOTH",
"127 905 OFFCURVE",
"112 926 OFFCURVE",
"78 926 CURVE SMOOTH",
"51 926 OFFCURVE",
"21 903 OFFCURVE",
"21 872 CURVE SMOOTH",
"21 843 OFFCURVE",
"44 825 OFFCURVE",
"69 825 CURVE SMOOTH"
);
},
{
closed = 1;
nodes = (
"66 0 LINE",
"307 0 LINE",
"307 33 LINE",
"221 44 LINE",
"221 714 LINE",
"303 721 LINE",
"303 758 LINE",
"68 758 LINE",
"68 721 LINE",
"149 714 LINE",
"149 44 LINE",
"66 33 LINE"
);
}
);
width = 373;
}
);
unicode = 00CF;
},
{
glyphname = Igrave;
lastChange = "2014-09-10 13:48:40 +0100";
layers = (
{
layerId = "E777F328-EA17-4AE7-9EBA-8002E537BA4F";
name = Light;
paths = (
{
closed = 1;
nodes = (
"208 806 LINE",
"64 938 LINE",
"12 884 LINE",
"58 848 OFFCURVE",
"129 809 OFFCURVE",
"188 785 CURVE"
);
},
{
closed = 1;
nodes = (
"66 0 LINE",
"307 0 LINE",
"307 33 LINE",
"221 44 LINE",
"221 714 LINE",
"303 721 LINE",
"303 758 LINE",
"68 758 LINE",
"68 721 LINE",
"149 714 LINE",
"149 44 LINE",
"66 33 LINE"
);
}
);
width = 373;
}
);
unicode = 00CC;
},
{
glyphname = Itilde;
lastChange = "2014-09-10 13:48:40 +0100";
layers = (
{
layerId = "E777F328-EA17-4AE7-9EBA-8002E537BA4F";
name = Light;
paths = (
{
closed = 1;
nodes = (
"18 831 LINE",
"39 855 OFFCURVE",
"73 879 OFFCURVE",
"111 879 CURVE SMOOTH",
"161 879 OFFCURVE",
"184 807 OFFCURVE",
"248 807 CURVE SMOOTH",
"300 807 OFFCURVE",
"351 844 OFFCURVE",
"375 885 CURVE",
"355 915 LINE",
"333 890 OFFCURVE",
"303 867 OFFCURVE",
"262 867 CURVE SMOOTH",
"212 867 OFFCURVE",
"189 938 OFFCURVE",
"126 938 CURVE SMOOTH",
"74 938 OFFCURVE",
"22 902 OFFCURVE",
"-3 859 CURVE"
);
},
{
closed = 1;
nodes = (
"66 0 LINE",
"307 0 LINE",
"307 33 LINE",
"221 44 LINE",
"221 714 LINE",
"303 721 LINE",
"303 758 LINE",
"68 758 LINE",
"68 721 LINE",
"149 714 LINE",
"149 44 LINE",
"66 33 LINE"
);
}
);
width = 373;
}
);
unicode = 0128;
},
{
glyphname = J;
lastChange = "2014-09-10 13:48:40 +0100";
layers = (
{
layerId = "E777F328-EA17-4AE7-9EBA-8002E537BA4F";
name = Light;
paths = (
{
closed = 1;
nodes = (
"97 -92 OFFCURVE",
"38 -139 OFFCURVE",
"-42 -160 CURVE",
"-21 -189 LINE",
"79 -175 OFFCURVE",
"183 -100 OFFCURVE",
"207 17 CURVE SMOOTH",
"218 78 OFFCURVE",
"215 151 OFFCURVE",
"215 232 CURVE SMOOTH",
"215 714 LINE",
"303 721 LINE",
"303 758 LINE",
"57 758 LINE",
"57 721 LINE",
"143 714 LINE",
"143 196 LINE SMOOTH",
"143 96 OFFCURVE",
"142 28 OFFCURVE",
"122 -29 CURVE"
);
}
);
width = 352;
}
);
unicode = 004A;
},
{
glyphname = Jcircumflex;
lastChange = "2014-09-10 13:48:40 +0100";
layers = (
{
layerId = "E777F328-EA17-4AE7-9EBA-8002E537BA4F";
name = Light;
paths = (
{
closed = 1;
nodes = (
"43 790 LINE",
"180 887 LINE",
"313 790 LINE",
"347 809 LINE",
"215 938 LINE",
"144 938 LINE",
"13 808 LINE"
);
},
{
closed = 1;
nodes = (
"97 -92 OFFCURVE",
"38 -139 OFFCURVE",
"-42 -160 CURVE",
"-21 -189 LINE",
"79 -175 OFFCURVE",
"183 -100 OFFCURVE",
"207 17 CURVE SMOOTH",
"218 78 OFFCURVE",
"215 151 OFFCURVE",
"215 232 CURVE SMOOTH",
"215 714 LINE",
"303 721 LINE",
"303 758 LINE",
"57 758 LINE",
"57 721 LINE",
"143 714 LINE",
"143 196 LINE SMOOTH",
"143 96 OFFCURVE",
"142 28 OFFCURVE",
"122 -29 CURVE"
);
}
);
width = 352;
}
);
unicode = 0134;
},
{
glyphname = K;
lastChange = "2014-09-10 13:48:40 +0100";
layers = (
{
layerId = "E777F328-EA17-4AE7-9EBA-8002E537BA4F";
name = Light;
paths = (
{
closed = 1;
nodes = (
"52 0 LINE",
"290 0 LINE",
"290 33 LINE",
"204 44 LINE",
"204 283 LINE",
"297 389 LINE",
"366 323 OFFCURVE",
"534 0 OFFCURVE",
"568 0 CURVE SMOOTH",
"696 0 LINE",
"696 33 LINE",
"622 47 LINE",
"588 47 OFFCURVE",
"400 373 OFFCURVE",
"339 437 CURVE",
"584 713 LINE",
"662 721 LINE",
"662 758 LINE",
"437 758 LINE",
"437 747 OFFCURVE",
"438 732 OFFCURVE",
"438 721 CURVE",
"516 713 LINE",
"204 350 LINE",
"204 714 LINE",
"282 721 LINE",
"282 758 LINE",
"53 758 LINE",
"53 721 LINE",
"131 714 LINE",
"131 44 LINE",
"52 33 LINE"
);
}
);
width = 693;
}
);
unicode = 004B;
},
{
glyphname = Kcommaaccent;
lastChange = "2014-09-10 13:48:40 +0100";
layers = (
{
layerId = "E777F328-EA17-4AE7-9EBA-8002E537BA4F";
name = Light;
paths = (
{
closed = 1;
nodes = (
"52 0 LINE",
"290 0 LINE",
"290 33 LINE",
"204 44 LINE",
"204 283 LINE",
"297 389 LINE",
"366 323 OFFCURVE",
"534 0 OFFCURVE",
"568 0 CURVE SMOOTH",
"696 0 LINE",
"696 33 LINE",
"622 47 LINE",
"588 47 OFFCURVE",
"400 373 OFFCURVE",
"339 437 CURVE",
"584 713 LINE",
"662 721 LINE",
"662 758 LINE",
"437 758 LINE",
"437 747 OFFCURVE",
"438 732 OFFCURVE",
"438 721 CURVE",
"516 713 LINE",
"204 350 LINE",
"204 714 LINE",
"282 721 LINE",
"282 758 LINE",
"53 758 LINE",
"53 721 LINE",
"131 714 LINE",
"131 44 LINE",
"52 33 LINE"
);
},
{
closed = 1;
nodes = (
"336 -73 LINE",
"336 -94 LINE",
"359 -94 OFFCURVE",
"395 -120 OFFCURVE",
"395 -163 CURVE SMOOTH",
"395 -212 OFFCURVE",
"375 -264 OFFCURVE",
"335 -281 CURVE",
"335 -294 LINE",
"356 -313 LINE",
"404 -296 OFFCURVE",
"471 -229 OFFCURVE",
"469 -147 CURVE",
"469 -101 OFFCURVE",
"435 -48 OFFCURVE",
"372 -36 CURVE"
);
}
);
width = 693;
}
);
unicode = 0136;
},
{
glyphname = L;
lastChange = "2014-09-10 13:48:40 +0100";
layers = (
{
layerId = "E777F328-EA17-4AE7-9EBA-8002E537BA4F";
name = Light;
paths = (
{
closed = 1;
nodes = (
"52 0 LINE",
"561 0 LINE",
"593 155 LINE",
"560 171 LINE",
"507 51 LINE",
"211 42 LINE",
"212 710 LINE",
"307 717 LINE",
"307 758 LINE",
"54 758 LINE",
"54 717 LINE",
"140 710 LINE",
"140 45 LINE",
"52 33 LINE"
);
}
);
width = 607;
}
);
unicode = 004C;
},
{
glyphname = Ldot;
lastChange = "2014-09-10 13:48:40 +0100";
layers = (
{
layerId = "E777F328-EA17-4AE7-9EBA-8002E537BA4F";
name = Light;
paths = (
{
closed = 1;
nodes = (
"52 0 LINE",
"561 0 LINE",
"593 155 LINE",
"560 171 LINE",
"507 51 LINE",
"211 42 LINE",
"212 710 LINE",
"307 717 LINE",
"307 758 LINE",
"54 758 LINE",
"54 717 LINE",
"140 710 LINE",
"140 45 LINE",
"52 33 LINE"
);
},
{
closed = 1;
nodes = (
"601 366 OFFCURVE",
"628 383 OFFCURVE",
"632 411 CURVE SMOOTH",
"636 434 OFFCURVE",
"628 455 OFFCURVE",
"599 459 CURVE SMOOTH",
"576 461 OFFCURVE",
"547 444 OFFCURVE",
"543 417 CURVE SMOOTH",
"539 392 OFFCURVE",
"555 373 OFFCURVE",
"576 370 CURVE SMOOTH"
);
}
);
width = 680;
}
);
unicode = 013F;
},
{
glyphname = Lslash;
lastChange = "2014-09-10 13:48:40 +0100";
layers = (
{
layerId = "E777F328-EA17-4AE7-9EBA-8002E537BA4F";
name = Light;
paths = (
{
closed = 1;
nodes = (
"52 0 LINE",
"561 0 LINE",
"593 155 LINE",
"560 171 LINE",
"507 51 LINE",
"211 42 LINE",
"211 316 LINE",
"475 422 LINE",
"475 481 LINE",
"389 445 LINE",
"211 373 LINE",
"212 710 LINE",
"307 717 LINE",
"307 758 LINE",
"54 758 LINE",
"54 717 LINE",
"140 710 LINE",
"140 343 LINE",
"83 319 OFFCURVE",
"43 303 OFFCURVE",
"43 303 CURVE",
"43 302 OFFCURVE",
"43 289 OFFCURVE",
"43 275 CURVE SMOOTH",
"43 249 LINE",
"140 287 LINE",
"140 45 LINE",
"52 33 LINE"
);
}
);
width = 607;
}
);
unicode = 0141;
},
{
glyphname = M;
lastChange = "2014-09-10 13:48:40 +0100";
layers = (
{
layerId = "E777F328-EA17-4AE7-9EBA-8002E537BA4F";
name = Light;
paths = (
{
closed = 1;
nodes = (
"38 0 LINE",
"291 0 LINE",
"291 33 LINE",
"187 45 LINE",
"214 520 LINE",
"222 712 LINE",
"237 668 OFFCURVE",
"258 605 OFFCURVE",
"272 566 CURVE SMOOTH",
"475 -7 LINE",
"500 -7 LINE",
"710 619 LINE",
"736 712 LINE",
"743 546 LINE",
"786 44 LINE",
"692 33 LINE",
"692 0 LINE",
"949 0 LINE",
"949 33 LINE",
"854 44 LINE",
"796 710 LINE",
"893 718 LINE",
"893 758 LINE",
"704 758 LINE",
"519 184 LINE",
"497 115 LINE",
"477 183 LINE",
"281 758 LINE",
"80 758 LINE",
"80 718 LINE",
"178 710 LINE",
"128 44 LINE",
"38 33 LINE"
);
}
);
width = 965;
}
);
unicode = 004D;
},
{
glyphname = N;
lastChange = "2014-09-10 13:48:40 +0100";
layers = (
{
layerId = "E777F328-EA17-4AE7-9EBA-8002E537BA4F";
name = Light;
paths = (
{
closed = 1;
nodes = (
"51 0 LINE",
"291 0 LINE",
"291 33 LINE",
"190 44 LINE",
"190 191 OFFCURVE",
"191 529 OFFCURVE",
"191 680 CURVE",
"263 543 LINE",
"610 0 LINE",
"689 0 LINE",
"689 710 LINE",
"774 718 LINE",
"774 758 LINE",
"551 758 LINE",
"551 718 LINE",
"636 710 LINE",
"636 63 LINE",
"564 195 LINE",
"213 758 LINE",
"54 758 LINE",
"54 717 LINE",
"137 710 LINE",
"137 44 LINE",
"51 33 LINE"
);
}
);
width = 812;
}
);
unicode = 004E;
},
{
glyphname = Nacute;
lastChange = "2014-09-10 13:48:40 +0100";
layers = (
{
layerId = "E777F328-EA17-4AE7-9EBA-8002E537BA4F";
name = Light;
paths = (
{
closed = 1;
nodes = (
"407 785 LINE",
"466 809 OFFCURVE",
"537 848 OFFCURVE",
"583 884 CURVE",
"531 938 LINE",
"387 806 LINE"
);
},
{
closed = 1;
nodes = (
"51 0 LINE",
"291 0 LINE",
"291 33 LINE",
"190 44 LINE",
"190 191 OFFCURVE",
"191 529 OFFCURVE",
"191 680 CURVE",
"263 543 LINE",
"610 0 LINE",
"689 0 LINE",
"689 710 LINE",
"774 718 LINE",
"774 758 LINE",
"551 758 LINE",
"551 718 LINE",
"636 710 LINE",
"636 63 LINE",
"564 195 LINE",
"213 758 LINE",
"54 758 LINE",
"54 717 LINE",
"137 710 LINE",
"137 44 LINE",
"51 33 LINE"
);
}
);
width = 812;
}
);
unicode = 0143;
},
{
glyphname = Ntilde;
lastChange = "2014-09-10 13:48:40 +0100";
layers = (
{
layerId = "E777F328-EA17-4AE7-9EBA-8002E537BA4F";
name = Light;
paths = (
{
closed = 1;
nodes = (
"237 831 LINE",
"258 855 OFFCURVE",
"292 879 OFFCURVE",
"331 879 CURVE SMOOTH",
"381 879 OFFCURVE",
"404 807 OFFCURVE",
"467 807 CURVE SMOOTH",
"520 807 OFFCURVE",
"570 844 OFFCURVE",
"595 885 CURVE",
"575 915 LINE",
"553 890 OFFCURVE",
"523 867 OFFCURVE",
"481 867 CURVE SMOOTH",
"432 867 OFFCURVE",
"409 938 OFFCURVE",
"346 938 CURVE SMOOTH",
"293 938 OFFCURVE",
"242 902 OFFCURVE",
"216 859 CURVE"
);
},
{
closed = 1;
nodes = (
"51 0 LINE",
"291 0 LINE",
"291 33 LINE",
"190 44 LINE",
"190 191 OFFCURVE",
"191 529 OFFCURVE",
"191 680 CURVE",
"263 543 LINE",
"610 0 LINE",
"689 0 LINE",
"689 710 LINE",
"774 718 LINE",
"774 758 LINE",
"551 758 LINE",
"551 718 LINE",
"636 710 LINE",
"636 63 LINE",
"564 195 LINE",
"213 758 LINE",
"54 758 LINE",
"54 717 LINE",
"137 710 LINE",
"137 44 LINE",
"51 33 LINE"
);
}
);
width = 812;
}
);
unicode = 00D1;
},
{
glyphname = O;
lastChange = "2014-09-10 13:48:40 +0100";
layers = (
{
background = {
paths = (
{
closed = 1;
nodes = (
"42 142 OFFCURVE",
"176 -18 OFFCURVE",
"379 -14 CURVE SMOOTH",
"562 -10 OFFCURVE",
"711 132 OFFCURVE",
"716 386 CURVE SMOOTH",
"720 609 OFFCURVE",
"592 769 OFFCURVE",
"393 765 CURVE SMOOTH",
"207 761 OFFCURVE",
"51 624 OFFCURVE",
"45 369 CURVE SMOOTH"
);
},
{
closed = 1;
nodes = (
"224 27 OFFCURVE",
"125 176 OFFCURVE",
"125 369 CURVE SMOOTH",
"125 595 OFFCURVE",
"234 724 OFFCURVE",
"385 724 CURVE SMOOTH",
"547 724 OFFCURVE",
"638 573 OFFCURVE",
"638 386 CURVE SMOOTH",
"638 165 OFFCURVE",
"536 27 OFFCURVE",
"386 27 CURVE SMOOTH"
);
}
);
};
layerId = "E777F328-EA17-4AE7-9EBA-8002E537BA4F";
name = Light;
paths = (
{
closed = 1;
nodes = (
"42 145 OFFCURVE",
"173 -14 OFFCURVE",
"372 -14 CURVE SMOOTH",
"560 -14 OFFCURVE",
"716 133 OFFCURVE",
"716 396 CURVE SMOOTH",
"716 611 OFFCURVE",
"592 765 OFFCURVE",
"400 765 CURVE SMOOTH",
"211 765 OFFCURVE",
"51 627 OFFCURVE",
"45 369 CURVE SMOOTH"
);
},
{
closed = 1;
nodes = (
"224 27 OFFCURVE",
"125 176 OFFCURVE",
"125 369 CURVE SMOOTH",
"125 595 OFFCURVE",
"234 724 OFFCURVE",
"385 724 CURVE SMOOTH",
"547 724 OFFCURVE",
"638 573 OFFCURVE",
"638 386 CURVE SMOOTH",
"638 165 OFFCURVE",
"536 27 OFFCURVE",
"386 27 CURVE SMOOTH"
);
}
);
width = 759;
}
);
unicode = 004F;
},
{
glyphname = Oacute;
lastChange = "2014-09-10 13:48:40 +0100";
layers = (
{
layerId = "E777F328-EA17-4AE7-9EBA-8002E537BA4F";
name = Light;
paths = (
{
closed = 1;
nodes = (
"386 785 LINE",
"445 809 OFFCURVE",
"516 848 OFFCURVE",
"562 884 CURVE",
"510 938 LINE",
"365 806 LINE"
);
},
{
closed = 1;
nodes = (
"42 142 OFFCURVE",
"176 -18 OFFCURVE",
"379 -14 CURVE SMOOTH",
"562 -10 OFFCURVE",
"711 132 OFFCURVE",
"716 386 CURVE SMOOTH",
"720 609 OFFCURVE",
"592 769 OFFCURVE",
"393 765 CURVE SMOOTH",
"207 761 OFFCURVE",
"51 624 OFFCURVE",
"45 369 CURVE SMOOTH"
);
},
{
closed = 1;
nodes = (
"224 27 OFFCURVE",
"125 176 OFFCURVE",
"125 369 CURVE SMOOTH",
"125 595 OFFCURVE",
"234 724 OFFCURVE",
"385 724 CURVE SMOOTH",
"547 724 OFFCURVE",
"638 573 OFFCURVE",
"638 386 CURVE SMOOTH",
"638 165 OFFCURVE",
"536 27 OFFCURVE",
"386 27 CURVE SMOOTH"
);
}
);
width = 759;
}
);
unicode = 00D3;
},
{
glyphname = Ocircumflex;
lastChange = "2014-09-10 13:48:40 +0100";
layers = (
{
layerId = "E777F328-EA17-4AE7-9EBA-8002E537BA4F";
name = Light;
paths = (
{
closed = 1;
nodes = (
"252 790 LINE",
"388 887 LINE",
"521 790 LINE",
"556 809 LINE",
"424 938 LINE",
"353 938 LINE",
"222 808 LINE"
);
},
{
closed = 1;
nodes = (
"42 142 OFFCURVE",
"176 -18 OFFCURVE",
"379 -14 CURVE SMOOTH",
"562 -10 OFFCURVE",
"711 132 OFFCURVE",
"716 386 CURVE SMOOTH",
"720 609 OFFCURVE",
"592 769 OFFCURVE",
"393 765 CURVE SMOOTH",
"207 761 OFFCURVE",
"51 624 OFFCURVE",
"45 369 CURVE SMOOTH"
);
},
{
closed = 1;
nodes = (
"224 27 OFFCURVE",
"125 176 OFFCURVE",
"125 369 CURVE SMOOTH",
"125 595 OFFCURVE",
"234 724 OFFCURVE",
"385 724 CURVE SMOOTH",
"547 724 OFFCURVE",
"638 573 OFFCURVE",
"638 386 CURVE SMOOTH",
"638 165 OFFCURVE",
"536 27 OFFCURVE",
"386 27 CURVE SMOOTH"
);
}
);
width = 759;
}
);
unicode = 00D4;
},
{
glyphname = Odieresis;
lastChange = "2014-09-10 13:48:40 +0100";
layers = (
{
layerId = "E777F328-EA17-4AE7-9EBA-8002E537BA4F";
name = Light;
paths = (
{
closed = 1;
nodes = (
"523 825 OFFCURVE",
"552 847 OFFCURVE",
"552 879 CURVE SMOOTH",
"552 905 OFFCURVE",
"537 926 OFFCURVE",
"503 926 CURVE SMOOTH",
"476 926 OFFCURVE",
"446 902 OFFCURVE",
"446 871 CURVE SMOOTH",
"446 842 OFFCURVE",
"470 825 OFFCURVE",
"495 825 CURVE SMOOTH"
);
},
{
closed = 1;
nodes = (
"300 825 OFFCURVE",
"329 847 OFFCURVE",
"329 880 CURVE SMOOTH",
"329 905 OFFCURVE",
"313 926 OFFCURVE",
"280 926 CURVE SMOOTH",
"253 926 OFFCURVE",
"223 903 OFFCURVE",
"223 872 CURVE SMOOTH",
"223 843 OFFCURVE",
"246 825 OFFCURVE",
"271 825 CURVE SMOOTH"
);
},
{
closed = 1;
nodes = (
"42 142 OFFCURVE",
"176 -18 OFFCURVE",
"379 -14 CURVE SMOOTH",
"562 -10 OFFCURVE",
"711 132 OFFCURVE",
"716 386 CURVE SMOOTH",
"720 609 OFFCURVE",
"592 769 OFFCURVE",
"393 765 CURVE SMOOTH",
"207 761 OFFCURVE",
"51 624 OFFCURVE",
"45 369 CURVE SMOOTH"
);
},
{
closed = 1;
nodes = (
"224 27 OFFCURVE",
"125 176 OFFCURVE",
"125 369 CURVE SMOOTH",
"125 595 OFFCURVE",
"234 724 OFFCURVE",
"385 724 CURVE SMOOTH",
"547 724 OFFCURVE",
"638 573 OFFCURVE",
"638 386 CURVE SMOOTH",
"638 165 OFFCURVE",
"536 27 OFFCURVE",
"386 27 CURVE SMOOTH"
);
}
);
width = 759;
}
);
unicode = 00D6;
},
{
glyphname = Ograve;
lastChange = "2014-09-10 13:48:40 +0100";
layers = (
{
layerId = "E777F328-EA17-4AE7-9EBA-8002E537BA4F";
name = Light;
paths = (
{
closed = 1;
nodes = (
"411 806 LINE",
"266 938 LINE",
"214 884 LINE",
"261 848 OFFCURVE",
"330 809 OFFCURVE",
"390 785 CURVE"
);
},
{
closed = 1;
nodes = (
"42 142 OFFCURVE",
"176 -18 OFFCURVE",
"379 -14 CURVE SMOOTH",
"562 -10 OFFCURVE",
"711 132 OFFCURVE",
"716 386 CURVE SMOOTH",
"720 609 OFFCURVE",
"592 769 OFFCURVE",
"393 765 CURVE SMOOTH",
"207 761 OFFCURVE",
"51 624 OFFCURVE",
"45 369 CURVE SMOOTH"
);
},
{
closed = 1;
nodes = (
"224 27 OFFCURVE",
"125 176 OFFCURVE",
"125 369 CURVE SMOOTH",
"125 595 OFFCURVE",
"234 724 OFFCURVE",
"385 724 CURVE SMOOTH",
"547 724 OFFCURVE",
"638 573 OFFCURVE",
"638 386 CURVE SMOOTH",
"638 165 OFFCURVE",
"536 27 OFFCURVE",
"386 27 CURVE SMOOTH"
);
}
);
width = 759;
}
);
unicode = 00D2;
},
{
glyphname = Oslash;
lastChange = "2014-09-10 13:48:40 +0100";
layers = (
{
layerId = "E777F328-EA17-4AE7-9EBA-8002E537BA4F";
name = Light;
paths = (
{
closed = 1;
nodes = (
"217 -81 LINE",
"252 -94 LINE",
"283 -2 LINE",
"313 -10 OFFCURVE",
"346 -14 OFFCURVE",
"379 -14 CURVE SMOOTH",
"562 -10 OFFCURVE",
"711 132 OFFCURVE",
"716 386 CURVE SMOOTH",
"719 549 OFFCURVE",
"652 677 OFFCURVE",
"538 733 CURVE",
"565 812 LINE",
"532 825 LINE",
"505 748 LINE",
"470 759 OFFCURVE",
"433 765 OFFCURVE",
"393 765 CURVE SMOOTH",
"207 761 OFFCURVE",
"51 624 OFFCURVE",
"45 369 CURVE SMOOTH",
"42 195 OFFCURVE",
"121 61 OFFCURVE",
"248 9 CURVE"
);
},
{
closed = 1;
nodes = (
"267 59 LINE",
"177 113 OFFCURVE",
"125 229 OFFCURVE",
"125 369 CURVE SMOOTH",
"125 595 OFFCURVE",
"234 724 OFFCURVE",
"385 724 CURVE SMOOTH",
"424 724 OFFCURVE",
"458 715 OFFCURVE",
"487 700 CURVE"
);
},
{
closed = 1;
nodes = (
"519 681 LINE",
"596 624 OFFCURVE",
"638 512 OFFCURVE",
"638 386 CURVE SMOOTH",
"638 165 OFFCURVE",
"536 27 OFFCURVE",
"386 27 CURVE SMOOTH",
"355 27 OFFCURVE",
"327 32 OFFCURVE",
"301 42 CURVE"
);
}
);
width = 759;
}
);
unicode = 00D8;
},
{
glyphname = Otilde;
lastChange = "2014-09-10 13:48:40 +0100";
layers = (
{
layerId = "E777F328-EA17-4AE7-9EBA-8002E537BA4F";
name = Light;
paths = (
{
closed = 1;
nodes = (
"216 831 LINE",
"238 855 OFFCURVE",
"271 879 OFFCURVE",
"310 879 CURVE SMOOTH",
"360 879 OFFCURVE",
"383 807 OFFCURVE",
"446 807 CURVE SMOOTH",
"498 807 OFFCURVE",
"549 844 OFFCURVE",
"574 885 CURVE",
"554 915 LINE",
"531 890 OFFCURVE",
"501 867 OFFCURVE",
"460 867 CURVE SMOOTH",
"411 867 OFFCURVE",
"387 938 OFFCURVE",
"325 938 CURVE SMOOTH",
"272 938 OFFCURVE",
"220 902 OFFCURVE",
"195 859 CURVE"
);
},
{
closed = 1;
nodes = (
"42 142 OFFCURVE",
"176 -18 OFFCURVE",
"379 -14 CURVE SMOOTH",
"562 -10 OFFCURVE",
"711 132 OFFCURVE",
"716 386 CURVE SMOOTH",
"720 609 OFFCURVE",
"592 769 OFFCURVE",
"393 765 CURVE SMOOTH",
"207 761 OFFCURVE",
"51 624 OFFCURVE",
"45 369 CURVE SMOOTH"
);
},
{
closed = 1;
nodes = (
"224 27 OFFCURVE",
"125 176 OFFCURVE",
"125 369 CURVE SMOOTH",
"125 595 OFFCURVE",
"234 724 OFFCURVE",
"385 724 CURVE SMOOTH",
"547 724 OFFCURVE",
"638 573 OFFCURVE",
"638 386 CURVE SMOOTH",
"638 165 OFFCURVE",
"536 27 OFFCURVE",
"386 27 CURVE SMOOTH"
);
}
);
width = 759;
}
);
unicode = 00D5;
},
{
glyphname = OE;
lastChange = "2014-09-10 13:48:40 +0100";
layers = (
{
layerId = "E777F328-EA17-4AE7-9EBA-8002E537BA4F";
name = Light;
paths = (
{
closed = 1;
nodes = (
"42 143 OFFCURVE",
"176 -16 OFFCURVE",
"378 -14 CURVE SMOOTH",
"414 -13 OFFCURVE",
"446 -8 OFFCURVE",
"476 0 CURVE",
"962 0 LINE",
"984 154 LINE",
"948 163 LINE",
"903 49 LINE",
"595 41 LINE",
"595 383 LINE",
"792 380 LINE",
"806 298 LINE",
"844 298 LINE",
"844 505 LINE",
"806 505 LINE",
"792 427 LINE",
"595 423 LINE",
"595 719 LINE",
"884 713 LINE",
"907 619 LINE",
"948 619 LINE",
"934 758 LINE",
"472 758 LINE",
"447 763 OFFCURVE",
"422 765 OFFCURVE",
"393 765 CURVE SMOOTH",
"204 761 OFFCURVE",
"51 619 OFFCURVE",
"45 371 CURVE SMOOTH"
);
},
{
closed = 1;
nodes = (
"224 26 OFFCURVE",
"125 178 OFFCURVE",
"125 371 CURVE SMOOTH",
"125 591 OFFCURVE",
"231 724 OFFCURVE",
"385 724 CURVE SMOOTH",
"442 724 OFFCURVE",
"488 701 OFFCURVE",
"523 664 CURVE",
"523 82 LINE",
"488 45 OFFCURVE",
"443 26 OFFCURVE",
"386 26 CURVE SMOOTH"
);
}
);
width = 1015;
}
);
unicode = 0152;
},
{
glyphname = P;
lastChange = "2014-09-10 13:48:40 +0100";
layers = (
{
layerId = "E777F328-EA17-4AE7-9EBA-8002E537BA4F";
name = Light;
paths = (
{
closed = 1;
nodes = (
"42 0 LINE",
"347 0 LINE",
"347 33 LINE",
"212 45 LINE",
"212 289 LINE",
"233 291 OFFCURVE",
"267 290 OFFCURVE",
"321 290 CURVE SMOOTH",
"464 289 OFFCURVE",
"604 378 OFFCURVE",
"604 537 CURVE SMOOTH",
"604 712 OFFCURVE",
"499 765 OFFCURVE",
"349 765 CURVE SMOOTH",
"284 765 OFFCURVE",
"214 758 OFFCURVE",
"175 758 CURVE SMOOTH",
"53 758 LINE",
"53 717 LINE",
"140 710 LINE",
"140 45 LINE",
"42 33 LINE"
);
},
{
closed = 1;
nodes = (
"212 713 LINE",
"241 721 OFFCURVE",
"288 721 OFFCURVE",
"319 723 CURVE SMOOTH",
"462 727 OFFCURVE",
"531 664 OFFCURVE",
"531 536 CURVE SMOOTH",
"531 383 OFFCURVE",
"437 331 OFFCURVE",
"319 329 CURVE SMOOTH",
"289 329 OFFCURVE",
"249 329 OFFCURVE",
"212 334 CURVE"
);
}
);
width = 633;
}
);
unicode = 0050;
},
{
glyphname = Thorn;
lastChange = "2014-09-10 13:48:40 +0100";
layers = (
{
layerId = "E777F328-EA17-4AE7-9EBA-8002E537BA4F";
name = Light;
paths = (
{
closed = 1;
nodes = (
"42 0 LINE",
"347 0 LINE",
"347 33 LINE",
"212 45 LINE",
"212 162 LINE",
"233 162 OFFCURVE",
"267 159 OFFCURVE",
"321 159 CURVE SMOOTH",
"464 157 OFFCURVE",
"604 239 OFFCURVE",
"604 398 CURVE SMOOTH",
"604 550 OFFCURVE",
"495 612 OFFCURVE",
"345 612 CURVE SMOOTH",
"298 612 OFFCURVE",
"250 603 OFFCURVE",
"212 599 CURVE",
"212 714 LINE",
"295 721 LINE",
"295 758 LINE",
"60 758 LINE",
"60 721 LINE",
"140 714 LINE",
"140 45 LINE",
"42 33 LINE"
);
},
{
closed = 1;
nodes = (
"212 555 LINE",
"241 563 OFFCURVE",
"284 568 OFFCURVE",
"315 570 CURVE SMOOTH",
"458 575 OFFCURVE",
"531 511 OFFCURVE",
"531 397 CURVE SMOOTH",
"531 251 OFFCURVE",
"435 199 OFFCURVE",
"319 197 CURVE SMOOTH",
"289 197 OFFCURVE",
"249 198 OFFCURVE",
"212 204 CURVE"
);
}
);
width = 633;
}
);
unicode = 00DE;
},
{
glyphname = Q;
lastChange = "2014-09-10 13:48:40 +0100";
layers = (
{
background = {
paths = (
{
closed = 1;
nodes = (
"40 142 OFFCURVE",
"175 -18 OFFCURVE",
"377 -14 CURVE",
"395 -13 LINE",
"424 -130 OFFCURVE",
"504 -173 OFFCURVE",
"596 -173 CURVE SMOOTH",
"651 -173 OFFCURVE",
"697 -157 OFFCURVE",
"708 -139 CURVE",
"701 -91 LINE",
"684 -104 OFFCURVE",
"653 -111 OFFCURVE",
"620 -111 CURVE SMOOTH",
"545 -111 OFFCURVE",
"462 -82 OFFCURVE",
"438 -7 CURVE",
"591 24 OFFCURVE",
"710 161 OFFCURVE",
"714 386 CURVE SMOOTH",
"718 609 OFFCURVE",
"591 769 OFFCURVE",
"391 765 CURVE SMOOTH",
"205 761 OFFCURVE",
"50 624 OFFCURVE",
"44 369 CURVE SMOOTH"
);
},
{
closed = 1;
nodes = (
"223 27 OFFCURVE",
"123 176 OFFCURVE",
"123 369 CURVE SMOOTH",
"123 595 OFFCURVE",
"233 724 OFFCURVE",
"384 724 CURVE SMOOTH",
"545 724 OFFCURVE",
"636 573 OFFCURVE",
"636 386 CURVE SMOOTH",
"636 165 OFFCURVE",
"534 27 OFFCURVE",
"385 27 CURVE SMOOTH"
);
}
);
};
layerId = "E777F328-EA17-4AE7-9EBA-8002E537BA4F";
name = Light;
paths = (
{
closed = 1;
nodes = (
"44 137 OFFCURVE",
"178 -18 OFFCURVE",
"377 -14 CURVE",
"395 -13 LINE",
"424 -130 OFFCURVE",
"504 -173 OFFCURVE",
"596 -173 CURVE SMOOTH",
"651 -173 OFFCURVE",
"697 -157 OFFCURVE",
"708 -139 CURVE",
"701 -91 LINE",
"684 -104 OFFCURVE",
"653 -111 OFFCURVE",
"620 -111 CURVE SMOOTH",
"545 -111 OFFCURVE",
"462 -82 OFFCURVE",
"438 -7 CURVE",
"594 25 OFFCURVE",
"714 166 OFFCURVE",
"714 396 CURVE SMOOTH",
"714 611 OFFCURVE",
"591 765 OFFCURVE",
"398 765 CURVE SMOOTH",
"207 765 OFFCURVE",
"44 624 OFFCURVE",
"44 359 CURVE SMOOTH"
);
},
{
closed = 1;
nodes = (
"223 27 OFFCURVE",
"123 176 OFFCURVE",
"123 369 CURVE SMOOTH",
"123 595 OFFCURVE",
"233 724 OFFCURVE",
"384 724 CURVE SMOOTH",
"545 724 OFFCURVE",
"636 573 OFFCURVE",
"636 386 CURVE SMOOTH",
"636 165 OFFCURVE",
"534 27 OFFCURVE",
"385 27 CURVE SMOOTH"
);
}
);
width = 759;
}
);
unicode = 0051;
},
{
glyphname = R;
lastChange = "2014-09-10 13:48:40 +0100";
layers = (
{
layerId = "E777F328-EA17-4AE7-9EBA-8002E537BA4F";
name = Light;
paths = (
{
closed = 1;
nodes = (
"42 0 LINE",
"318 0 LINE",
"318 33 LINE",
"212 44 LINE",
"212 335 LINE",
"250 335 OFFCURVE",
"287 335 OFFCURVE",
"322 336 CURVE",
"320 335 LINE",
"430 343 OFFCURVE",
"528 0 OFFCURVE",
"572 0 CURVE SMOOTH",
"697 0 LINE",
"697 33 LINE",
"638 44 LINE SMOOTH",
"592 52 OFFCURVE",
"503 318 OFFCURVE",
"410 347 CURVE",
"409 347 OFFCURVE",
"408 348 OFFCURVE",
"408 348 CURVE",
"512 377 OFFCURVE",
"580 459 OFFCURVE",
"580 561 CURVE SMOOTH",
"580 718 OFFCURVE",
"475 765 OFFCURVE",
"327 765 CURVE SMOOTH",
"262 765 OFFCURVE",
"210 759 OFFCURVE",
"177 758 CURVE SMOOTH",
"53 758 LINE",
"53 717 LINE",
"140 710 LINE",
"140 45 LINE",
"42 33 LINE"
);
},
{
closed = 1;
nodes = (
"212 716 LINE",
"238 724 OFFCURVE",
"282 723 OFFCURVE",
"313 724 CURVE SMOOTH",
"453 729 OFFCURVE",
"504 664 OFFCURVE",
"504 552 CURVE SMOOTH",
"504 444 OFFCURVE",
"443 377 OFFCURVE",
"325 375 CURVE SMOOTH",
"300 375 OFFCURVE",
"235 377 OFFCURVE",
"212 379 CURVE"
);
}
);
width = 693;
}
);
unicode = 0052;
},
{
glyphname = Racute;
lastChange = "2014-09-10 13:48:40 +0100";
layers = (
{
layerId = "E777F328-EA17-4AE7-9EBA-8002E537BA4F";
name = Light;
paths = (
{
closed = 1;
nodes = (
"333 785 LINE",
"392 809 OFFCURVE",
"462 848 OFFCURVE",
"508 884 CURVE",
"457 938 LINE",
"312 806 LINE"
);
},
{
closed = 1;
nodes = (
"42 0 LINE",
"318 0 LINE",
"318 33 LINE",
"212 44 LINE",
"212 335 LINE",
"250 335 OFFCURVE",
"287 335 OFFCURVE",
"322 336 CURVE",
"320 335 LINE",
"430 343 OFFCURVE",
"528 0 OFFCURVE",
"572 0 CURVE SMOOTH",
"697 0 LINE",
"697 33 LINE",
"638 44 LINE SMOOTH",
"592 52 OFFCURVE",
"503 318 OFFCURVE",
"410 347 CURVE",
"409 347 OFFCURVE",
"408 348 OFFCURVE",
"408 348 CURVE",
"512 377 OFFCURVE",
"580 459 OFFCURVE",
"580 561 CURVE SMOOTH",
"580 718 OFFCURVE",
"475 765 OFFCURVE",
"327 765 CURVE SMOOTH",
"262 765 OFFCURVE",
"210 759 OFFCURVE",
"177 758 CURVE SMOOTH",
"53 758 LINE",
"53 717 LINE",
"140 710 LINE",
"140 45 LINE",
"42 33 LINE"
);
},
{
closed = 1;
nodes = (
"212 716 LINE",
"238 724 OFFCURVE",
"282 723 OFFCURVE",
"313 724 CURVE SMOOTH",
"453 729 OFFCURVE",
"504 664 OFFCURVE",
"504 552 CURVE SMOOTH",
"504 444 OFFCURVE",
"443 377 OFFCURVE",
"325 375 CURVE SMOOTH",
"300 375 OFFCURVE",
"235 377 OFFCURVE",
"212 379 CURVE"
);
}
);
width = 693;
}
);
unicode = 0154;
},
{
glyphname = Rcaron;
lastChange = "2014-09-10 13:48:40 +0100";
layers = (
{
layerId = "E777F328-EA17-4AE7-9EBA-8002E537BA4F";
name = Light;
paths = (
{
closed = 1;
nodes = (
"302 796 LINE",
"371 796 LINE",
"497 918 LINE",
"468 938 LINE",
"336 848 LINE",
"207 938 LINE",
"174 917 LINE"
);
},
{
closed = 1;
nodes = (
"42 0 LINE",
"318 0 LINE",
"318 33 LINE",
"212 44 LINE",
"212 335 LINE",
"250 335 OFFCURVE",
"287 335 OFFCURVE",
"322 336 CURVE",
"320 335 LINE",
"430 343 OFFCURVE",
"528 0 OFFCURVE",
"572 0 CURVE SMOOTH",
"697 0 LINE",
"697 33 LINE",
"638 44 LINE SMOOTH",
"592 52 OFFCURVE",
"503 318 OFFCURVE",
"410 347 CURVE",
"409 347 OFFCURVE",
"408 348 OFFCURVE",
"408 348 CURVE",
"512 377 OFFCURVE",
"580 459 OFFCURVE",
"580 561 CURVE SMOOTH",
"580 718 OFFCURVE",
"475 765 OFFCURVE",
"327 765 CURVE SMOOTH",
"262 765 OFFCURVE",
"210 759 OFFCURVE",
"177 758 CURVE SMOOTH",
"53 758 LINE",
"53 717 LINE",
"140 710 LINE",
"140 45 LINE",
"42 33 LINE"
);
},
{
closed = 1;
nodes = (
"212 716 LINE",
"238 724 OFFCURVE",
"282 723 OFFCURVE",
"313 724 CURVE SMOOTH",
"453 729 OFFCURVE",
"504 664 OFFCURVE",
"504 552 CURVE SMOOTH",
"504 444 OFFCURVE",
"443 377 OFFCURVE",
"325 375 CURVE SMOOTH",
"300 375 OFFCURVE",
"235 377 OFFCURVE",
"212 379 CURVE"
);
}
);
width = 693;
}
);
unicode = 0158;
},
{
glyphname = Rcommaaccent;
lastChange = "2014-09-10 13:48:40 +0100";
layers = (
{
layerId = "E777F328-EA17-4AE7-9EBA-8002E537BA4F";
name = Light;
paths = (
{
closed = 1;
nodes = (
"42 0 LINE",
"318 0 LINE",
"318 33 LINE",
"212 44 LINE",
"212 335 LINE",
"250 335 OFFCURVE",
"287 335 OFFCURVE",
"322 336 CURVE",
"320 335 LINE",
"430 343 OFFCURVE",
"528 0 OFFCURVE",
"572 0 CURVE SMOOTH",
"697 0 LINE",
"697 33 LINE",
"638 44 LINE SMOOTH",
"592 52 OFFCURVE",
"503 318 OFFCURVE",
"410 347 CURVE",
"409 347 OFFCURVE",
"408 348 OFFCURVE",
"408 348 CURVE",
"512 377 OFFCURVE",
"580 459 OFFCURVE",
"580 561 CURVE SMOOTH",
"580 718 OFFCURVE",
"475 765 OFFCURVE",
"327 765 CURVE SMOOTH",
"262 765 OFFCURVE",
"210 759 OFFCURVE",
"177 758 CURVE SMOOTH",
"53 758 LINE",
"53 717 LINE",
"140 710 LINE",
"140 45 LINE",
"42 33 LINE"
);
},
{
closed = 1;
nodes = (
"212 716 LINE",
"238 724 OFFCURVE",
"282 723 OFFCURVE",
"313 724 CURVE SMOOTH",
"453 729 OFFCURVE",
"504 664 OFFCURVE",
"504 552 CURVE SMOOTH",
"504 444 OFFCURVE",
"443 377 OFFCURVE",
"325 375 CURVE SMOOTH",
"300 375 OFFCURVE",
"235 377 OFFCURVE",
"212 379 CURVE"
);
},
{
closed = 1;
nodes = (
"329 -73 LINE",
"329 -94 LINE",
"352 -94 OFFCURVE",
"387 -120 OFFCURVE",
"387 -163 CURVE SMOOTH",
"387 -212 OFFCURVE",
"367 -265 OFFCURVE",
"328 -281 CURVE",
"328 -294 LINE",
"348 -313 LINE",
"396 -295 OFFCURVE",
"463 -229 OFFCURVE",
"462 -147 CURVE SMOOTH",
"460 -101 OFFCURVE",
"427 -48 OFFCURVE",
"364 -36 CURVE"
);
}
);
width = 693;
}
);
unicode = 0156;
},
{
glyphname = S;
lastChange = "2014-09-10 13:48:40 +0100";
layers = (
{
layerId = "E777F328-EA17-4AE7-9EBA-8002E537BA4F";
name = Light;
paths = (
{
closed = 1;
nodes = (
"75 31 LINE",
"103 14 OFFCURVE",
"201 -11 OFFCURVE",
"298 -11 CURVE SMOOTH",
"435 -11 OFFCURVE",
"550 49 OFFCURVE",
"550 192 CURVE SMOOTH",
"550 307 OFFCURVE",
"434 364 OFFCURVE",
"327 415 CURVE SMOOTH",
"234 459 OFFCURVE",
"147 503 OFFCURVE",
"147 586 CURVE SMOOTH",
"147 689 OFFCURVE",
"240 727 OFFCURVE",
"311 727 CURVE SMOOTH",
"363 727 OFFCURVE",
"414 718 OFFCURVE",
"443 693 CURVE",
"472 596 LINE",
"505 596 LINE",
"505 726 LINE",
"476 743 OFFCURVE",
"417 765 OFFCURVE",
"317 765 CURVE SMOOTH",
"216 765 OFFCURVE",
"80 712 OFFCURVE",
"80 575 CURVE SMOOTH",
"80 464 OFFCURVE",
"187 408 OFFCURVE",
"291 358 CURVE SMOOTH",
"388 311 OFFCURVE",
"482 263 OFFCURVE",
"482 173 CURVE SMOOTH",
"482 66 OFFCURVE",
"391 28 OFFCURVE",
"307 28 CURVE SMOOTH",
"250 28 OFFCURVE",
"174 38 OFFCURVE",
"134 77 CURVE",
"111 177 LINE",
"75 177 LINE"
);
}
);
width = 600;
}
);
unicode = 0053;
},
{
glyphname = Scaron;
lastChange = "2014-09-10 13:48:40 +0100";
layers = (
{
layerId = "E777F328-EA17-4AE7-9EBA-8002E537BA4F";
name = Light;
paths = (
{
closed = 1;
nodes = (
"283 796 LINE",
"352 796 LINE",
"478 918 LINE",
"449 938 LINE",
"317 848 LINE",
"188 938 LINE",
"155 917 LINE"
);
},
{
closed = 1;
nodes = (
"73 31 LINE",
"101 14 OFFCURVE",
"199 -11 OFFCURVE",
"296 -11 CURVE SMOOTH",
"433 -11 OFFCURVE",
"548 49 OFFCURVE",
"548 192 CURVE SMOOTH",
"548 307 OFFCURVE",
"432 364 OFFCURVE",
"325 415 CURVE SMOOTH",
"232 459 OFFCURVE",
"145 503 OFFCURVE",
"145 586 CURVE SMOOTH",
"145 689 OFFCURVE",
"238 727 OFFCURVE",
"309 727 CURVE SMOOTH",
"361 727 OFFCURVE",
"412 718 OFFCURVE",
"441 693 CURVE",
"470 596 LINE",
"503 596 LINE",
"503 726 LINE",
"474 743 OFFCURVE",
"415 765 OFFCURVE",
"315 765 CURVE SMOOTH",
"214 765 OFFCURVE",
"78 712 OFFCURVE",
"78 575 CURVE SMOOTH",
"78 464 OFFCURVE",
"185 408 OFFCURVE",
"289 358 CURVE SMOOTH",
"386 311 OFFCURVE",
"480 263 OFFCURVE",
"480 173 CURVE SMOOTH",
"480 66 OFFCURVE",
"389 28 OFFCURVE",
"305 28 CURVE SMOOTH",
"248 28 OFFCURVE",
"172 38 OFFCURVE",
"132 77 CURVE",
"109 177 LINE",
"73 177 LINE"
);
}
);
width = 600;
}
);
unicode = 0160;
},
{
glyphname = T;
lastChange = "2014-09-10 13:48:40 +0100";
layers = (
{
layerId = "E777F328-EA17-4AE7-9EBA-8002E537BA4F";
name = Light;
paths = (
{
closed = 1;
nodes = (
"154 0 LINE",
"489 0 LINE",
"489 33 LINE",
"354 45 LINE",
"354 717 LINE",
"556 709 LINE",
"576 604 LINE",
"607 608 LINE",
"608 758 LINE",
"27 758 LINE",
"15 610 LINE",
"49 611 LINE",
"79 709 LINE",
"282 717 LINE",
"282 45 LINE",
"154 33 LINE"
);
}
);
width = 620;
}
);
leftKerningGroup = T;
rightKerningGroup = T;
unicode = 0054;
},
{
glyphname = U;
lastChange = "2014-09-10 13:48:40 +0100";
layers = (
{
layerId = "E777F328-EA17-4AE7-9EBA-8002E537BA4F";
name = Light;
paths = (
{
closed = 1;
nodes = (
"91 316 LINE SMOOTH",
"91 94 OFFCURVE",
"175 -14 OFFCURVE",
"382 -14 CURVE SMOOTH",
"548 -14 OFFCURVE",
"663 81 OFFCURVE",
"663 324 CURVE SMOOTH",
"663 713 LINE",
"739 721 LINE",
"739 758 LINE",
"522 758 LINE",
"522 721 LINE",
"606 713 LINE",
"606 324 LINE SMOOTH",
"606 134 OFFCURVE",
"541 25 OFFCURVE",
"396 25 CURVE SMOOTH",
"261 25 OFFCURVE",
"164 89 OFFCURVE",
"164 313 CURVE SMOOTH",
"164 713 LINE",
"249 721 LINE",
"249 758 LINE",
"16 758 LINE",
"16 721 LINE",
"91 714 LINE"
);
}
);
width = 770;
}
);
unicode = 0055;
},
{
glyphname = Uacute;
lastChange = "2014-09-10 13:48:40 +0100";
layers = (
{
layerId = "E777F328-EA17-4AE7-9EBA-8002E537BA4F";
name = Light;
paths = (
{
closed = 1;
nodes = (
"386 785 LINE",
"445 809 OFFCURVE",
"516 848 OFFCURVE",
"562 884 CURVE",
"510 938 LINE",
"366 806 LINE"
);
},
{
closed = 1;
nodes = (
"91 316 LINE SMOOTH",
"91 94 OFFCURVE",
"175 -14 OFFCURVE",
"382 -14 CURVE SMOOTH",
"548 -14 OFFCURVE",
"663 81 OFFCURVE",
"663 324 CURVE SMOOTH",
"663 713 LINE",
"739 721 LINE",
"739 758 LINE",
"522 758 LINE",
"522 721 LINE",
"606 713 LINE",
"606 324 LINE SMOOTH",
"606 134 OFFCURVE",
"541 25 OFFCURVE",
"396 25 CURVE SMOOTH",
"261 25 OFFCURVE",
"164 89 OFFCURVE",
"164 313 CURVE SMOOTH",
"164 713 LINE",
"249 721 LINE",
"249 758 LINE",
"16 758 LINE",
"16 721 LINE",
"91 714 LINE"
);
}
);
width = 770;
}
);
unicode = 00DA;
},
{
glyphname = Ucircumflex;
lastChange = "2014-09-10 13:48:40 +0100";
layers = (
{
layerId = "E777F328-EA17-4AE7-9EBA-8002E537BA4F";
name = Light;
paths = (
{
closed = 1;
nodes = (
"252 790 LINE",
"389 887 LINE",
"522 790 LINE",
"556 809 LINE",
"424 938 LINE",
"353 938 LINE",
"222 808 LINE"
);
},
{
closed = 1;
nodes = (
"91 316 LINE SMOOTH",
"91 94 OFFCURVE",
"175 -14 OFFCURVE",
"382 -14 CURVE SMOOTH",
"548 -14 OFFCURVE",
"663 81 OFFCURVE",
"663 324 CURVE SMOOTH",
"663 713 LINE",
"739 721 LINE",
"739 758 LINE",
"522 758 LINE",
"522 721 LINE",
"606 713 LINE",
"606 324 LINE SMOOTH",
"606 134 OFFCURVE",
"541 25 OFFCURVE",
"396 25 CURVE SMOOTH",
"261 25 OFFCURVE",
"164 89 OFFCURVE",
"164 313 CURVE SMOOTH",
"164 713 LINE",
"249 721 LINE",
"249 758 LINE",
"16 758 LINE",
"16 721 LINE",
"91 714 LINE"
);
}
);
width = 770;
}
);
unicode = 00DB;
},
{
glyphname = Udieresis;
lastChange = "2014-09-10 13:48:40 +0100";
layers = (
{
layerId = "E777F328-EA17-4AE7-9EBA-8002E537BA4F";
name = Light;
paths = (
{
closed = 1;
nodes = (
"524 825 OFFCURVE",
"552 847 OFFCURVE",
"552 879 CURVE SMOOTH",
"552 905 OFFCURVE",
"537 926 OFFCURVE",
"504 926 CURVE SMOOTH",
"476 926 OFFCURVE",
"446 902 OFFCURVE",
"446 871 CURVE SMOOTH",
"446 842 OFFCURVE",
"470 825 OFFCURVE",
"495 825 CURVE SMOOTH"
);
},
{
closed = 1;
nodes = (
"301 825 OFFCURVE",
"329 847 OFFCURVE",
"329 880 CURVE SMOOTH",
"329 905 OFFCURVE",
"314 926 OFFCURVE",
"281 926 CURVE SMOOTH",
"253 926 OFFCURVE",
"223 903 OFFCURVE",
"223 872 CURVE SMOOTH",
"223 843 OFFCURVE",
"247 825 OFFCURVE",
"271 825 CURVE SMOOTH"
);
},
{
closed = 1;
nodes = (
"91 316 LINE SMOOTH",
"91 94 OFFCURVE",
"175 -14 OFFCURVE",
"382 -14 CURVE SMOOTH",
"548 -14 OFFCURVE",
"663 81 OFFCURVE",
"663 324 CURVE SMOOTH",
"663 713 LINE",
"739 721 LINE",
"739 758 LINE",
"522 758 LINE",
"522 721 LINE",
"606 713 LINE",
"606 324 LINE SMOOTH",
"606 134 OFFCURVE",
"541 25 OFFCURVE",
"396 25 CURVE SMOOTH",
"261 25 OFFCURVE",
"164 89 OFFCURVE",
"164 313 CURVE SMOOTH",
"164 713 LINE",
"249 721 LINE",
"249 758 LINE",
"16 758 LINE",
"16 721 LINE",
"91 714 LINE"
);
}
);
width = 770;
}
);
unicode = 00DC;
},
{
glyphname = Ugrave;
lastChange = "2014-09-10 13:48:40 +0100";
layers = (
{
layerId = "E777F328-EA17-4AE7-9EBA-8002E537BA4F";
name = Light;
paths = (
{
closed = 1;
nodes = (
"411 806 LINE",
"266 938 LINE",
"214 884 LINE",
"260 848 OFFCURVE",
"331 809 OFFCURVE",
"390 785 CURVE"
);
},
{
closed = 1;
nodes = (
"91 316 LINE SMOOTH",
"91 94 OFFCURVE",
"175 -14 OFFCURVE",
"382 -14 CURVE SMOOTH",
"548 -14 OFFCURVE",
"663 81 OFFCURVE",
"663 324 CURVE SMOOTH",
"663 713 LINE",
"739 721 LINE",
"739 758 LINE",
"522 758 LINE",
"522 721 LINE",
"606 713 LINE",
"606 324 LINE SMOOTH",
"606 134 OFFCURVE",
"541 25 OFFCURVE",
"396 25 CURVE SMOOTH",
"261 25 OFFCURVE",
"164 89 OFFCURVE",
"164 313 CURVE SMOOTH",
"164 713 LINE",
"249 721 LINE",
"249 758 LINE",
"16 758 LINE",
"16 721 LINE",
"91 714 LINE"
);
}
);
width = 770;
}
);
unicode = 00D9;
},
{
glyphname = V;
lastChange = "2014-09-10 13:48:40 +0100";
layers = (
{
layerId = "E777F328-EA17-4AE7-9EBA-8002E537BA4F";
name = Light;
paths = (
{
closed = 1;
nodes = (
"334 -10 LINE",
"388 -10 LINE",
"627 714 LINE",
"697 721 LINE",
"697 758 LINE",
"483 758 LINE",
"483 721 LINE",
"564 714 LINE",
"397 166 LINE",
"372 73 LINE",
"343 165 LINE",
"153 714 LINE",
"250 721 LINE",
"250 758 LINE",
"2 758 LINE",
"2 721 LINE",
"70 714 LINE"
);
}
);
width = 696;
}
);
unicode = 0056;
},
{
glyphname = W;
lastChange = "2014-09-10 13:48:40 +0100";
layers = (
{
layerId = "E777F328-EA17-4AE7-9EBA-8002E537BA4F";
name = Light;
paths = (
{
closed = 1;
nodes = (
"313 -10 LINE",
"375 -10 LINE",
"521 527 LINE",
"674 -10 LINE",
"732 -10 LINE",
"942 714 LINE",
"1020 721 LINE",
"1020 758 LINE",
"792 758 LINE",
"792 721 LINE",
"881 714 LINE",
"738 173 LINE",
"715 73 LINE",
"692 161 LINE",
"544 714 LINE",
"637 721 LINE",
"637 758 LINE",
"387 758 LINE",
"387 721 LINE",
"468 714 LINE",
"494 625 LINE",
"377 163 LINE",
"350 76 LINE",
"321 167 LINE",
"149 714 LINE",
"246 721 LINE",
"246 758 LINE",
"2 758 LINE",
"2 721 LINE",
"69 714 LINE"
);
}
);
width = 1026;
}
);
unicode = 0057;
},
{
glyphname = X;
lastChange = "2014-09-10 13:48:40 +0100";
layers = (
{
layerId = "E777F328-EA17-4AE7-9EBA-8002E537BA4F";
name = Light;
paths = (
{
closed = 1;
nodes = (
"7 0 LINE",
"261 0 LINE",
"261 33 LINE",
"163 44 LINE",
"335 348 LINE",
"518 44 LINE",
"419 33 LINE",
"419 0 LINE",
"688 0 LINE",
"688 33 LINE",
"600 44 LINE",
"386 396 LINE",
"597 714 LINE",
"670 721 LINE",
"670 758 LINE",
"446 758 LINE",
"446 721 LINE",
"530 714 LINE",
"359 427 LINE",
"191 714 LINE",
"285 721 LINE",
"285 758 LINE",
"27 758 LINE",
"27 721 LINE",
"104 714 LINE",
"311 386 LINE",
"94 44 LINE",
"7 33 LINE"
);
}
);
width = 693;
}
);
unicode = 0058;
},
{
glyphname = Y;
lastChange = "2014-09-10 13:48:40 +0100";
layers = (
{
layerId = "E777F328-EA17-4AE7-9EBA-8002E537BA4F";
name = Light;
paths = (
{
closed = 1;
nodes = (
"206 0 LINE",
"480 0 LINE",
"480 33 LINE",
"377 45 LINE",
"377 311 LINE",
"587 710 LINE",
"653 721 LINE",
"653 758 LINE",
"442 758 LINE",
"442 721 LINE",
"526 713 LINE",
"370 405 LINE",
"346 353 LINE",
"320 405 LINE",
"148 714 LINE",
"230 721 LINE",
"230 758 LINE",
"6 758 LINE",
"6 721 LINE",
"65 714 LINE",
"305 313 LINE",
"305 45 LINE",
"206 33 LINE"
);
}
);
width = 660;
}
);
unicode = 0059;
},
{
glyphname = Yacute;
lastChange = "2014-09-10 13:48:40 +0100";
layers = (
{
layerId = "E777F328-EA17-4AE7-9EBA-8002E537BA4F";
name = Light;
paths = (
{
closed = 1;
nodes = (
"341 785 LINE",
"400 809 OFFCURVE",
"470 848 OFFCURVE",
"517 884 CURVE",
"465 938 LINE",
"320 806 LINE"
);
},
{
closed = 1;
nodes = (
"206 0 LINE",
"480 0 LINE",
"480 33 LINE",
"377 45 LINE",
"377 311 LINE",
"587 710 LINE",
"653 721 LINE",
"653 758 LINE",
"442 758 LINE",
"442 721 LINE",
"526 713 LINE",
"370 405 LINE",
"346 353 LINE",
"320 405 LINE",
"148 714 LINE",
"230 721 LINE",
"230 758 LINE",
"6 758 LINE",
"6 721 LINE",
"65 714 LINE",
"305 313 LINE",
"305 45 LINE",
"206 33 LINE"
);
}
);
width = 660;
}
);
unicode = 00DD;
},
{
glyphname = Ydieresis;
lastChange = "2014-09-10 13:48:40 +0100";
layers = (
{
layerId = "E777F328-EA17-4AE7-9EBA-8002E537BA4F";
name = Light;
paths = (
{
closed = 1;
nodes = (
"479 825 OFFCURVE",
"507 847 OFFCURVE",
"507 879 CURVE SMOOTH",
"507 905 OFFCURVE",
"492 926 OFFCURVE",
"458 926 CURVE SMOOTH",
"431 926 OFFCURVE",
"401 902 OFFCURVE",
"401 871 CURVE SMOOTH",
"401 842 OFFCURVE",
"425 825 OFFCURVE",
"450 825 CURVE SMOOTH"
);
},
{
closed = 1;
nodes = (
"255 825 OFFCURVE",
"284 847 OFFCURVE",
"284 880 CURVE SMOOTH",
"284 905 OFFCURVE",
"269 926 OFFCURVE",
"235 926 CURVE SMOOTH",
"208 926 OFFCURVE",
"178 903 OFFCURVE",
"178 872 CURVE SMOOTH",
"178 843 OFFCURVE",
"202 825 OFFCURVE",
"227 825 CURVE SMOOTH"
);
},
{
closed = 1;
nodes = (
"206 0 LINE",
"480 0 LINE",
"480 33 LINE",
"377 45 LINE",
"377 311 LINE",
"587 710 LINE",
"653 721 LINE",
"653 758 LINE",
"442 758 LINE",
"442 721 LINE",
"526 713 LINE",
"370 405 LINE",
"346 353 LINE",
"320 405 LINE",
"148 714 LINE",
"230 721 LINE",
"230 758 LINE",
"6 758 LINE",
"6 721 LINE",
"65 714 LINE",
"305 313 LINE",
"305 45 LINE",
"206 33 LINE"
);
}
);
width = 660;
}
);
unicode = 0178;
},
{
glyphname = Z;
lastChange = "2014-09-10 13:48:40 +0100";
layers = (
{
layerId = "E777F328-EA17-4AE7-9EBA-8002E537BA4F";
name = Light;
paths = (
{
closed = 1;
nodes = (
"48 34 LINE",
"60 0 LINE",
"595 0 LINE",
"630 170 LINE",
"591 179 LINE",
"535 56 LINE",
"131 42 LINE",
"193 121 LINE",
"620 726 LINE",
"608 759 LINE",
"93 759 LINE",
"79 606 LINE",
"119 600 LINE",
"157 709 LINE",
"540 718 LINE",
"482 647 LINE"
);
}
);
width = 660;
}
);
unicode = 005A;
},
{
glyphname = Zacute;
lastChange = "2014-09-10 13:48:40 +0100";
layers = (
{
layerId = "E777F328-EA17-4AE7-9EBA-8002E537BA4F";
name = Light;
paths = (
{
closed = 1;
nodes = (
"355 785 LINE",
"414 809 OFFCURVE",
"484 848 OFFCURVE",
"531 884 CURVE",
"479 938 LINE",
"334 806 LINE"
);
},
{
closed = 1;
nodes = (
"48 34 LINE",
"60 0 LINE",
"595 0 LINE",
"630 170 LINE",
"591 179 LINE",
"535 56 LINE",
"131 42 LINE",
"193 121 LINE",
"620 726 LINE",
"608 759 LINE",
"93 759 LINE",
"79 606 LINE",
"119 600 LINE",
"157 709 LINE",
"540 718 LINE",
"482 647 LINE"
);
}
);
width = 660;
}
);
unicode = 0179;
},
{
glyphname = Zcaron;
lastChange = "2014-09-10 13:48:40 +0100";
layers = (
{
layerId = "E777F328-EA17-4AE7-9EBA-8002E537BA4F";
name = Light;
paths = (
{
closed = 1;
nodes = (
"323 796 LINE",
"391 796 LINE",
"518 918 LINE",
"489 938 LINE",
"357 848 LINE",
"227 938 LINE",
"195 917 LINE"
);
},
{
closed = 1;
nodes = (
"48 34 LINE",
"60 0 LINE",
"595 0 LINE",
"630 170 LINE",
"591 179 LINE",
"535 56 LINE",
"131 42 LINE",
"193 121 LINE",
"620 726 LINE",
"608 759 LINE",
"93 759 LINE",
"79 606 LINE",
"119 600 LINE",
"157 709 LINE",
"540 718 LINE",
"482 647 LINE"
);
}
);
width = 660;
}
);
unicode = 017D;
},
{
glyphname = Zdotaccent;
lastChange = "2014-09-10 13:48:40 +0100";
layers = (
{
layerId = "E777F328-EA17-4AE7-9EBA-8002E537BA4F";
name = Light;
paths = (
{
closed = 1;
nodes = (
"382 825 OFFCURVE",
"410 847 OFFCURVE",
"410 880 CURVE SMOOTH",
"410 905 OFFCURVE",
"396 926 OFFCURVE",
"362 926 CURVE SMOOTH",
"334 926 OFFCURVE",
"305 903 OFFCURVE",
"305 872 CURVE SMOOTH",
"305 843 OFFCURVE",
"328 825 OFFCURVE",
"353 825 CURVE SMOOTH"
);
},
{
closed = 1;
nodes = (
"48 34 LINE",
"60 0 LINE",
"595 0 LINE",
"630 170 LINE",
"591 179 LINE",
"535 56 LINE",
"131 42 LINE",
"193 121 LINE",
"620 726 LINE",
"608 759 LINE",
"93 759 LINE",
"79 606 LINE",
"119 600 LINE",
"157 709 LINE",
"540 718 LINE",
"482 647 LINE"
);
}
);
width = 660;
}
);
unicode = 017B;
},
{
glyphname = a;
lastChange = "2014-09-10 13:48:40 +0100";
layers = (
{
layerId = "E777F328-EA17-4AE7-9EBA-8002E537BA4F";
name = Light;
paths = (
{
closed = 1;
nodes = (
"50 47 OFFCURVE",
"134 -11 OFFCURVE",
"221 -11 CURVE SMOOTH",
"308 -11 OFFCURVE",
"361 18 OFFCURVE",
"397 59 CURVE",
"397 39 LINE SMOOTH",
"397 -5 OFFCURVE",
"420 -8 OFFCURVE",
"443 -8 CURVE SMOOTH",
"477 -8 OFFCURVE",
"508 -1 OFFCURVE",
"527 8 CURVE",
"527 35 LINE",
"463 35 LINE",
"464 377 LINE SMOOTH",
"464 521 OFFCURVE",
"377 556 OFFCURVE",
"273 556 CURVE SMOOTH",
"226 556 OFFCURVE",
"126 537 OFFCURVE",
"78 497 CURVE",
"92 462 LINE",
"128 485 OFFCURVE",
"200 506 OFFCURVE",
"249 506 CURVE SMOOTH",
"338 506 OFFCURVE",
"393 477 OFFCURVE",
"393 368 CURVE SMOOTH",
"393 325 LINE",
"271 325 OFFCURVE",
"68 288 OFFCURVE",
"57 152 CURVE SMOOTH"
);
},
{
closed = 1;
nodes = (
"128 257 OFFCURVE",
"288 285 OFFCURVE",
"393 285 CURVE",
"393 216 OFFCURVE",
"393 135 OFFCURVE",
"393 88 CURVE",
"375 73 OFFCURVE",
"327 37 OFFCURVE",
"257 37 CURVE SMOOTH",
"181 37 OFFCURVE",
"127 71 OFFCURVE",
"128 151 CURVE SMOOTH"
);
}
);
width = 559;
}
);
unicode = 0061;
},
{
glyphname = aacute;
lastChange = "2014-09-10 13:48:40 +0100";
layers = (
{
layerId = "E777F328-EA17-4AE7-9EBA-8002E537BA4F";
name = Light;
paths = (
{
closed = 1;
nodes = (
"243 656 LINE",
"302 696 OFFCURVE",
"396 764 OFFCURVE",
"427 811 CURVE",
"375 864 LINE",
"222 677 LINE"
);
},
{
closed = 1;
nodes = (
"50 47 OFFCURVE",
"134 -11 OFFCURVE",
"221 -11 CURVE SMOOTH",
"308 -11 OFFCURVE",
"361 18 OFFCURVE",
"397 59 CURVE",
"397 39 LINE SMOOTH",
"397 -5 OFFCURVE",
"420 -8 OFFCURVE",
"443 -8 CURVE SMOOTH",
"477 -8 OFFCURVE",
"508 -1 OFFCURVE",
"527 8 CURVE",
"527 35 LINE",
"463 35 LINE",
"464 377 LINE SMOOTH",
"464 521 OFFCURVE",
"377 556 OFFCURVE",
"273 556 CURVE SMOOTH",
"226 556 OFFCURVE",
"126 537 OFFCURVE",
"78 497 CURVE",
"92 462 LINE",
"128 485 OFFCURVE",
"200 506 OFFCURVE",
"249 506 CURVE SMOOTH",
"338 506 OFFCURVE",
"393 477 OFFCURVE",
"393 368 CURVE SMOOTH",
"393 325 LINE",
"271 325 OFFCURVE",
"68 288 OFFCURVE",
"57 152 CURVE SMOOTH"
);
},
{
closed = 1;
nodes = (
"128 257 OFFCURVE",
"288 285 OFFCURVE",
"393 285 CURVE",
"393 216 OFFCURVE",
"393 135 OFFCURVE",
"393 88 CURVE",
"375 73 OFFCURVE",
"327 37 OFFCURVE",
"257 37 CURVE SMOOTH",
"181 37 OFFCURVE",
"127 71 OFFCURVE",
"128 151 CURVE SMOOTH"
);
}
);
width = 559;
}
);
unicode = 00E1;
},
{
glyphname = acircumflex;
lastChange = "2014-09-10 13:48:40 +0100";
layers = (
{
layerId = "E777F328-EA17-4AE7-9EBA-8002E537BA4F";
name = Light;
paths = (
{
closed = 1;
nodes = (
"138 653 LINE",
"280 802 LINE",
"416 653 LINE",
"448 671 LINE",
"315 865 LINE",
"246 865 LINE",
"108 670 LINE"
);
},
{
closed = 1;
nodes = (
"50 47 OFFCURVE",
"134 -11 OFFCURVE",
"221 -11 CURVE SMOOTH",
"308 -11 OFFCURVE",
"361 18 OFFCURVE",
"397 59 CURVE",
"397 39 LINE SMOOTH",
"397 -5 OFFCURVE",
"420 -8 OFFCURVE",
"443 -8 CURVE SMOOTH",
"477 -8 OFFCURVE",
"508 -1 OFFCURVE",
"527 8 CURVE",
"527 35 LINE",
"463 35 LINE",
"464 377 LINE SMOOTH",
"464 521 OFFCURVE",
"377 556 OFFCURVE",
"273 556 CURVE SMOOTH",
"226 556 OFFCURVE",
"126 537 OFFCURVE",
"78 497 CURVE",
"92 462 LINE",
"128 485 OFFCURVE",
"200 506 OFFCURVE",
"249 506 CURVE SMOOTH",
"338 506 OFFCURVE",
"393 477 OFFCURVE",
"393 368 CURVE SMOOTH",
"393 325 LINE",
"271 325 OFFCURVE",
"68 288 OFFCURVE",
"57 152 CURVE SMOOTH"
);
},
{
closed = 1;
nodes = (
"128 257 OFFCURVE",
"288 285 OFFCURVE",
"393 285 CURVE",
"393 216 OFFCURVE",
"393 135 OFFCURVE",
"393 88 CURVE",
"375 73 OFFCURVE",
"327 37 OFFCURVE",
"257 37 CURVE SMOOTH",
"181 37 OFFCURVE",
"127 71 OFFCURVE",
"128 151 CURVE SMOOTH"
);
}
);
width = 559;
}
);
unicode = 00E2;
},
{
glyphname = adieresis;
lastChange = "2014-09-10 13:48:40 +0100";
layers = (
{
layerId = "E777F328-EA17-4AE7-9EBA-8002E537BA4F";
name = Light;
paths = (
{
closed = 1;
nodes = (
"414 696 OFFCURVE",
"442 716 OFFCURVE",
"442 749 CURVE SMOOTH",
"442 774 OFFCURVE",
"427 795 OFFCURVE",
"394 795 CURVE SMOOTH",
"366 795 OFFCURVE",
"337 771 OFFCURVE",
"337 741 CURVE SMOOTH",
"337 712 OFFCURVE",
"359 696 OFFCURVE",
"385 696 CURVE SMOOTH"
);
},
{
closed = 1;
nodes = (
"192 696 OFFCURVE",
"220 716 OFFCURVE",
"220 749 CURVE SMOOTH",
"220 774 OFFCURVE",
"205 795 OFFCURVE",
"172 795 CURVE SMOOTH",
"144 795 OFFCURVE",
"115 771 OFFCURVE",
"115 741 CURVE SMOOTH",
"115 712 OFFCURVE",
"138 696 OFFCURVE",
"163 696 CURVE SMOOTH"
);
},
{
closed = 1;
nodes = (
"50 47 OFFCURVE",
"134 -11 OFFCURVE",
"221 -11 CURVE SMOOTH",
"308 -11 OFFCURVE",
"361 18 OFFCURVE",
"397 59 CURVE",
"397 39 LINE SMOOTH",
"397 -5 OFFCURVE",
"420 -8 OFFCURVE",
"443 -8 CURVE SMOOTH",
"477 -8 OFFCURVE",
"508 -1 OFFCURVE",
"527 8 CURVE",
"527 35 LINE",
"463 35 LINE",
"464 377 LINE SMOOTH",
"464 521 OFFCURVE",
"377 556 OFFCURVE",
"273 556 CURVE SMOOTH",
"226 556 OFFCURVE",
"126 537 OFFCURVE",
"78 497 CURVE",
"92 462 LINE",
"128 485 OFFCURVE",
"200 506 OFFCURVE",
"249 506 CURVE SMOOTH",
"338 506 OFFCURVE",
"393 477 OFFCURVE",
"393 368 CURVE SMOOTH",
"393 325 LINE",
"271 325 OFFCURVE",
"68 288 OFFCURVE",
"57 152 CURVE SMOOTH"
);
},
{
closed = 1;
nodes = (
"128 257 OFFCURVE",
"288 285 OFFCURVE",
"393 285 CURVE",
"393 216 OFFCURVE",
"393 135 OFFCURVE",
"393 88 CURVE",
"375 73 OFFCURVE",
"327 37 OFFCURVE",
"257 37 CURVE SMOOTH",
"181 37 OFFCURVE",
"127 71 OFFCURVE",
"128 151 CURVE SMOOTH"
);
}
);
width = 559;
}
);
unicode = 00E4;
},
{
glyphname = agrave;
lastChange = "2014-09-10 13:48:40 +0100";
layers = (
{
layerId = "E777F328-EA17-4AE7-9EBA-8002E537BA4F";
name = Light;
paths = (
{
closed = 1;
nodes = (
"349 677 LINE",
"196 864 LINE",
"145 811 LINE",
"177 761 OFFCURVE",
"269 697 OFFCURVE",
"328 656 CURVE"
);
},
{
closed = 1;
nodes = (
"50 47 OFFCURVE",
"134 -11 OFFCURVE",
"221 -11 CURVE SMOOTH",
"308 -11 OFFCURVE",
"361 18 OFFCURVE",
"397 59 CURVE",
"397 39 LINE SMOOTH",
"397 -5 OFFCURVE",
"420 -8 OFFCURVE",
"443 -8 CURVE SMOOTH",
"477 -8 OFFCURVE",
"508 -1 OFFCURVE",
"527 8 CURVE",
"527 35 LINE",
"463 35 LINE",
"464 377 LINE SMOOTH",
"464 521 OFFCURVE",
"377 556 OFFCURVE",
"273 556 CURVE SMOOTH",
"226 556 OFFCURVE",
"126 537 OFFCURVE",
"78 497 CURVE",
"92 462 LINE",
"128 485 OFFCURVE",
"200 506 OFFCURVE",
"249 506 CURVE SMOOTH",
"338 506 OFFCURVE",
"393 477 OFFCURVE",
"393 368 CURVE SMOOTH",
"393 325 LINE",
"271 325 OFFCURVE",
"68 288 OFFCURVE",
"57 152 CURVE SMOOTH"
);
},
{
closed = 1;
nodes = (
"128 257 OFFCURVE",
"288 285 OFFCURVE",
"393 285 CURVE",
"393 216 OFFCURVE",
"393 135 OFFCURVE",
"393 88 CURVE",
"375 73 OFFCURVE",
"327 37 OFFCURVE",
"257 37 CURVE SMOOTH",
"181 37 OFFCURVE",
"127 71 OFFCURVE",
"128 151 CURVE SMOOTH"
);
}
);
width = 559;
}
);
unicode = 00E0;
},
{
glyphname = aogonek;
lastChange = "2014-09-10 13:48:40 +0100";
layers = (
{
layerId = "E777F328-EA17-4AE7-9EBA-8002E537BA4F";
name = Light;
paths = (
{
closed = 1;
nodes = (
"50 47 OFFCURVE",
"134 -11 OFFCURVE",
"221 -11 CURVE SMOOTH",
"308 -11 OFFCURVE",
"361 18 OFFCURVE",
"397 59 CURVE",
"397 39 LINE SMOOTH",
"397 0 OFFCURVE",
"415 -6 OFFCURVE",
"435 -8 CURVE",
"385 -27 OFFCURVE",
"303 -83 OFFCURVE",
"303 -155 CURVE SMOOTH",
"303 -275 OFFCURVE",
"464 -269 OFFCURVE",
"529 -217 CURVE",
"529 -183 LINE",
"473 -215 OFFCURVE",
"370 -223 OFFCURVE",
"370 -136 CURVE SMOOTH",
"370 -70 OFFCURVE",
"458 -20 OFFCURVE",
"533 8 CURVE",
"525 6 LINE",
"527 8 LINE",
"527 35 LINE",
"463 35 LINE",
"464 377 LINE SMOOTH",
"464 521 OFFCURVE",
"377 556 OFFCURVE",
"273 556 CURVE SMOOTH",
"226 556 OFFCURVE",
"126 537 OFFCURVE",
"78 497 CURVE",
"92 462 LINE",
"128 485 OFFCURVE",
"200 506 OFFCURVE",
"249 506 CURVE SMOOTH",
"338 506 OFFCURVE",
"393 477 OFFCURVE",
"393 368 CURVE SMOOTH",
"393 325 LINE",
"271 325 OFFCURVE",
"68 288 OFFCURVE",
"57 152 CURVE SMOOTH"
);
},
{
closed = 1;
nodes = (
"128 257 OFFCURVE",
"288 285 OFFCURVE",
"393 285 CURVE",
"393 216 OFFCURVE",
"393 135 OFFCURVE",
"393 88 CURVE",
"375 73 OFFCURVE",
"327 37 OFFCURVE",
"257 37 CURVE SMOOTH",
"181 37 OFFCURVE",
"127 71 OFFCURVE",
"128 151 CURVE SMOOTH"
);
}
);
width = 559;
}
);
unicode = 0105;
},
{
glyphname = aring;
lastChange = "2014-09-10 13:48:40 +0100";
layers = (
{
layerId = "E777F328-EA17-4AE7-9EBA-8002E537BA4F";
name = Light;
paths = (
{
closed = 1;
nodes = (
"335 645 OFFCURVE",
"389 696 OFFCURVE",
"389 760 CURVE SMOOTH",
"389 824 OFFCURVE",
"335 875 OFFCURVE",
"270 875 CURVE SMOOTH",
"204 875 OFFCURVE",
"149 824 OFFCURVE",
"149 760 CURVE SMOOTH",
"149 696 OFFCURVE",
"204 645 OFFCURVE",
"270 645 CURVE SMOOTH"
);
},
{
closed = 1;
nodes = (
"229 685 OFFCURVE",
"195 716 OFFCURVE",
"195 759 CURVE SMOOTH",
"195 801 OFFCURVE",
"229 833 OFFCURVE",
"269 833 CURVE SMOOTH",
"310 833 OFFCURVE",
"344 801 OFFCURVE",
"344 759 CURVE SMOOTH",
"344 716 OFFCURVE",
"310 685 OFFCURVE",
"269 685 CURVE SMOOTH"
);
},
{
closed = 1;
nodes = (
"50 47 OFFCURVE",
"134 -11 OFFCURVE",
"221 -11 CURVE SMOOTH",
"308 -11 OFFCURVE",
"361 18 OFFCURVE",
"397 59 CURVE",
"397 39 LINE SMOOTH",
"397 -5 OFFCURVE",
"420 -8 OFFCURVE",
"443 -8 CURVE SMOOTH",
"477 -8 OFFCURVE",
"508 -1 OFFCURVE",
"527 8 CURVE",
"527 35 LINE",
"463 35 LINE",
"464 377 LINE SMOOTH",
"464 521 OFFCURVE",
"377 556 OFFCURVE",
"273 556 CURVE SMOOTH",
"226 556 OFFCURVE",
"126 537 OFFCURVE",
"78 497 CURVE",
"92 462 LINE",
"128 485 OFFCURVE",
"200 506 OFFCURVE",
"249 506 CURVE SMOOTH",
"338 506 OFFCURVE",
"393 477 OFFCURVE",
"393 368 CURVE SMOOTH",
"393 325 LINE",
"271 325 OFFCURVE",
"68 288 OFFCURVE",
"57 152 CURVE SMOOTH"
);
},
{
closed = 1;
nodes = (
"128 257 OFFCURVE",
"288 285 OFFCURVE",
"393 285 CURVE",
"393 216 OFFCURVE",
"393 135 OFFCURVE",
"393 88 CURVE",
"375 73 OFFCURVE",
"327 37 OFFCURVE",
"257 37 CURVE SMOOTH",
"181 37 OFFCURVE",
"127 71 OFFCURVE",
"128 151 CURVE SMOOTH"
);
}
);
width = 559;
}
);
unicode = 00E5;
},
{
glyphname = atilde;
lastChange = "2014-09-10 13:48:40 +0100";
layers = (
{
layerId = "E777F328-EA17-4AE7-9EBA-8002E537BA4F";
name = Light;
paths = (
{
closed = 1;
nodes = (
"107 703 LINE",
"129 727 OFFCURVE",
"159 755 OFFCURVE",
"201 755 CURVE SMOOTH",
"251 755 OFFCURVE",
"274 681 OFFCURVE",
"337 681 CURVE SMOOTH",
"389 681 OFFCURVE",
"441 719 OFFCURVE",
"465 761 CURVE",
"445 790 LINE",
"423 765 OFFCURVE",
"392 738 OFFCURVE",
"352 738 CURVE SMOOTH",
"302 738 OFFCURVE",
"279 812 OFFCURVE",
"216 812 CURVE SMOOTH",
"165 812 OFFCURVE",
"111 774 OFFCURVE",
"86 731 CURVE"
);
},
{
closed = 1;
nodes = (
"50 47 OFFCURVE",
"134 -11 OFFCURVE",
"221 -11 CURVE SMOOTH",
"308 -11 OFFCURVE",
"361 18 OFFCURVE",
"397 59 CURVE",
"397 39 LINE SMOOTH",
"397 -5 OFFCURVE",
"420 -8 OFFCURVE",
"443 -8 CURVE SMOOTH",
"477 -8 OFFCURVE",
"508 -1 OFFCURVE",
"527 8 CURVE",
"527 35 LINE",
"463 35 LINE",
"464 377 LINE SMOOTH",
"464 521 OFFCURVE",
"377 556 OFFCURVE",
"273 556 CURVE SMOOTH",
"226 556 OFFCURVE",
"126 537 OFFCURVE",
"78 497 CURVE",
"92 462 LINE",
"128 485 OFFCURVE",
"200 506 OFFCURVE",
"249 506 CURVE SMOOTH",
"338 506 OFFCURVE",
"393 477 OFFCURVE",
"393 368 CURVE SMOOTH",
"393 325 LINE",
"271 325 OFFCURVE",
"68 288 OFFCURVE",
"57 152 CURVE SMOOTH"
);
},
{
closed = 1;
nodes = (
"128 257 OFFCURVE",
"288 285 OFFCURVE",
"393 285 CURVE",
"393 216 OFFCURVE",
"393 135 OFFCURVE",
"393 88 CURVE",
"375 73 OFFCURVE",
"327 37 OFFCURVE",
"257 37 CURVE SMOOTH",
"181 37 OFFCURVE",
"127 71 OFFCURVE",
"128 151 CURVE SMOOTH"
);
}
);
width = 559;
}
);
unicode = 00E3;
},
{
glyphname = ae;
lastChange = "2014-09-10 13:48:40 +0100";
layers = (
{
layerId = "E777F328-EA17-4AE7-9EBA-8002E537BA4F";
name = Light;
paths = (
{
closed = 1;
nodes = (
"50 48 OFFCURVE",
"133 -11 OFFCURVE",
"216 -11 CURVE SMOOTH",
"314 -11 OFFCURVE",
"402 35 OFFCURVE",
"431 105 CURVE",
"468 32 OFFCURVE",
"535 -12 OFFCURVE",
"637 -12 CURVE SMOOTH",
"705 -12 OFFCURVE",
"789 9 OFFCURVE",
"824 43 CURVE",
"809 77 LINE",
"783 58 OFFCURVE",
"718 38 OFFCURVE",
"663 38 CURVE SMOOTH",
"547 38 OFFCURVE",
"458 114 OFFCURVE",
"461 280 CURVE",
"829 280 LINE",
"832 301 OFFCURVE",
"835 326 OFFCURVE",
"834 359 CURVE SMOOTH",
"830 491 OFFCURVE",
"761 564 OFFCURVE",
"652 563 CURVE SMOOTH",
"559 561 OFFCURVE",
"489 519 OFFCURVE",
"446 447 CURVE",
"424 537 OFFCURVE",
"354 556 OFFCURVE",
"277 556 CURVE SMOOTH",
"219 556 OFFCURVE",
"123 532 OFFCURVE",
"79 497 CURVE",
"91 460 LINE",
"135 486 OFFCURVE",
"205 506 OFFCURVE",
"252 506 CURVE SMOOTH",
"333 506 OFFCURVE",
"391 480 OFFCURVE",
"391 368 CURVE SMOOTH",
"391 323 LINE",
"290 327 OFFCURVE",
"66 292 OFFCURVE",
"57 153 CURVE SMOOTH"
);
},
{
closed = 1;
nodes = (
"462 324 LINE",
"473 453 OFFCURVE",
"542 522 OFFCURVE",
"633 522 CURVE SMOOTH",
"656 522 OFFCURVE",
"676 518 OFFCURVE",
"693 508 CURVE SMOOTH",
"748 479 OFFCURVE",
"764 409 OFFCURVE",
"759 324 CURVE"
);
},
{
closed = 1;
nodes = (
"128 261 OFFCURVE",
"305 287 OFFCURVE",
"391 285 CURVE",
"391 244 OFFCURVE",
"390 174 OFFCURVE",
"390 133 CURVE",
"376 77 OFFCURVE",
"319 37 OFFCURVE",
"252 37 CURVE SMOOTH",
"177 37 OFFCURVE",
"128 75 OFFCURVE",
"128 152 CURVE SMOOTH"
);
}
);
width = 884;
}
);
unicode = 00E6;
},
{
glyphname = b;
lastChange = "2014-09-10 13:48:40 +0100";
layers = (
{
layerId = "E777F328-EA17-4AE7-9EBA-8002E537BA4F";
name = Light;
paths = (
{
closed = 1;
nodes = (
"105 24 LINE",
"118 10 OFFCURVE",
"197 -14 OFFCURVE",
"289 -14 CURVE SMOOTH",
"454 -14 OFFCURVE",
"565 124 OFFCURVE",
"565 295 CURVE SMOOTH",
"565 490 OFFCURVE",
"458 563 OFFCURVE",
"348 563 CURVE SMOOTH",
"272 563 OFFCURVE",
"214 529 OFFCURVE",
"175 498 CURVE",
"175 784 LINE",
"158 792 LINE",
"21 778 LINE",
"21 745 LINE",
"105 732 LINE"
);
},
{
closed = 1;
nodes = (
"175 458 LINE",
"207 487 OFFCURVE",
"263 511 OFFCURVE",
"319 511 CURVE SMOOTH",
"411 511 OFFCURVE",
"497 450 OFFCURVE",
"495 278 CURVE SMOOTH",
"494 108 OFFCURVE",
"397 27 OFFCURVE",
"298 27 CURVE SMOOTH",
"242 27 OFFCURVE",
"186 38 OFFCURVE",
"175 65 CURVE"
);
}
);
width = 617;
}
);
unicode = 0062;
},
{
glyphname = c;
lastChange = "2014-09-10 13:48:40 +0100";
layers = (
{
layerId = "E777F328-EA17-4AE7-9EBA-8002E537BA4F";
name = Light;
paths = (
{
closed = 1;
nodes = (
"54 106 OFFCURVE",
"136 -10 OFFCURVE",
"285 -10 CURVE SMOOTH",
"358 -10 OFFCURVE",
"435 9 OFFCURVE",
"473 43 CURVE",
"459 78 LINE",
"428 55 OFFCURVE",
"357 41 OFFCURVE",
"313 41 CURVE SMOOTH",
"217 41 OFFCURVE",
"119 111 OFFCURVE",
"121 296 CURVE SMOOTH",
"122 439 OFFCURVE",
"210 517 OFFCURVE",
"311 517 CURVE SMOOTH",
"344 517 OFFCURVE",
"379 512 OFFCURVE",
"402 495 CURVE",
"422 432 LINE",
"458 432 LINE",
"458 537 LINE",
"432 554 OFFCURVE",
"371 563 OFFCURVE",
"317 561 CURVE SMOOTH",
"167 555 OFFCURVE",
"51 443 OFFCURVE",
"52 263 CURVE SMOOTH"
);
}
);
width = 513;
}
);
unicode = 0063;
},
{
glyphname = ccedilla;
lastChange = "2014-09-10 13:48:40 +0100";
layers = (
{
layerId = "E777F328-EA17-4AE7-9EBA-8002E537BA4F";
name = Light;
paths = (
{
closed = 1;
nodes = (
"251 -40 OFFCURVE",
"248 -67 OFFCURVE",
"247 -97 CURVE",
"252 -95 OFFCURVE",
"268 -94 OFFCURVE",
"278 -94 CURVE SMOOTH",
"329 -94 OFFCURVE",
"365 -111 OFFCURVE",
"365 -154 CURVE SMOOTH",
"365 -210 OFFCURVE",
"318 -217 OFFCURVE",
"281 -217 CURVE SMOOTH",
"267 -217 OFFCURVE",
"235 -213 OFFCURVE",
"217 -208 CURVE",
"217 -247 LINE",
"241 -253 OFFCURVE",
"263 -260 OFFCURVE",
"313 -257 CURVE SMOOTH",
"379 -255 OFFCURVE",
"437 -219 OFFCURVE",
"437 -154 CURVE SMOOTH",
"437 -104 OFFCURVE",
"394 -58 OFFCURVE",
"303 -62 CURVE",
"301 -45 OFFCURVE",
"302 -25 OFFCURVE",
"304 -10 CURVE",
"372 -6 OFFCURVE",
"438 12 OFFCURVE",
"473 43 CURVE",
"459 78 LINE",
"428 55 OFFCURVE",
"357 41 OFFCURVE",
"313 41 CURVE SMOOTH",
"217 41 OFFCURVE",
"119 111 OFFCURVE",
"121 296 CURVE SMOOTH",
"122 439 OFFCURVE",
"210 517 OFFCURVE",
"311 517 CURVE SMOOTH",
"344 517 OFFCURVE",
"379 512 OFFCURVE",
"402 495 CURVE",
"422 432 LINE",
"458 432 LINE",
"458 537 LINE",
"432 554 OFFCURVE",
"371 563 OFFCURVE",
"317 561 CURVE SMOOTH",
"167 555 OFFCURVE",
"51 443 OFFCURVE",
"52 263 CURVE SMOOTH",
"54 116 OFFCURVE",
"126 3 OFFCURVE",
"259 -9 CURVE"
);
}
);
width = 513;
}
);
unicode = 00E7;
},
{
glyphname = d;
lastChange = "2014-09-10 13:48:40 +0100";
layers = (
{
layerId = "E777F328-EA17-4AE7-9EBA-8002E537BA4F";
name = Light;
paths = (
{
closed = 1;
nodes = (
"359 -12 OFFCURVE",
"419 23 OFFCURVE",
"445 46 CURVE",
"445 32 LINE SMOOTH",
"445 -8 OFFCURVE",
"466 -11 OFFCURVE",
"490 -11 CURVE SMOOTH",
"517 -11 OFFCURVE",
"558 -4 OFFCURVE",
"579 5 CURVE",
"579 35 LINE",
"513 35 LINE",
"513 782 LINE",
"494 792 LINE",
"342 776 LINE",
"342 743 LINE",
"442 731 LINE",
"442 542 LINE",
"421 549 OFFCURVE",
"391 563 OFFCURVE",
"332 563 CURVE SMOOTH",
"177 563 OFFCURVE",
"52 438 OFFCURVE",
"52 264 CURVE SMOOTH",
"52 73 OFFCURVE",
"154 -12 OFFCURVE",
"268 -12 CURVE SMOOTH"
);
},
{
closed = 1;
nodes = (
"199 40 OFFCURVE",
"120 119 OFFCURVE",
"123 281 CURVE SMOOTH",
"125 450 OFFCURVE",
"228 521 OFFCURVE",
"324 521 CURVE SMOOTH",
"403 521 OFFCURVE",
"429 494 OFFCURVE",
"442 480 CURVE",
"442 89 LINE",
"426 74 OFFCURVE",
"397 54 OFFCURVE",
"351 45 CURVE SMOOTH",
"333 42 OFFCURVE",
"315 40 OFFCURVE",
"295 40 CURVE SMOOTH"
);
}
);
width = 620;
}
);
unicode = 0064;
},
{
glyphname = eth;
lastChange = "2014-09-10 13:48:40 +0100";
layers = (
{
layerId = "E777F328-EA17-4AE7-9EBA-8002E537BA4F";
name = Light;
paths = (
{
closed = 1;
nodes = (
"49 93 OFFCURVE",
"148 -17 OFFCURVE",
"299 -13 CURVE SMOOTH",
"438 -11 OFFCURVE",
"552 99 OFFCURVE",
"552 298 CURVE SMOOTH",
"552 481 OFFCURVE",
"468 636 OFFCURVE",
"337 735 CURVE",
"388 780 LINE SMOOTH",
"398 788 OFFCURVE",
"408 797 OFFCURVE",
"417 806 CURVE",
"377 838 LINE",
"347 810 LINE",
"296 763 LINE",
"257 787 OFFCURVE",
"215 807 OFFCURVE",
"169 822 CURVE",
"160 781 LINE",
"191 771 OFFCURVE",
"227 754 OFFCURVE",
"262 729 CURVE",
"179 653 LINE",
"217 623 LINE",
"302 700 LINE",
"378 637 OFFCURVE",
"448 544 OFFCURVE",
"472 428 CURVE",
"437 472 OFFCURVE",
"364 504 OFFCURVE",
"300 504 CURVE SMOOTH",
"166 504 OFFCURVE",
"49 417 OFFCURVE",
"49 245 CURVE SMOOTH"
);
},
{
closed = 1;
nodes = (
"125 379 OFFCURVE",
"183 463 OFFCURVE",
"300 463 CURVE SMOOTH",
"396 463 OFFCURVE",
"458 392 OFFCURVE",
"473 335 CURVE",
"477 313 OFFCURVE",
"476 279 OFFCURVE",
"476 263 CURVE SMOOTH",
"475 155 OFFCURVE",
"419 27 OFFCURVE",
"305 27 CURVE SMOOTH",
"182 27 OFFCURVE",
"125 134 OFFCURVE",
"125 250 CURVE SMOOTH"
);
}
);
width = 601;
}
);
unicode = 00F0;
},
{
glyphname = e;
lastChange = "2014-09-10 13:48:40 +0100";
layers = (
{
layerId = "E777F328-EA17-4AE7-9EBA-8002E537BA4F";
name = Light;
paths = (
{
closed = 1;
nodes = (
"50 100 OFFCURVE",
"136 -12 OFFCURVE",
"293 -12 CURVE SMOOTH",
"368 -12 OFFCURVE",
"455 9 OFFCURVE",
"493 43 CURVE",
"478 77 LINE",
"450 58 OFFCURVE",
"381 39 OFFCURVE",
"319 39 CURVE SMOOTH",
"210 39 OFFCURVE",
"120 112 OFFCURVE",
"122 275 CURVE SMOOTH",
"122 280 LINE",
"501 280 LINE",
"505 301 OFFCURVE",
"508 326 OFFCURVE",
"506 359 CURVE SMOOTH",
"504 489 OFFCURVE",
"430 564 OFFCURVE",
"318 563 CURVE SMOOTH",
"162 560 OFFCURVE",
"50 438 OFFCURVE",
"50 271 CURVE SMOOTH"
);
},
{
closed = 1;
nodes = (
"124 324 LINE",
"137 456 OFFCURVE",
"210 522 OFFCURVE",
"300 522 CURVE SMOOTH",
"326 522 OFFCURVE",
"348 517 OFFCURVE",
"366 507 CURVE SMOOTH",
"422 477 OFFCURVE",
"437 406 OFFCURVE",
"432 324 CURVE"
);
}
);
width = 559;
}
);
unicode = 0065;
},
{
glyphname = eacute;
lastChange = "2014-09-10 13:48:40 +0100";
layers = (
{
layerId = "E777F328-EA17-4AE7-9EBA-8002E537BA4F";
name = Light;
paths = (
{
closed = 1;
nodes = (
"260 656 LINE",
"319 696 OFFCURVE",
"413 764 OFFCURVE",
"443 811 CURVE",
"392 864 LINE",
"239 677 LINE"
);
},
{
closed = 1;
nodes = (
"50 100 OFFCURVE",
"136 -12 OFFCURVE",
"293 -12 CURVE SMOOTH",
"368 -12 OFFCURVE",
"455 9 OFFCURVE",
"493 43 CURVE",
"478 77 LINE",
"450 58 OFFCURVE",
"381 39 OFFCURVE",
"319 39 CURVE SMOOTH",
"210 39 OFFCURVE",
"120 112 OFFCURVE",
"122 275 CURVE SMOOTH",
"122 280 LINE",
"501 280 LINE",
"505 301 OFFCURVE",
"508 326 OFFCURVE",
"506 359 CURVE SMOOTH",
"504 489 OFFCURVE",
"430 564 OFFCURVE",
"318 563 CURVE SMOOTH",
"162 560 OFFCURVE",
"50 438 OFFCURVE",
"50 271 CURVE SMOOTH"
);
},
{
closed = 1;
nodes = (
"124 324 LINE",
"137 456 OFFCURVE",
"210 522 OFFCURVE",
"300 522 CURVE SMOOTH",
"326 522 OFFCURVE",
"348 517 OFFCURVE",
"366 507 CURVE SMOOTH",
"422 477 OFFCURVE",
"437 406 OFFCURVE",
"432 324 CURVE"
);
}
);
width = 559;
}
);
unicode = 00E9;
},
{
glyphname = ecircumflex;
lastChange = "2014-09-10 13:48:40 +0100";
layers = (
{
layerId = "E777F328-EA17-4AE7-9EBA-8002E537BA4F";
name = Light;
paths = (
{
closed = 1;
nodes = (
"155 653 LINE",
"296 802 LINE",
"432 653 LINE",
"465 671 LINE",
"332 865 LINE",
"262 865 LINE",
"125 670 LINE"
);
},
{
closed = 1;
nodes = (
"50 100 OFFCURVE",
"136 -12 OFFCURVE",
"293 -12 CURVE SMOOTH",
"368 -12 OFFCURVE",
"455 9 OFFCURVE",
"493 43 CURVE",
"478 77 LINE",
"450 58 OFFCURVE",
"381 39 OFFCURVE",
"319 39 CURVE SMOOTH",
"210 39 OFFCURVE",
"120 112 OFFCURVE",
"122 275 CURVE SMOOTH",
"122 280 LINE",
"501 280 LINE",
"505 301 OFFCURVE",
"508 326 OFFCURVE",
"506 359 CURVE SMOOTH",
"504 489 OFFCURVE",
"430 564 OFFCURVE",
"318 563 CURVE SMOOTH",
"162 560 OFFCURVE",
"50 438 OFFCURVE",
"50 271 CURVE SMOOTH"
);
},
{
closed = 1;
nodes = (
"124 324 LINE",
"137 456 OFFCURVE",
"210 522 OFFCURVE",
"300 522 CURVE SMOOTH",
"326 522 OFFCURVE",
"348 517 OFFCURVE",
"366 507 CURVE SMOOTH",
"422 477 OFFCURVE",
"437 406 OFFCURVE",
"432 324 CURVE"
);
}
);
width = 559;
}
);
unicode = 00EA;
},
{
glyphname = edieresis;
lastChange = "2014-09-10 13:48:40 +0100";
layers = (
{
layerId = "E777F328-EA17-4AE7-9EBA-8002E537BA4F";
name = Light;
paths = (
{
closed = 1;
nodes = (
"431 696 OFFCURVE",
"459 716 OFFCURVE",
"459 749 CURVE SMOOTH",
"459 774 OFFCURVE",
"444 795 OFFCURVE",
"410 795 CURVE SMOOTH",
"382 795 OFFCURVE",
"354 771 OFFCURVE",
"354 741 CURVE SMOOTH",
"354 712 OFFCURVE",
"376 696 OFFCURVE",
"401 696 CURVE SMOOTH"
);
},
{
closed = 1;
nodes = (
"208 696 OFFCURVE",
"237 716 OFFCURVE",
"237 749 CURVE SMOOTH",
"237 774 OFFCURVE",
"222 795 OFFCURVE",
"188 795 CURVE SMOOTH",
"160 795 OFFCURVE",
"131 771 OFFCURVE",
"131 741 CURVE SMOOTH",
"131 712 OFFCURVE",
"154 696 OFFCURVE",
"179 696 CURVE SMOOTH"
);
},
{
closed = 1;
nodes = (
"50 100 OFFCURVE",
"136 -12 OFFCURVE",
"293 -12 CURVE SMOOTH",
"368 -12 OFFCURVE",
"455 9 OFFCURVE",
"493 43 CURVE",
"478 77 LINE",
"450 58 OFFCURVE",
"381 39 OFFCURVE",
"319 39 CURVE SMOOTH",
"210 39 OFFCURVE",
"120 112 OFFCURVE",
"122 275 CURVE SMOOTH",
"122 280 LINE",
"501 280 LINE",
"505 301 OFFCURVE",
"508 326 OFFCURVE",
"506 359 CURVE SMOOTH",
"504 489 OFFCURVE",
"430 564 OFFCURVE",
"318 563 CURVE SMOOTH",
"162 560 OFFCURVE",
"50 438 OFFCURVE",
"50 271 CURVE SMOOTH"
);
},
{
closed = 1;
nodes = (
"124 324 LINE",
"137 456 OFFCURVE",
"210 522 OFFCURVE",
"300 522 CURVE SMOOTH",
"326 522 OFFCURVE",
"348 517 OFFCURVE",
"366 507 CURVE SMOOTH",
"422 477 OFFCURVE",
"437 406 OFFCURVE",
"432 324 CURVE"
);
}
);
width = 559;
}
);
unicode = 00EB;
},
{
glyphname = egrave;
lastChange = "2014-09-10 13:48:40 +0100";
layers = (
{
layerId = "E777F328-EA17-4AE7-9EBA-8002E537BA4F";
name = Light;
paths = (
{
closed = 1;
nodes = (
"366 677 LINE",
"213 864 LINE",
"161 811 LINE",
"193 761 OFFCURVE",
"286 696 OFFCURVE",
"345 656 CURVE"
);
},
{
closed = 1;
nodes = (
"50 100 OFFCURVE",
"136 -12 OFFCURVE",
"293 -12 CURVE SMOOTH",
"368 -12 OFFCURVE",
"455 9 OFFCURVE",
"493 43 CURVE",
"478 77 LINE",
"450 58 OFFCURVE",
"381 39 OFFCURVE",
"319 39 CURVE SMOOTH",
"210 39 OFFCURVE",
"120 112 OFFCURVE",
"122 275 CURVE SMOOTH",
"122 280 LINE",
"501 280 LINE",
"505 301 OFFCURVE",
"508 326 OFFCURVE",
"506 359 CURVE SMOOTH",
"504 489 OFFCURVE",
"430 564 OFFCURVE",
"318 563 CURVE SMOOTH",
"162 560 OFFCURVE",
"50 438 OFFCURVE",
"50 271 CURVE SMOOTH"
);
},
{
closed = 1;
nodes = (
"124 324 LINE",
"137 456 OFFCURVE",
"210 522 OFFCURVE",
"300 522 CURVE SMOOTH",
"326 522 OFFCURVE",
"348 517 OFFCURVE",
"366 507 CURVE SMOOTH",
"422 477 OFFCURVE",
"437 406 OFFCURVE",
"432 324 CURVE"
);
}
);
width = 559;
}
);
unicode = 00E8;
},
{
glyphname = eogonek;
lastChange = "2014-09-10 13:48:40 +0100";
layers = (
{
layerId = "E777F328-EA17-4AE7-9EBA-8002E537BA4F";
name = Light;
paths = (
{
closed = 1;
nodes = (
"50 100 OFFCURVE",
"136 -12 OFFCURVE",
"293 -12 CURVE SMOOTH",
"321 -12 OFFCURVE",
"349 -9 OFFCURVE",
"377 -3 CURVE",
"317 -40 OFFCURVE",
"270 -96 OFFCURVE",
"270 -148 CURVE SMOOTH",
"270 -269 OFFCURVE",
"431 -268 OFFCURVE",
"496 -217 CURVE",
"496 -180 LINE",
"440 -215 OFFCURVE",
"336 -214 OFFCURVE",
"336 -131 CURVE SMOOTH",
"336 -71 OFFCURVE",
"413 -20 OFFCURVE",
"495 42 CURVE",
"491 41 LINE",
"492 42 OFFCURVE",
"492 42 OFFCURVE",
"493 43 CURVE",
"478 77 LINE",
"450 58 OFFCURVE",
"381 39 OFFCURVE",
"319 39 CURVE SMOOTH",
"210 39 OFFCURVE",
"120 112 OFFCURVE",
"122 275 CURVE SMOOTH",
"122 280 LINE",
"501 280 LINE",
"505 301 OFFCURVE",
"508 326 OFFCURVE",
"506 359 CURVE SMOOTH",
"504 489 OFFCURVE",
"430 564 OFFCURVE",
"318 563 CURVE SMOOTH",
"162 560 OFFCURVE",
"50 438 OFFCURVE",
"50 271 CURVE SMOOTH"
);
},
{
closed = 1;
nodes = (
"124 324 LINE",
"137 456 OFFCURVE",
"210 522 OFFCURVE",
"300 522 CURVE SMOOTH",
"326 522 OFFCURVE",
"348 517 OFFCURVE",
"366 507 CURVE SMOOTH",
"422 477 OFFCURVE",
"437 406 OFFCURVE",
"432 324 CURVE"
);
}
);
width = 559;
}
);
unicode = 0119;
},
{
glyphname = f;
lastChange = "2014-09-10 13:48:40 +0100";
layers = (
{
layerId = "E777F328-EA17-4AE7-9EBA-8002E537BA4F";
name = Light;
paths = (
{
closed = 1;
nodes = (
"58 0 LINE",
"346 0 LINE",
"346 33 LINE",
"229 41 LINE",
"229 486 LINE",
"388 486 LINE",
"388 537 LINE",
"229 537 LINE",
"229 616 LINE SMOOTH",
"229 741 OFFCURVE",
"283 764 OFFCURVE",
"338 764 CURVE SMOOTH",
"381 764 OFFCURVE",
"410 757 OFFCURVE",
"422 750 CURVE",
"422 813 LINE",
"410 818 OFFCURVE",
"391 821 OFFCURVE",
"352 821 CURVE SMOOTH",
"266 821 OFFCURVE",
"158 734 OFFCURVE",
"158 588 CURVE SMOOTH",
"158 537 LINE",
"47 516 LINE",
"47 486 LINE",
"158 486 LINE",
"158 42 LINE",
"58 33 LINE"
);
}
);
width = 409;
}
);
unicode = 0066;
},
{
glyphname = g;
lastChange = "2014-09-10 13:48:40 +0100";
layers = (
{
layerId = "E777F328-EA17-4AE7-9EBA-8002E537BA4F";
name = Light;
paths = (
{
closed = 1;
nodes = (
"62 -225 OFFCURVE",
"177 -259 OFFCURVE",
"300 -259 CURVE SMOOTH",
"450 -259 OFFCURVE",
"553 -191 OFFCURVE",
"553 -80 CURVE SMOOTH",
"553 -23 OFFCURVE",
"540 62 OFFCURVE",
"358 62 CURVE SMOOTH",
"320 62 OFFCURVE",
"254 61 OFFCURVE",
"235 63 CURVE",
"181 66 OFFCURVE",
"161 83 OFFCURVE",
"161 128 CURVE SMOOTH",
"161 147 OFFCURVE",
"164 181 OFFCURVE",
"178 204 CURVE",
"208 192 OFFCURVE",
"242 186 OFFCURVE",
"281 186 CURVE SMOOTH",
"396 186 OFFCURVE",
"498 258 OFFCURVE",
"498 386 CURVE SMOOTH",
"498 433 OFFCURVE",
"486 469 OFFCURVE",
"466 497 CURVE",
"512 497 OFFCURVE",
"571 496 OFFCURVE",
"574 496 CURVE",
"574 553 LINE",
"516 553 LINE SMOOTH",
"471 553 OFFCURVE",
"444 544 OFFCURVE",
"430 531 CURVE",
"393 557 OFFCURVE",
"345 568 OFFCURVE",
"292 567 CURVE SMOOTH",
"180 564 OFFCURVE",
"70 501 OFFCURVE",
"70 368 CURVE SMOOTH",
"70 294 OFFCURVE",
"103 244 OFFCURVE",
"155 215 CURVE",
"117 180 OFFCURVE",
"97 126 OFFCURVE",
"97 101 CURVE SMOOTH",
"97 75 OFFCURVE",
"96 39 OFFCURVE",
"146 20 CURVE",
"112 -1 OFFCURVE",
"62 -54 OFFCURVE",
"62 -117 CURVE SMOOTH"
);
},
{
closed = 1;
nodes = (
"188 227 OFFCURVE",
"139 292 OFFCURVE",
"139 380 CURVE SMOOTH",
"139 487 OFFCURVE",
"205 527 OFFCURVE",
"281 527 CURVE SMOOTH",
"378 527 OFFCURVE",
"429 479 OFFCURVE",
"429 374 CURVE SMOOTH",
"429 274 OFFCURVE",
"377 227 OFFCURVE",
"293 227 CURVE SMOOTH"
);
},
{
closed = 1;
nodes = (
"131 -42 OFFCURVE",
"152 -10 OFFCURVE",
"175 11 CURVE",
"197 6 OFFCURVE",
"225 3 OFFCURVE",
"261 3 CURVE SMOOTH",
"344 3 LINE SMOOTH",
"473 1 OFFCURVE",
"496 -39 OFFCURVE",
"496 -98 CURVE SMOOTH",
"496 -181 OFFCURVE",
"413 -216 OFFCURVE",
"310 -216 CURVE SMOOTH",
"231 -216 OFFCURVE",
"131 -193 OFFCURVE",
"131 -94 CURVE SMOOTH"
);
}
);
width = 587;
}
);
leftKerningGroup = o;
unicode = 0067;
},
{
glyphname = h;
lastChange = "2014-09-10 13:48:40 +0100";
layers = (
{
layerId = "E777F328-EA17-4AE7-9EBA-8002E537BA4F";
name = Light;
paths = (
{
closed = 1;
nodes = (
"64 0 LINE",
"285 0 LINE",
"285 33 LINE",
"208 42 LINE",
"208 449 LINE",
"254 481 OFFCURVE",
"328 503 OFFCURVE",
"377 503 CURVE SMOOTH",
"485 503 OFFCURVE",
"504 436 OFFCURVE",
"504 268 CURVE SMOOTH",
"504 42 LINE",
"423 33 LINE",
"423 0 LINE",
"650 0 LINE",
"650 33 LINE",
"575 42 LINE",
"575 296 LINE SMOOTH",
"576 486 OFFCURVE",
"541 558 OFFCURVE",
"408 558 CURVE SMOOTH",
"354 558 OFFCURVE",
"264 524 OFFCURVE",
"207 480 CURVE",
"208 552 LINE",
"208 782 LINE",
"189 792 LINE",
"55 776 LINE",
"55 742 LINE",
"138 730 LINE",
"138 42 LINE",
"64 33 LINE"
);
}
);
width = 686;
}
);
unicode = 0068;
},
{
glyphname = hbar;
lastChange = "2014-09-10 13:48:40 +0100";
layers = (
{
layerId = "E777F328-EA17-4AE7-9EBA-8002E537BA4F";
name = Light;
paths = (
{
closed = 1;
nodes = (
"64 0 LINE",
"285 0 LINE",
"285 33 LINE",
"208 42 LINE",
"208 449 LINE",
"254 481 OFFCURVE",
"328 503 OFFCURVE",
"377 503 CURVE SMOOTH",
"485 503 OFFCURVE",
"504 436 OFFCURVE",
"504 268 CURVE SMOOTH",
"504 42 LINE",
"423 33 LINE",
"423 0 LINE",
"650 0 LINE",
"650 33 LINE",
"575 42 LINE",
"575 296 LINE SMOOTH",
"576 486 OFFCURVE",
"541 558 OFFCURVE",
"408 558 CURVE SMOOTH",
"354 558 OFFCURVE",
"264 524 OFFCURVE",
"207 480 CURVE",
"208 552 LINE",
"208 602 LINE",
"311 602 LINE",
"311 647 LINE",
"208 647 LINE",
"208 782 LINE",
"189 792 LINE",
"55 776 LINE",
"55 742 LINE",
"138 730 LINE",
"138 647 LINE",
"51 647 LINE",
"51 602 LINE",
"138 602 LINE",
"138 42 LINE",
"64 33 LINE"
);
}
);
width = 686;
}
);
unicode = 0127;
},
{
glyphname = i;
lastChange = "2014-09-10 13:49:57 +0100";
layers = (
{
layerId = "E777F328-EA17-4AE7-9EBA-8002E537BA4F";
name = Light;
paths = (
{
closed = 1;
nodes = (
"195 691 OFFCURVE",
"224 713 OFFCURVE",
"224 747 CURVE SMOOTH",
"224 773 OFFCURVE",
"208 794 OFFCURVE",
"175 794 CURVE SMOOTH",
"147 794 OFFCURVE",
"118 771 OFFCURVE",
"118 738 CURVE SMOOTH",
"118 709 OFFCURVE",
"141 691 OFFCURVE",
"166 691 CURVE SMOOTH"
);
},
{
closed = 1;
nodes = (
"68 0 LINE",
"298 0 LINE",
"298 33 LINE",
"217 42 LINE",
"217 544 LINE",
"198 553 LINE",
"79 523 LINE",
"79 499 LINE",
"149 474 LINE",
"149 41 LINE",
"68 33 LINE"
);
}
);
width = 333;
}
);
leftKerningGroup = i;
unicode = 0069;
},
{
glyphname = idotless;
lastChange = "2014-09-10 13:48:40 +0100";
layers = (
{
layerId = "E777F328-EA17-4AE7-9EBA-8002E537BA4F";
name = Light;
paths = (
{
closed = 1;
nodes = (
"68 0 LINE",
"298 0 LINE",
"298 33 LINE",
"217 42 LINE",
"217 544 LINE",
"198 553 LINE",
"79 523 LINE",
"79 499 LINE",
"149 474 LINE",
"149 41 LINE",
"68 33 LINE"
);
}
);
width = 333;
}
);
unicode = 0131;
},
{
glyphname = iacute;
lastChange = "2014-09-10 13:48:40 +0100";
layers = (
{
layerId = "E777F328-EA17-4AE7-9EBA-8002E537BA4F";
name = Light;
paths = (
{
closed = 1;
nodes = (
"140 656 LINE",
"200 696 OFFCURVE",
"292 764 OFFCURVE",
"324 811 CURVE",
"272 864 LINE",
"119 677 LINE"
);
},
{
closed = 1;
nodes = (
"68 0 LINE",
"298 0 LINE",
"298 33 LINE",
"217 42 LINE",
"217 544 LINE",
"198 553 LINE",
"79 523 LINE",
"79 499 LINE",
"149 474 LINE",
"149 41 LINE",
"68 33 LINE"
);
}
);
width = 333;
}
);
unicode = 00ED;
},
{
glyphname = icircumflex;
lastChange = "2014-09-10 13:48:40 +0100";
layers = (
{
layerId = "E777F328-EA17-4AE7-9EBA-8002E537BA4F";
name = Light;
paths = (
{
closed = 1;
nodes = (
"35 653 LINE",
"177 802 LINE",
"312 653 LINE",
"345 671 LINE",
"212 865 LINE",
"143 865 LINE",
"5 670 LINE"
);
},
{
closed = 1;
nodes = (
"68 0 LINE",
"298 0 LINE",
"298 33 LINE",
"217 42 LINE",
"217 544 LINE",
"198 553 LINE",
"79 523 LINE",
"79 499 LINE",
"149 474 LINE",
"149 41 LINE",
"68 33 LINE"
);
}
);
width = 333;
}
);
unicode = 00EE;
},
{
glyphname = idieresis;
lastChange = "2014-09-10 13:48:40 +0100";
layers = (
{
layerId = "E777F328-EA17-4AE7-9EBA-8002E537BA4F";
name = Light;
paths = (
{
closed = 1;
nodes = (
"311 696 OFFCURVE",
"339 716 OFFCURVE",
"339 749 CURVE SMOOTH",
"339 774 OFFCURVE",
"324 795 OFFCURVE",
"291 795 CURVE SMOOTH",
"263 795 OFFCURVE",
"234 771 OFFCURVE",
"234 741 CURVE SMOOTH",
"234 712 OFFCURVE",
"256 696 OFFCURVE",
"282 696 CURVE SMOOTH"
);
},
{
closed = 1;
nodes = (
"88 696 OFFCURVE",
"117 716 OFFCURVE",
"117 749 CURVE SMOOTH",
"117 774 OFFCURVE",
"102 795 OFFCURVE",
"68 795 CURVE SMOOTH",
"41 795 OFFCURVE",
"12 771 OFFCURVE",
"12 741 CURVE SMOOTH",
"12 712 OFFCURVE",
"34 696 OFFCURVE",
"60 696 CURVE SMOOTH"
);
},
{
closed = 1;
nodes = (
"68 0 LINE",
"298 0 LINE",
"298 33 LINE",
"217 42 LINE",
"217 544 LINE",
"198 553 LINE",
"79 523 LINE",
"79 499 LINE",
"149 474 LINE",
"149 41 LINE",
"68 33 LINE"
);
}
);
width = 333;
}
);
unicode = 00EF;
},
{
glyphname = igrave;
lastChange = "2014-09-10 13:48:40 +0100";
layers = (
{
layerId = "E777F328-EA17-4AE7-9EBA-8002E537BA4F";
name = Light;
paths = (
{
closed = 1;
nodes = (
"246 677 LINE",
"93 864 LINE",
"41 811 LINE",
"74 762 OFFCURVE",
"166 696 OFFCURVE",
"225 656 CURVE"
);
},
{
closed = 1;
nodes = (
"68 0 LINE",
"298 0 LINE",
"298 33 LINE",
"217 42 LINE",
"217 544 LINE",
"198 553 LINE",
"79 523 LINE",
"79 499 LINE",
"149 474 LINE",
"149 41 LINE",
"68 33 LINE"
);
}
);
width = 333;
}
);
unicode = 00EC;
},
{
glyphname = ij;
lastChange = "2014-09-10 13:48:40 +0100";
layers = (
{
layerId = "E777F328-EA17-4AE7-9EBA-8002E537BA4F";
name = Light;
paths = (
{
closed = 1;
nodes = (
"195 691 OFFCURVE",
"224 713 OFFCURVE",
"224 747 CURVE SMOOTH",
"224 773 OFFCURVE",
"208 794 OFFCURVE",
"175 794 CURVE SMOOTH",
"147 794 OFFCURVE",
"118 771 OFFCURVE",
"118 738 CURVE SMOOTH",
"118 709 OFFCURVE",
"141 691 OFFCURVE",
"166 691 CURVE SMOOTH"
);
},
{
closed = 1;
nodes = (
"527 688 OFFCURVE",
"556 709 OFFCURVE",
"556 743 CURVE SMOOTH",
"556 770 OFFCURVE",
"541 791 OFFCURVE",
"507 791 CURVE SMOOTH",
"479 791 OFFCURVE",
"450 768 OFFCURVE",
"450 735 CURVE SMOOTH",
"450 705 OFFCURVE",
"473 688 OFFCURVE",
"498 688 CURVE SMOOTH"
);
},
{
closed = 1;
nodes = (
"68 0 LINE",
"298 0 LINE",
"298 33 LINE",
"217 42 LINE",
"217 544 LINE",
"198 553 LINE",
"79 523 LINE",
"79 499 LINE",
"149 474 LINE",
"149 41 LINE",
"68 33 LINE"
);
},
{
closed = 1;
nodes = (
"329 -244 LINE",
"334 -249 OFFCURVE",
"368 -251 OFFCURVE",
"382 -251 CURVE SMOOTH",
"489 -251 OFFCURVE",
"550 -160 OFFCURVE",
"550 -8 CURVE SMOOTH",
"550 544 LINE",
"532 553 LINE",
"408 523 LINE",
"408 499 LINE",
"481 474 LINE",
"481 -1 LINE SMOOTH",
"481 -156 OFFCURVE",
"445 -198 OFFCURVE",
"382 -198 CURVE SMOOTH",
"371 -198 OFFCURVE",
"339 -197 OFFCURVE",
"329 -193 CURVE"
);
}
);
width = 650;
}
);
unicode = 0133;
},
{
glyphname = itilde;
lastChange = "2014-09-10 13:48:40 +0100";
layers = (
{
layerId = "E777F328-EA17-4AE7-9EBA-8002E537BA4F";
name = Light;
paths = (
{
closed = 1;
nodes = (
"4 703 LINE",
"26 727 OFFCURVE",
"56 755 OFFCURVE",
"98 755 CURVE SMOOTH",
"148 755 OFFCURVE",
"171 681 OFFCURVE",
"234 681 CURVE SMOOTH",
"286 681 OFFCURVE",
"338 719 OFFCURVE",
"362 761 CURVE",
"342 790 LINE",
"320 766 OFFCURVE",
"289 738 OFFCURVE",
"248 738 CURVE SMOOTH",
"199 738 OFFCURVE",
"175 812 OFFCURVE",
"113 812 CURVE SMOOTH",
"61 812 OFFCURVE",
"8 774 OFFCURVE",
"-17 731 CURVE"
);
},
{
closed = 1;
nodes = (
"68 0 LINE",
"298 0 LINE",
"298 33 LINE",
"217 42 LINE",
"217 544 LINE",
"198 553 LINE",
"79 523 LINE",
"79 499 LINE",
"149 474 LINE",
"149 41 LINE",
"68 33 LINE"
);
}
);
width = 333;
}
);
unicode = 0129;
},
{
glyphname = j;
lastChange = "2014-09-10 13:48:40 +0100";
layers = (
{
layerId = "E777F328-EA17-4AE7-9EBA-8002E537BA4F";
name = Light;
paths = (
{
closed = 1;
nodes = (
"194 688 OFFCURVE",
"222 709 OFFCURVE",
"222 743 CURVE SMOOTH",
"222 770 OFFCURVE",
"208 791 OFFCURVE",
"174 791 CURVE SMOOTH",
"146 791 OFFCURVE",
"116 768 OFFCURVE",
"116 735 CURVE SMOOTH",
"116 705 OFFCURVE",
"140 688 OFFCURVE",
"165 688 CURVE SMOOTH"
);
},
{
closed = 1;
nodes = (
"148 -1 LINE SMOOTH",
"148 -156 OFFCURVE",
"112 -198 OFFCURVE",
"49 -198 CURVE SMOOTH",
"38 -198 OFFCURVE",
"6 -197 OFFCURVE",
"-5 -193 CURVE",
"-5 -244 LINE",
"1 -249 OFFCURVE",
"35 -251 OFFCURVE",
"48 -251 CURVE SMOOTH",
"156 -251 OFFCURVE",
"217 -160 OFFCURVE",
"217 -8 CURVE SMOOTH",
"217 544 LINE",
"198 553 LINE",
"74 523 LINE",
"74 499 LINE",
"148 474 LINE"
);
}
);
width = 317;
}
);
leftKerningGroup = i;
unicode = 006A;
},
{
glyphname = jdotless;
lastChange = "2014-09-10 13:48:40 +0100";
layers = (
{
layerId = "E777F328-EA17-4AE7-9EBA-8002E537BA4F";
name = Light;
paths = (
{
closed = 1;
nodes = (
"148 -1 LINE SMOOTH",
"148 -156 OFFCURVE",
"112 -198 OFFCURVE",
"49 -198 CURVE SMOOTH",
"38 -198 OFFCURVE",
"6 -197 OFFCURVE",
"-5 -193 CURVE",
"-5 -244 LINE",
"1 -249 OFFCURVE",
"35 -251 OFFCURVE",
"48 -251 CURVE SMOOTH",
"156 -251 OFFCURVE",
"217 -160 OFFCURVE",
"217 -8 CURVE SMOOTH",
"217 544 LINE",
"198 553 LINE",
"74 523 LINE",
"74 499 LINE",
"148 474 LINE"
);
}
);
width = 317;
}
);
unicode = 0237;
},
{
glyphname = jcircumflex;
lastChange = "2014-09-10 13:48:40 +0100";
layers = (
{
layerId = "E777F328-EA17-4AE7-9EBA-8002E537BA4F";
name = Light;
paths = (
{
closed = 1;
nodes = (
"41 653 LINE",
"182 802 LINE",
"317 653 LINE",
"350 671 LINE",
"217 865 LINE",
"147 865 LINE",
"11 670 LINE"
);
},
{
closed = 1;
nodes = (
"148 -1 LINE SMOOTH",
"148 -156 OFFCURVE",
"112 -198 OFFCURVE",
"49 -198 CURVE SMOOTH",
"38 -198 OFFCURVE",
"6 -197 OFFCURVE",
"-5 -193 CURVE",
"-5 -244 LINE",
"1 -249 OFFCURVE",
"35 -251 OFFCURVE",
"48 -251 CURVE SMOOTH",
"156 -251 OFFCURVE",
"217 -160 OFFCURVE",
"217 -8 CURVE SMOOTH",
"217 544 LINE",
"198 553 LINE",
"74 523 LINE",
"74 499 LINE",
"148 474 LINE"
);
}
);
width = 317;
}
);
unicode = 0135;
},
{
glyphname = k;
lastChange = "2014-09-10 13:48:40 +0100";
layers = (
{
layerId = "E777F328-EA17-4AE7-9EBA-8002E537BA4F";
name = Light;
paths = (
{
closed = 1;
nodes = (
"59 0 LINE",
"285 0 LINE",
"285 33 LINE",
"209 42 LINE",
"209 96 LINE",
"207 211 LINE",
"296 295 LINE",
"479 42 LINE",
"407 33 LINE",
"407 0 LINE",
"630 0 LINE",
"630 33 LINE",
"558 42 LINE",
"339 331 LINE",
"521 505 LINE",
"596 512 LINE",
"596 551 LINE",
"382 551 LINE",
"382 511 LINE",
"455 505 LINE",
"207 264 LINE",
"209 373 LINE",
"209 782 LINE",
"192 792 LINE",
"52 776 LINE",
"52 742 LINE",
"138 730 LINE",
"138 42 LINE",
"59 33 LINE"
);
}
);
width = 622;
}
);
unicode = 006B;
},
{
glyphname = kcommaaccent;
lastChange = "2014-09-10 13:48:40 +0100";
layers = (
{
layerId = "E777F328-EA17-4AE7-9EBA-8002E537BA4F";
name = Light;
paths = (
{
closed = 1;
nodes = (
"59 0 LINE",
"285 0 LINE",
"285 33 LINE",
"209 42 LINE",
"209 96 LINE",
"207 211 LINE",
"296 295 LINE",
"479 42 LINE",
"407 33 LINE",
"407 0 LINE",
"630 0 LINE",
"630 33 LINE",
"558 42 LINE",
"339 331 LINE",
"521 505 LINE",
"596 512 LINE",
"596 551 LINE",
"382 551 LINE",
"382 511 LINE",
"455 505 LINE",
"207 264 LINE",
"209 373 LINE",
"209 782 LINE",
"192 792 LINE",
"52 776 LINE",
"52 742 LINE",
"138 730 LINE",
"138 42 LINE",
"59 33 LINE"
);
},
{
closed = 1;
nodes = (
"292 -73 LINE",
"292 -94 LINE",
"315 -94 OFFCURVE",
"351 -120 OFFCURVE",
"351 -163 CURVE SMOOTH",
"351 -212 OFFCURVE",
"330 -265 OFFCURVE",
"292 -281 CURVE",
"292 -294 LINE",
"312 -313 LINE",
"360 -295 OFFCURVE",
"427 -229 OFFCURVE",
"425 -147 CURVE SMOOTH",
"424 -101 OFFCURVE",
"392 -48 OFFCURVE",
"328 -36 CURVE"
);
}
);
width = 622;
}
);
unicode = 0137;
},
{
glyphname = kgreenlandic;
lastChange = "2014-09-10 13:48:40 +0100";
layers = (
{
layerId = "E777F328-EA17-4AE7-9EBA-8002E537BA4F";
name = Light;
paths = (
{
closed = 1;
nodes = (
"59 0 LINE",
"285 0 LINE",
"285 33 LINE",
"209 42 LINE",
"209 96 LINE",
"207 211 LINE",
"296 295 LINE",
"479 42 LINE",
"407 33 LINE",
"407 0 LINE",
"630 0 LINE",
"630 33 LINE",
"558 42 LINE",
"339 331 LINE",
"521 505 LINE",
"596 512 LINE",
"596 551 LINE",
"382 551 LINE",
"382 511 LINE",
"455 505 LINE",
"207 264 LINE",
"209 344 LINE",
"209 546 LINE",
"192 557 LINE",
"52 541 LINE",
"52 507 LINE",
"138 495 LINE",
"138 42 LINE",
"59 33 LINE"
);
}
);
width = 622;
}
);
unicode = 0138;
},
{
glyphname = l;
lastChange = "2014-09-10 13:48:40 +0100";
layers = (
{
layerId = "E777F328-EA17-4AE7-9EBA-8002E537BA4F";
name = Light;
paths = (
{
closed = 1;
nodes = (
"67 0 LINE",
"305 0 LINE",
"305 33 LINE",
"219 41 LINE",
"219 782 LINE",
"202 792 LINE",
"69 776 LINE",
"69 742 LINE",
"148 730 LINE",
"148 42 LINE",
"67 33 LINE"
);
}
);
width = 341;
}
);
unicode = 006C;
},
{
glyphname = ldot;
lastChange = "2014-09-10 13:48:40 +0100";
layers = (
{
layerId = "E777F328-EA17-4AE7-9EBA-8002E537BA4F";
name = Light;
paths = (
{
closed = 1;
nodes = (
"67 0 LINE",
"305 0 LINE",
"305 33 LINE",
"219 41 LINE",
"219 782 LINE",
"202 792 LINE",
"69 776 LINE",
"69 742 LINE",
"148 730 LINE",
"148 42 LINE",
"67 33 LINE"
);
},
{
closed = 1;
nodes = (
"437 347 OFFCURVE",
"464 364 OFFCURVE",
"468 392 CURVE",
"472 415 OFFCURVE",
"463 436 OFFCURVE",
"435 440 CURVE SMOOTH",
"411 442 OFFCURVE",
"383 425 OFFCURVE",
"379 398 CURVE SMOOTH",
"375 373 OFFCURVE",
"391 354 OFFCURVE",
"412 351 CURVE SMOOTH"
);
}
);
width = 494;
}
);
unicode = 0140;
},
{
glyphname = lslash;
lastChange = "2014-09-10 13:48:40 +0100";
layers = (
{
layerId = "E777F328-EA17-4AE7-9EBA-8002E537BA4F";
name = Light;
paths = (
{
closed = 1;
nodes = (
"67 0 LINE",
"305 0 LINE",
"305 33 LINE",
"219 41 LINE",
"219 417 LINE",
"316 456 LINE",
"316 511 LINE",
"219 470 LINE",
"219 782 LINE",
"202 792 LINE",
"69 776 LINE",
"69 742 LINE",
"148 730 LINE",
"148 441 LINE",
"60 405 LINE",
"60 354 LINE",
"148 389 LINE",
"148 42 LINE",
"67 33 LINE"
);
}
);
width = 341;
}
);
unicode = 0142;
},
{
glyphname = m;
lastChange = "2014-09-10 13:48:40 +0100";
layers = (
{
layerId = "E777F328-EA17-4AE7-9EBA-8002E537BA4F";
name = Light;
paths = (
{
closed = 1;
nodes = (
"68 0 LINE",
"285 0 LINE",
"285 33 LINE",
"208 42 LINE",
"208 116 OFFCURVE",
"208 252 OFFCURVE",
"208 317 CURVE SMOOTH",
"208 443 LINE",
"258 477 OFFCURVE",
"323 501 OFFCURVE",
"371 502 CURVE SMOOTH",
"475 505 OFFCURVE",
"492 450 OFFCURVE",
"492 320 CURVE SMOOTH",
"492 42 LINE",
"417 33 LINE",
"417 0 LINE",
"639 0 LINE",
"639 33 LINE",
"562 42 LINE",
"562 328 LINE SMOOTH",
"562 376 OFFCURVE",
"558 423 OFFCURVE",
"550 455 CURVE",
"593 479 OFFCURVE",
"652 501 OFFCURVE",
"704 503 CURVE SMOOTH",
"811 505 OFFCURVE",
"830 445 OFFCURVE",
"830 311 CURVE SMOOTH",
"830 42 LINE",
"760 33 LINE",
"760 0 LINE",
"982 0 LINE",
"982 33 LINE",
"900 42 LINE",
"900 323 LINE SMOOTH",
"900 497 OFFCURVE",
"859 560 OFFCURVE",
"737 556 CURVE SMOOTH",
"673 554 OFFCURVE",
"581 521 OFFCURVE",
"538 488 CURVE",
"515 537 OFFCURVE",
"475 558 OFFCURVE",
"404 556 CURVE SMOOTH",
"336 555 OFFCURVE",
"245 513 OFFCURVE",
"199 477 CURVE",
"199 544 LINE",
"182 553 LINE",
"65 524 LINE",
"65 499 LINE",
"137 473 LINE",
"137 42 LINE",
"68 33 LINE"
);
}
);
width = 1011;
}
);
leftKerningGroup = n;
unicode = 006D;
},
{
glyphname = n;
lastChange = "2014-09-11 13:24:28 +0100";
layers = (
{
layerId = "E777F328-EA17-4AE7-9EBA-8002E537BA4F";
name = Light;
paths = (
{
closed = 1;
nodes = (
"67 0 LINE",
"285 0 LINE",
"285 33 LINE",
"208 42 LINE",
"208 443 LINE",
"257 477 OFFCURVE",
"323 501 OFFCURVE",
"374 503 CURVE SMOOTH",
"472 507 OFFCURVE",
"501 454 OFFCURVE",
"501 315 CURVE SMOOTH",
"501 42 LINE",
"426 33 LINE",
"426 0 LINE",
"651 0 LINE",
"651 33 LINE",
"572 42 LINE",
"572 324 LINE SMOOTH",
"572 499 OFFCURVE",
"528 562 OFFCURVE",
"405 558 CURVE SMOOTH",
"337 555 OFFCURVE",
"244 512 OFFCURVE",
"199 477 CURVE",
"199 544 LINE",
"181 553 LINE",
"65 523 LINE",
"65 499 LINE",
"137 473 LINE",
"137 42 LINE",
"67 33 LINE"
);
}
);
width = 682;
}
);
leftKerningGroup = n;
unicode = 006E;
},
{
glyphname = nacute;
lastChange = "2014-09-10 13:48:40 +0100";
layers = (
{
layerId = "E777F328-EA17-4AE7-9EBA-8002E537BA4F";
name = Light;
paths = (
{
closed = 1;
nodes = (
"322 656 LINE",
"382 697 OFFCURVE",
"475 764 OFFCURVE",
"506 811 CURVE",
"454 864 LINE",
"301 677 LINE"
);
},
{
closed = 1;
nodes = (
"67 0 LINE",
"285 0 LINE",
"285 33 LINE",
"208 42 LINE",
"208 443 LINE",
"257 477 OFFCURVE",
"323 501 OFFCURVE",
"374 503 CURVE SMOOTH",
"472 507 OFFCURVE",
"501 454 OFFCURVE",
"501 315 CURVE SMOOTH",
"501 42 LINE",
"426 33 LINE",
"426 0 LINE",
"651 0 LINE",
"651 33 LINE",
"572 42 LINE",
"572 324 LINE SMOOTH",
"572 499 OFFCURVE",
"528 562 OFFCURVE",
"405 558 CURVE SMOOTH",
"337 555 OFFCURVE",
"244 512 OFFCURVE",
"199 477 CURVE",
"199 544 LINE",
"181 553 LINE",
"65 523 LINE",
"65 499 LINE",
"137 473 LINE",
"137 42 LINE",
"67 33 LINE"
);
}
);
width = 682;
}
);
unicode = 0144;
},
{
glyphname = ntilde;
lastChange = "2014-09-10 13:48:40 +0100";
layers = (
{
layerId = "E777F328-EA17-4AE7-9EBA-8002E537BA4F";
name = Light;
paths = (
{
closed = 1;
nodes = (
"187 703 LINE",
"208 728 OFFCURVE",
"239 755 OFFCURVE",
"280 755 CURVE SMOOTH",
"330 755 OFFCURVE",
"354 681 OFFCURVE",
"416 681 CURVE SMOOTH",
"469 681 OFFCURVE",
"520 719 OFFCURVE",
"544 761 CURVE",
"524 790 LINE",
"502 765 OFFCURVE",
"471 738 OFFCURVE",
"431 738 CURVE SMOOTH",
"381 738 OFFCURVE",
"358 812 OFFCURVE",
"295 812 CURVE SMOOTH",
"243 812 OFFCURVE",
"191 774 OFFCURVE",
"166 731 CURVE"
);
},
{
closed = 1;
nodes = (
"67 0 LINE",
"285 0 LINE",
"285 33 LINE",
"208 42 LINE",
"208 443 LINE",
"257 477 OFFCURVE",
"323 501 OFFCURVE",
"374 503 CURVE SMOOTH",
"472 507 OFFCURVE",
"501 454 OFFCURVE",
"501 315 CURVE SMOOTH",
"501 42 LINE",
"426 33 LINE",
"426 0 LINE",
"651 0 LINE",
"651 33 LINE",
"572 42 LINE",
"572 324 LINE SMOOTH",
"572 499 OFFCURVE",
"528 562 OFFCURVE",
"405 558 CURVE SMOOTH",
"337 555 OFFCURVE",
"244 512 OFFCURVE",
"199 477 CURVE",
"199 544 LINE",
"181 553 LINE",
"65 523 LINE",
"65 499 LINE",
"137 473 LINE",
"137 42 LINE",
"67 33 LINE"
);
}
);
width = 682;
}
);
unicode = 00F1;
},
{
glyphname = o;
lastChange = "2014-09-10 13:50:38 +0100";
layers = (
{
background = {
paths = (
{
closed = 1;
nodes = (
"49 131 OFFCURVE",
"118 -12 OFFCURVE",
"297 -12 CURVE SMOOTH",
"440 -12 OFFCURVE",
"549 110 OFFCURVE",
"551 282 CURVE SMOOTH",
"551 428 OFFCURVE",
"481 564 OFFCURVE",
"310 563 CURVE SMOOTH",
"173 561 OFFCURVE",
"54 456 OFFCURVE",
"51 284 CURVE SMOOTH"
);
},
{
closed = 1;
nodes = (
"177 33 OFFCURVE",
"126 151 OFFCURVE",
"126 288 CURVE SMOOTH",
"126 436 OFFCURVE",
"192 524 OFFCURVE",
"305 522 CURVE SMOOTH",
"428 520 OFFCURVE",
"476 409 OFFCURVE",
"476 277 CURVE SMOOTH",
"476 116 OFFCURVE",
"414 28 OFFCURVE",
"301 31 CURVE SMOOTH"
);
}
);
};
layerId = "E777F328-EA17-4AE7-9EBA-8002E537BA4F";
name = Light;
paths = (
{
closed = 1;
nodes = (
"51 127 OFFCURVE",
"121 -12 OFFCURVE",
"297 -12 CURVE SMOOTH",
"440 -12 OFFCURVE",
"549 110 OFFCURVE",
"551 282 CURVE SMOOTH",
"551 427 OFFCURVE",
"482 563 OFFCURVE",
"312 563 CURVE SMOOTH",
"173 563 OFFCURVE",
"51 454 OFFCURVE",
"51 278 CURVE SMOOTH"
);
},
{
closed = 1;
nodes = (
"178 31 OFFCURVE",
"126 149 OFFCURVE",
"126 288 CURVE SMOOTH",
"126 434 OFFCURVE",
"191 522 OFFCURVE",
"301 522 CURVE SMOOTH",
"427 522 OFFCURVE",
"476 411 OFFCURVE",
"476 277 CURVE SMOOTH",
"476 119 OFFCURVE",
"416 31 OFFCURVE",
"307 31 CURVE SMOOTH"
);
}
);
width = 601;
}
);
leftKerningGroup = o;
unicode = 006F;
},
{
glyphname = oacute;
lastChange = "2014-09-10 13:48:40 +0100";
layers = (
{
layerId = "E777F328-EA17-4AE7-9EBA-8002E537BA4F";
name = Light;
paths = (
{
closed = 1;
nodes = (
"270 656 LINE",
"330 697 OFFCURVE",
"422 764 OFFCURVE",
"454 811 CURVE",
"402 864 LINE",
"249 677 LINE"
);
},
{
closed = 1;
nodes = (
"49 131 OFFCURVE",
"118 -12 OFFCURVE",
"297 -12 CURVE SMOOTH",
"440 -12 OFFCURVE",
"549 110 OFFCURVE",
"551 282 CURVE SMOOTH",
"551 428 OFFCURVE",
"481 564 OFFCURVE",
"310 563 CURVE SMOOTH",
"173 561 OFFCURVE",
"54 456 OFFCURVE",
"51 284 CURVE SMOOTH"
);
},
{
closed = 1;
nodes = (
"177 33 OFFCURVE",
"126 151 OFFCURVE",
"126 288 CURVE SMOOTH",
"126 436 OFFCURVE",
"192 524 OFFCURVE",
"305 522 CURVE SMOOTH",
"428 520 OFFCURVE",
"476 409 OFFCURVE",
"476 277 CURVE SMOOTH",
"476 116 OFFCURVE",
"414 28 OFFCURVE",
"301 31 CURVE SMOOTH"
);
}
);
width = 601;
}
);
unicode = 00F3;
},
{
glyphname = ocircumflex;
lastChange = "2014-09-10 13:48:40 +0100";
layers = (
{
layerId = "E777F328-EA17-4AE7-9EBA-8002E537BA4F";
name = Light;
paths = (
{
closed = 1;
nodes = (
"165 653 LINE",
"307 802 LINE",
"442 653 LINE",
"475 671 LINE",
"342 865 LINE",
"272 865 LINE",
"135 670 LINE"
);
},
{
closed = 1;
nodes = (
"49 131 OFFCURVE",
"118 -12 OFFCURVE",
"297 -12 CURVE SMOOTH",
"440 -12 OFFCURVE",
"549 110 OFFCURVE",
"551 282 CURVE SMOOTH",
"551 428 OFFCURVE",
"481 564 OFFCURVE",
"310 563 CURVE SMOOTH",
"173 561 OFFCURVE",
"54 456 OFFCURVE",
"51 284 CURVE SMOOTH"
);
},
{
closed = 1;
nodes = (
"177 33 OFFCURVE",
"126 151 OFFCURVE",
"126 288 CURVE SMOOTH",
"126 436 OFFCURVE",
"192 524 OFFCURVE",
"305 522 CURVE SMOOTH",
"428 520 OFFCURVE",
"476 409 OFFCURVE",
"476 277 CURVE SMOOTH",
"476 116 OFFCURVE",
"414 28 OFFCURVE",
"301 31 CURVE SMOOTH"
);
}
);
width = 601;
}
);
unicode = 00F4;
},
{
glyphname = odieresis;
lastChange = "2014-09-10 13:48:40 +0100";
layers = (
{
layerId = "E777F328-EA17-4AE7-9EBA-8002E537BA4F";
name = Light;
paths = (
{
closed = 1;
nodes = (
"441 696 OFFCURVE",
"469 716 OFFCURVE",
"469 749 CURVE SMOOTH",
"469 774 OFFCURVE",
"454 795 OFFCURVE",
"421 795 CURVE SMOOTH",
"393 795 OFFCURVE",
"364 771 OFFCURVE",
"364 741 CURVE SMOOTH",
"364 712 OFFCURVE",
"387 696 OFFCURVE",
"412 696 CURVE SMOOTH"
);
},
{
closed = 1;
nodes = (
"219 696 OFFCURVE",
"247 716 OFFCURVE",
"247 749 CURVE SMOOTH",
"247 774 OFFCURVE",
"232 795 OFFCURVE",
"199 795 CURVE SMOOTH",
"171 795 OFFCURVE",
"142 771 OFFCURVE",
"142 741 CURVE SMOOTH",
"142 712 OFFCURVE",
"165 696 OFFCURVE",
"189 696 CURVE SMOOTH"
);
},
{
closed = 1;
nodes = (
"49 131 OFFCURVE",
"118 -12 OFFCURVE",
"297 -12 CURVE SMOOTH",
"440 -12 OFFCURVE",
"549 110 OFFCURVE",
"551 282 CURVE SMOOTH",
"551 428 OFFCURVE",
"481 564 OFFCURVE",
"310 563 CURVE SMOOTH",
"173 561 OFFCURVE",
"54 456 OFFCURVE",
"51 284 CURVE SMOOTH"
);
},
{
closed = 1;
nodes = (
"177 33 OFFCURVE",
"126 151 OFFCURVE",
"126 288 CURVE SMOOTH",
"126 436 OFFCURVE",
"192 524 OFFCURVE",
"305 522 CURVE SMOOTH",
"428 520 OFFCURVE",
"476 409 OFFCURVE",
"476 277 CURVE SMOOTH",
"476 116 OFFCURVE",
"414 28 OFFCURVE",
"301 31 CURVE SMOOTH"
);
}
);
width = 601;
}
);
unicode = 00F6;
},
{
glyphname = ograve;
lastChange = "2014-09-10 13:48:40 +0100";
layers = (
{
layerId = "E777F328-EA17-4AE7-9EBA-8002E537BA4F";
name = Light;
paths = (
{
closed = 1;
nodes = (
"376 677 LINE",
"223 864 LINE",
"171 811 LINE",
"204 761 OFFCURVE",
"296 697 OFFCURVE",
"355 656 CURVE"
);
},
{
closed = 1;
nodes = (
"49 131 OFFCURVE",
"118 -12 OFFCURVE",
"297 -12 CURVE SMOOTH",
"440 -12 OFFCURVE",
"549 110 OFFCURVE",
"551 282 CURVE SMOOTH",
"551 428 OFFCURVE",
"481 564 OFFCURVE",
"310 563 CURVE SMOOTH",
"173 561 OFFCURVE",
"54 456 OFFCURVE",
"51 284 CURVE SMOOTH"
);
},
{
closed = 1;
nodes = (
"177 33 OFFCURVE",
"126 151 OFFCURVE",
"126 288 CURVE SMOOTH",
"126 436 OFFCURVE",
"192 524 OFFCURVE",
"305 522 CURVE SMOOTH",
"428 520 OFFCURVE",
"476 409 OFFCURVE",
"476 277 CURVE SMOOTH",
"476 116 OFFCURVE",
"414 28 OFFCURVE",
"301 31 CURVE SMOOTH"
);
}
);
width = 601;
}
);
unicode = 00F2;
},
{
glyphname = oslash;
lastChange = "2014-09-10 13:48:40 +0100";
layers = (
{
layerId = "E777F328-EA17-4AE7-9EBA-8002E537BA4F";
name = Light;
paths = (
{
closed = 1;
nodes = (
"165 -81 LINE",
"199 -94 LINE",
"229 -4 LINE",
"250 -9 OFFCURVE",
"272 -12 OFFCURVE",
"297 -12 CURVE SMOOTH",
"440 -12 OFFCURVE",
"549 110 OFFCURVE",
"551 282 CURVE SMOOTH",
"551 393 OFFCURVE",
"511 499 OFFCURVE",
"416 542 CURVE",
"443 623 LINE",
"411 635 LINE",
"383 553 LINE",
"362 560 OFFCURVE",
"337 563 OFFCURVE",
"310 563 CURVE SMOOTH",
"173 561 OFFCURVE",
"54 456 OFFCURVE",
"51 284 CURVE SMOOTH",
"50 165 OFFCURVE",
"91 50 OFFCURVE",
"195 7 CURVE"
);
},
{
closed = 1;
nodes = (
"214 58 LINE",
"152 101 OFFCURVE",
"126 189 OFFCURVE",
"126 288 CURVE SMOOTH",
"126 436 OFFCURVE",
"192 524 OFFCURVE",
"305 522 CURVE SMOOTH",
"328 522 OFFCURVE",
"349 518 OFFCURVE",
"367 510 CURVE"
);
},
{
closed = 1;
nodes = (
"397 493 LINE",
"453 451 OFFCURVE",
"476 368 OFFCURVE",
"476 277 CURVE SMOOTH",
"476 116 OFFCURVE",
"414 28 OFFCURVE",
"301 31 CURVE SMOOTH",
"281 31 OFFCURVE",
"262 35 OFFCURVE",
"246 41 CURVE"
);
}
);
width = 601;
}
);
unicode = 00F8;
},
{
glyphname = otilde;
lastChange = "2014-09-10 13:48:40 +0100";
layers = (
{
layerId = "E777F328-EA17-4AE7-9EBA-8002E537BA4F";
name = Light;
paths = (
{
closed = 1;
nodes = (
"134 703 LINE",
"155 728 OFFCURVE",
"187 755 OFFCURVE",
"228 755 CURVE SMOOTH",
"278 755 OFFCURVE",
"301 681 OFFCURVE",
"364 681 CURVE SMOOTH",
"417 681 OFFCURVE",
"468 719 OFFCURVE",
"492 761 CURVE",
"472 790 LINE",
"450 765 OFFCURVE",
"419 738 OFFCURVE",
"378 738 CURVE SMOOTH",
"329 738 OFFCURVE",
"306 812 OFFCURVE",
"243 812 CURVE SMOOTH",
"191 812 OFFCURVE",
"139 774 OFFCURVE",
"113 731 CURVE"
);
},
{
closed = 1;
nodes = (
"49 131 OFFCURVE",
"118 -12 OFFCURVE",
"297 -12 CURVE SMOOTH",
"440 -12 OFFCURVE",
"549 110 OFFCURVE",
"551 282 CURVE SMOOTH",
"551 428 OFFCURVE",
"481 564 OFFCURVE",
"310 563 CURVE SMOOTH",
"173 561 OFFCURVE",
"54 456 OFFCURVE",
"51 284 CURVE SMOOTH"
);
},
{
closed = 1;
nodes = (
"177 33 OFFCURVE",
"126 151 OFFCURVE",
"126 288 CURVE SMOOTH",
"126 436 OFFCURVE",
"192 524 OFFCURVE",
"305 522 CURVE SMOOTH",
"428 520 OFFCURVE",
"476 409 OFFCURVE",
"476 277 CURVE SMOOTH",
"476 116 OFFCURVE",
"414 28 OFFCURVE",
"301 31 CURVE SMOOTH"
);
}
);
width = 601;
}
);
unicode = 00F5;
},
{
glyphname = oe;
lastChange = "2014-09-10 13:48:40 +0100";
layers = (
{
layerId = "E777F328-EA17-4AE7-9EBA-8002E537BA4F";
name = Light;
paths = (
{
closed = 1;
nodes = (
"49 131 OFFCURVE",
"118 -12 OFFCURVE",
"297 -12 CURVE SMOOTH",
"396 -12 OFFCURVE",
"479 45 OFFCURVE",
"520 137 CURVE",
"555 43 OFFCURVE",
"629 -12 OFFCURVE",
"741 -12 CURVE SMOOTH",
"815 -12 OFFCURVE",
"903 9 OFFCURVE",
"941 43 CURVE",
"926 77 LINE",
"898 58 OFFCURVE",
"829 39 OFFCURVE",
"767 39 CURVE SMOOTH",
"658 39 OFFCURVE",
"567 112 OFFCURVE",
"570 275 CURVE SMOOTH",
"570 280 LINE",
"950 280 LINE",
"952 301 OFFCURVE",
"956 326 OFFCURVE",
"954 359 CURVE SMOOTH",
"952 489 OFFCURVE",
"878 564 OFFCURVE",
"767 563 CURVE SMOOTH",
"659 560 OFFCURVE",
"573 503 OFFCURVE",
"529 413 CURVE",
"497 500 OFFCURVE",
"427 564 OFFCURVE",
"310 563 CURVE SMOOTH",
"173 561 OFFCURVE",
"54 456 OFFCURVE",
"51 284 CURVE SMOOTH"
);
},
{
closed = 1;
nodes = (
"177 33 OFFCURVE",
"126 151 OFFCURVE",
"126 288 CURVE SMOOTH",
"126 436 OFFCURVE",
"192 524 OFFCURVE",
"305 522 CURVE SMOOTH",
"428 520 OFFCURVE",
"476 409 OFFCURVE",
"476 277 CURVE SMOOTH",
"476 116 OFFCURVE",
"414 28 OFFCURVE",
"301 31 CURVE SMOOTH"
);
},
{
closed = 1;
nodes = (
"572 324 LINE",
"585 456 OFFCURVE",
"658 522 OFFCURVE",
"748 522 CURVE SMOOTH",
"773 522 OFFCURVE",
"796 517 OFFCURVE",
"814 507 CURVE SMOOTH",
"870 477 OFFCURVE",
"885 406 OFFCURVE",
"880 324 CURVE"
);
}
);
width = 1006;
}
);
unicode = 0153;
},
{
glyphname = p;
lastChange = "2014-09-10 13:48:40 +0100";
layers = (
{
layerId = "E777F328-EA17-4AE7-9EBA-8002E537BA4F";
name = Light;
paths = (
{
closed = 1;
nodes = (
"203 11 LINE",
"238 -5 OFFCURVE",
"277 -12 OFFCURVE",
"318 -12 CURVE SMOOTH",
"482 -12 OFFCURVE",
"594 123 OFFCURVE",
"594 291 CURVE SMOOTH",
"594 488 OFFCURVE",
"488 563 OFFCURVE",
"379 563 CURVE SMOOTH",
"299 563 OFFCURVE",
"231 523 OFFCURVE",
"197 489 CURVE",
"197 543 LINE",
"178 553 LINE",
"63 523 LINE",
"63 499 LINE",
"134 473 LINE",
"134 -207 LINE",
"59 -217 LINE",
"59 -250 LINE",
"317 -250 LINE",
"317 -217 LINE",
"205 -208 LINE",
"205 -127 LINE"
);
},
{
closed = 1;
nodes = (
"205 263 LINE",
"204 455 LINE",
"227 475 OFFCURVE",
"275 514 OFFCURVE",
"351 514 CURVE SMOOTH",
"444 514 OFFCURVE",
"525 445 OFFCURVE",
"524 283 CURVE SMOOTH",
"522 104 OFFCURVE",
"424 28 OFFCURVE",
"323 28 CURVE SMOOTH",
"264 29 OFFCURVE",
"220 48 OFFCURVE",
"205 74 CURVE"
);
}
);
width = 646;
}
);
leftKerningGroup = n;
unicode = 0070;
},
{
glyphname = thorn;
lastChange = "2014-09-10 13:48:40 +0100";
layers = (
{
layerId = "E777F328-EA17-4AE7-9EBA-8002E537BA4F";
name = Light;
paths = (
{
closed = 1;
nodes = (
"107 24 LINE SMOOTH",
"107 -26 OFFCURVE",
"107 -144 OFFCURVE",
"107 -207 CURVE",
"32 -217 LINE",
"32 -250 LINE",
"290 -250 LINE",
"290 -217 LINE",
"177 -208 LINE",
"177 -49 LINE",
"175 -1 LINE",
"208 -8 OFFCURVE",
"248 -14 OFFCURVE",
"292 -14 CURVE SMOOTH",
"456 -14 OFFCURVE",
"568 124 OFFCURVE",
"568 295 CURVE SMOOTH",
"568 490 OFFCURVE",
"461 563 OFFCURVE",
"350 563 CURVE SMOOTH",
"274 563 OFFCURVE",
"216 529 OFFCURVE",
"178 498 CURVE",
"178 784 LINE",
"161 792 LINE",
"24 778 LINE",
"24 745 LINE",
"107 732 LINE"
);
},
{
closed = 1;
nodes = (
"178 458 LINE",
"209 488 OFFCURVE",
"267 511 OFFCURVE",
"322 511 CURVE SMOOTH",
"414 511 OFFCURVE",
"499 450 OFFCURVE",
"498 278 CURVE SMOOTH",
"496 108 OFFCURVE",
"399 27 OFFCURVE",
"300 27 CURVE SMOOTH",
"244 27 OFFCURVE",
"188 38 OFFCURVE",
"178 65 CURVE"
);
}
);
width = 620;
}
);
unicode = 00FE;
},
{
glyphname = q;
lastChange = "2014-09-10 13:48:40 +0100";
layers = (
{
layerId = "E777F328-EA17-4AE7-9EBA-8002E537BA4F";
name = Light;
paths = (
{
closed = 1;
nodes = (
"362 -14 OFFCURVE",
"417 28 OFFCURVE",
"443 50 CURVE",
"441 -23 LINE",
"441 -204 LINE",
"332 -213 LINE",
"332 -250 LINE",
"583 -250 LINE",
"583 -213 LINE",
"512 -205 LINE",
"512 547 LINE",
"494 555 LINE",
"452 539 LINE",
"422 554 OFFCURVE",
"379 563 OFFCURVE",
"336 563 CURVE SMOOTH",
"170 563 OFFCURVE",
"51 433 OFFCURVE",
"51 265 CURVE SMOOTH",
"51 28 OFFCURVE",
"190 -14 OFFCURVE",
"266 -14 CURVE SMOOTH"
);
},
{
closed = 1;
nodes = (
"188 38 OFFCURVE",
"118 121 OFFCURVE",
"121 276 CURVE SMOOTH",
"123 446 OFFCURVE",
"224 522 OFFCURVE",
"324 522 CURVE SMOOTH",
"367 522 OFFCURVE",
"410 515 OFFCURVE",
"441 482 CURVE",
"441 90 LINE",
"419 68 OFFCURVE",
"372 38 OFFCURVE",
"291 38 CURVE SMOOTH"
);
}
);
width = 606;
}
);
unicode = 0071;
},
{
glyphname = r;
lastChange = "2014-09-10 13:48:40 +0100";
layers = (
{
layerId = "E777F328-EA17-4AE7-9EBA-8002E537BA4F";
name = Light;
paths = (
{
closed = 1;
nodes = (
"52 0 LINE",
"356 0 LINE",
"356 33 LINE",
"208 42 LINE",
"208 447 LINE",
"238 466 OFFCURVE",
"291 491 OFFCURVE",
"353 491 CURVE SMOOTH",
"393 491 OFFCURVE",
"413 485 OFFCURVE",
"431 478 CURVE",
"431 553 LINE",
"423 555 OFFCURVE",
"404 556 OFFCURVE",
"382 556 CURVE SMOOTH",
"317 556 OFFCURVE",
"227 510 OFFCURVE",
"200 476 CURVE",
"200 544 LINE",
"181 553 LINE",
"66 523 LINE",
"66 499 LINE",
"138 473 LINE",
"138 42 LINE",
"52 33 LINE"
);
}
);
width = 451;
}
);
leftKerningGroup = n;
unicode = 0072;
},
{
glyphname = rcaron;
lastChange = "2014-09-10 13:48:40 +0100";
layers = (
{
layerId = "E777F328-EA17-4AE7-9EBA-8002E537BA4F";
name = Light;
paths = (
{
closed = 1;
nodes = (
"231 653 LINE",
"301 653 LINE",
"435 847 LINE",
"405 865 LINE",
"267 715 LINE",
"128 865 LINE",
"95 847 LINE"
);
},
{
closed = 1;
nodes = (
"52 0 LINE",
"356 0 LINE",
"356 33 LINE",
"208 42 LINE",
"208 447 LINE",
"238 466 OFFCURVE",
"291 491 OFFCURVE",
"353 491 CURVE SMOOTH",
"393 491 OFFCURVE",
"413 485 OFFCURVE",
"431 478 CURVE",
"431 553 LINE",
"423 555 OFFCURVE",
"404 556 OFFCURVE",
"382 556 CURVE SMOOTH",
"317 556 OFFCURVE",
"227 510 OFFCURVE",
"200 476 CURVE",
"200 544 LINE",
"181 553 LINE",
"66 523 LINE",
"66 499 LINE",
"138 473 LINE",
"138 42 LINE",
"52 33 LINE"
);
}
);
width = 451;
}
);
unicode = 0159;
},
{
glyphname = rcommaaccent;
lastChange = "2014-09-10 13:48:40 +0100";
layers = (
{
layerId = "E777F328-EA17-4AE7-9EBA-8002E537BA4F";
name = Light;
paths = (
{
closed = 1;
nodes = (
"52 0 LINE",
"356 0 LINE",
"356 33 LINE",
"208 42 LINE",
"208 447 LINE",
"238 466 OFFCURVE",
"291 491 OFFCURVE",
"353 491 CURVE SMOOTH",
"393 491 OFFCURVE",
"413 485 OFFCURVE",
"431 478 CURVE",
"431 553 LINE",
"423 555 OFFCURVE",
"404 556 OFFCURVE",
"382 556 CURVE SMOOTH",
"317 556 OFFCURVE",
"227 510 OFFCURVE",
"200 476 CURVE",
"200 544 LINE",
"181 553 LINE",
"66 523 LINE",
"66 499 LINE",
"138 473 LINE",
"138 42 LINE",
"52 33 LINE"
);
},
{
closed = 1;
nodes = (
"128 -73 LINE",
"128 -94 LINE",
"151 -94 OFFCURVE",
"187 -120 OFFCURVE",
"187 -163 CURVE SMOOTH",
"187 -212 OFFCURVE",
"166 -265 OFFCURVE",
"127 -281 CURVE",
"127 -294 LINE",
"147 -313 LINE",
"195 -296 OFFCURVE",
"262 -229 OFFCURVE",
"261 -147 CURVE",
"261 -101 OFFCURVE",
"227 -48 OFFCURVE",
"163 -36 CURVE"
);
}
);
width = 451;
}
);
unicode = 0157;
},
{
glyphname = s;
lastChange = "2014-09-10 13:50:45 +0100";
layers = (
{
layerId = "E777F328-EA17-4AE7-9EBA-8002E537BA4F";
name = Light;
paths = (
{
closed = 1;
nodes = (
"78 30 LINE",
"127 2 OFFCURVE",
"189 -12 OFFCURVE",
"248 -12 CURVE SMOOTH",
"367 -12 OFFCURVE",
"456 42 OFFCURVE",
"456 146 CURVE SMOOTH",
"456 244 OFFCURVE",
"362 275 OFFCURVE",
"290 308 CURVE SMOOTH",
"216 343 OFFCURVE",
"151 367 OFFCURVE",
"153 431 CURVE SMOOTH",
"154 486 OFFCURVE",
"200 524 OFFCURVE",
"279 524 CURVE SMOOTH",
"322 524 OFFCURVE",
"358 510 OFFCURVE",
"379 490 CURVE",
"396 429 LINE",
"429 429 LINE",
"429 527 LINE",
"402 544 OFFCURVE",
"340 564 OFFCURVE",
"276 563 CURVE SMOOTH",
"189 560 OFFCURVE",
"86 517 OFFCURVE",
"85 418 CURVE SMOOTH",
"83 332 OFFCURVE",
"159 290 OFFCURVE",
"237 255 CURVE SMOOTH",
"310 222 OFFCURVE",
"388 200 OFFCURVE",
"388 130 CURVE SMOOTH",
"388 57 OFFCURVE",
"326 27 OFFCURVE",
"247 30 CURVE SMOOTH",
"202 32 OFFCURVE",
"162 42 OFFCURVE",
"128 70 CURVE",
"113 136 LINE",
"78 136 LINE"
);
}
);
width = 512;
}
);
leftKerningGroup = s;
unicode = 0073;
},
{
glyphname = scaron;
lastChange = "2014-09-10 13:48:40 +0100";
layers = (
{
layerId = "E777F328-EA17-4AE7-9EBA-8002E537BA4F";
name = Light;
paths = (
{
closed = 1;
nodes = (
"224 653 LINE",
"293 653 LINE",
"427 847 LINE",
"397 865 LINE",
"259 715 LINE",
"120 865 LINE",
"87 847 LINE"
);
},
{
closed = 1;
nodes = (
"77 30 LINE",
"126 2 OFFCURVE",
"188 -12 OFFCURVE",
"247 -12 CURVE SMOOTH",
"366 -12 OFFCURVE",
"454 42 OFFCURVE",
"454 146 CURVE SMOOTH",
"454 243 OFFCURVE",
"361 275 OFFCURVE",
"288 308 CURVE SMOOTH",
"213 343 OFFCURVE",
"150 367 OFFCURVE",
"151 431 CURVE SMOOTH",
"153 486 OFFCURVE",
"198 524 OFFCURVE",
"277 524 CURVE SMOOTH",
"320 524 OFFCURVE",
"356 510 OFFCURVE",
"377 490 CURVE",
"394 429 LINE",
"427 429 LINE",
"427 527 LINE",
"400 545 OFFCURVE",
"338 564 OFFCURVE",
"274 563 CURVE SMOOTH",
"188 560 OFFCURVE",
"85 517 OFFCURVE",
"83 418 CURVE SMOOTH",
"82 332 OFFCURVE",
"157 290 OFFCURVE",
"235 255 CURVE SMOOTH",
"308 222 OFFCURVE",
"387 200 OFFCURVE",
"387 130 CURVE SMOOTH",
"387 57 OFFCURVE",
"325 27 OFFCURVE",
"245 30 CURVE SMOOTH",
"201 32 OFFCURVE",
"160 42 OFFCURVE",
"127 70 CURVE",
"111 136 LINE",
"77 136 LINE"
);
}
);
width = 502;
}
);
unicode = 0161;
},
{
glyphname = germandbls;
lastChange = "2014-09-10 13:48:40 +0100";
layers = (
{
layerId = "E777F328-EA17-4AE7-9EBA-8002E537BA4F";
name = Light;
paths = (
{
closed = 1;
nodes = (
"33 0 LINE",
"180 0 LINE",
"180 426 LINE SMOOTH",
"180 654 OFFCURVE",
"248 725 OFFCURVE",
"355 725 CURVE SMOOTH",
"427 725 OFFCURVE",
"462 672 OFFCURVE",
"462 604 CURVE SMOOTH",
"462 510 OFFCURVE",
"361 441 OFFCURVE",
"361 367 CURVE SMOOTH",
"361 249 OFFCURVE",
"572 255 OFFCURVE",
"572 137 CURVE SMOOTH",
"572 59 OFFCURVE",
"512 33 OFFCURVE",
"443 33 CURVE SMOOTH",
"405 33 OFFCURVE",
"354 51 OFFCURVE",
"329 64 CURVE",
"329 -1 LINE",
"368 -10 OFFCURVE",
"408 -10 OFFCURVE",
"437 -10 CURVE SMOOTH",
"544 -10 OFFCURVE",
"639 37 OFFCURVE",
"639 151 CURVE SMOOTH",
"639 308 OFFCURVE",
"428 292 OFFCURVE",
"428 394 CURVE SMOOTH",
"428 484 OFFCURVE",
"526 511 OFFCURVE",
"526 629 CURVE SMOOTH",
"526 740 OFFCURVE",
"444 770 OFFCURVE",
"374 770 CURVE SMOOTH",
"237 770 OFFCURVE",
"109 665 OFFCURVE",
"109 426 CURVE SMOOTH",
"109 45 LINE",
"33 33 LINE"
);
}
);
width = 651;
}
);
unicode = 00DF;
},
{
glyphname = t;
lastChange = "2014-09-10 13:51:00 +0100";
layers = (
{
layerId = "E777F328-EA17-4AE7-9EBA-8002E537BA4F";
name = Light;
paths = (
{
closed = 1;
nodes = (
"133 125 LINE SMOOTH",
"133 25 OFFCURVE",
"170 -12 OFFCURVE",
"241 -12 CURVE SMOOTH",
"286 -12 OFFCURVE",
"361 5 OFFCURVE",
"390 37 CURVE",
"378 72 LINE",
"362 61 OFFCURVE",
"313 40 OFFCURVE",
"267 40 CURVE SMOOTH",
"210 40 OFFCURVE",
"202 72 OFFCURVE",
"202 204 CURVE SMOOTH",
"202 498 LINE",
"385 498 LINE",
"385 545 LINE",
"202 545 LINE",
"202 677 LINE",
"165 677 LINE",
"163 650 OFFCURVE",
"149 578 OFFCURVE",
"141 561 CURVE",
"126 536 OFFCURVE",
"110 538 OFFCURVE",
"55 527 CURVE",
"55 498 LINE",
"133 498 LINE"
);
}
);
width = 421;
}
);
leftKerningGroup = t;
unicode = 0074;
},
{
glyphname = u;
lastChange = "2014-09-10 13:51:26 +0100";
layers = (
{
layerId = "E777F328-EA17-4AE7-9EBA-8002E537BA4F";
name = Light;
paths = (
{
closed = 1;
nodes = (
"104 225 LINE SMOOTH",
"104 90 OFFCURVE",
"110 -10 OFFCURVE",
"263 -10 CURVE SMOOTH",
"330 -10 OFFCURVE",
"396 17 OFFCURVE",
"460 69 CURVE",
"460 25 LINE SMOOTH",
"460 0 OFFCURVE",
"476 -12 OFFCURVE",
"505 -12 CURVE SMOOTH",
"529 -12 OFFCURVE",
"566 -3 OFFCURVE",
"584 5 CURVE",
"584 35 LINE",
"523 35 LINE",
"523 547 LINE",
"509 556 LINE",
"392 534 LINE",
"392 502 LINE",
"453 492 LINE",
"453 107 LINE",
"434 89 OFFCURVE",
"366 41 OFFCURVE",
"291 41 CURVE SMOOTH",
"192 41 OFFCURVE",
"174 92 OFFCURVE",
"174 211 CURVE SMOOTH",
"174 547 LINE",
"159 556 LINE",
"54 536 LINE",
"54 506 LINE",
"104 497 LINE"
);
}
);
width = 631;
}
);
leftKerningGroup = u;
unicode = 0075;
},
{
glyphname = uacute;
lastChange = "2014-09-10 13:48:40 +0100";
layers = (
{
layerId = "E777F328-EA17-4AE7-9EBA-8002E537BA4F";
name = Light;
paths = (
{
closed = 1;
nodes = (
"265 656 LINE",
"325 696 OFFCURVE",
"417 764 OFFCURVE",
"449 811 CURVE",
"396 864 LINE",
"244 677 LINE"
);
},
{
closed = 1;
nodes = (
"104 225 LINE SMOOTH",
"104 90 OFFCURVE",
"110 -10 OFFCURVE",
"263 -10 CURVE SMOOTH",
"330 -10 OFFCURVE",
"396 17 OFFCURVE",
"460 69 CURVE",
"460 25 LINE SMOOTH",
"460 0 OFFCURVE",
"476 -12 OFFCURVE",
"505 -12 CURVE SMOOTH",
"529 -12 OFFCURVE",
"566 -3 OFFCURVE",
"584 5 CURVE",
"584 35 LINE",
"523 35 LINE",
"523 547 LINE",
"509 556 LINE",
"392 534 LINE",
"392 502 LINE",
"453 492 LINE",
"453 107 LINE",
"434 89 OFFCURVE",
"366 41 OFFCURVE",
"291 41 CURVE SMOOTH",
"192 41 OFFCURVE",
"174 92 OFFCURVE",
"174 211 CURVE SMOOTH",
"174 547 LINE",
"159 556 LINE",
"54 536 LINE",
"54 506 LINE",
"104 497 LINE"
);
}
);
width = 631;
}
);
unicode = 00FA;
},
{
glyphname = ucircumflex;
lastChange = "2014-09-10 13:48:40 +0100";
layers = (
{
layerId = "E777F328-EA17-4AE7-9EBA-8002E537BA4F";
name = Light;
paths = (
{
closed = 1;
nodes = (
"160 653 LINE",
"302 802 LINE",
"437 653 LINE",
"470 671 LINE",
"337 865 LINE",
"268 865 LINE",
"130 670 LINE"
);
},
{
closed = 1;
nodes = (
"104 225 LINE SMOOTH",
"104 90 OFFCURVE",
"110 -10 OFFCURVE",
"263 -10 CURVE SMOOTH",
"330 -10 OFFCURVE",
"396 17 OFFCURVE",
"460 69 CURVE",
"460 25 LINE SMOOTH",
"460 0 OFFCURVE",
"476 -12 OFFCURVE",
"505 -12 CURVE SMOOTH",
"529 -12 OFFCURVE",
"566 -3 OFFCURVE",
"584 5 CURVE",
"584 35 LINE",
"523 35 LINE",
"523 547 LINE",
"509 556 LINE",
"392 534 LINE",
"392 502 LINE",
"453 492 LINE",
"453 107 LINE",
"434 89 OFFCURVE",
"366 41 OFFCURVE",
"291 41 CURVE SMOOTH",
"192 41 OFFCURVE",
"174 92 OFFCURVE",
"174 211 CURVE SMOOTH",
"174 547 LINE",
"159 556 LINE",
"54 536 LINE",
"54 506 LINE",
"104 497 LINE"
);
}
);
width = 631;
}
);
unicode = 00FB;
},
{
glyphname = udieresis;
lastChange = "2014-09-10 13:48:40 +0100";
layers = (
{
layerId = "E777F328-EA17-4AE7-9EBA-8002E537BA4F";
name = Light;
paths = (
{
closed = 1;
nodes = (
"436 696 OFFCURVE",
"464 716 OFFCURVE",
"464 749 CURVE SMOOTH",
"464 774 OFFCURVE",
"449 795 OFFCURVE",
"416 795 CURVE SMOOTH",
"388 795 OFFCURVE",
"359 771 OFFCURVE",
"359 741 CURVE SMOOTH",
"359 712 OFFCURVE",
"381 696 OFFCURVE",
"407 696 CURVE SMOOTH"
);
},
{
closed = 1;
nodes = (
"213 696 OFFCURVE",
"242 716 OFFCURVE",
"242 749 CURVE SMOOTH",
"242 774 OFFCURVE",
"227 795 OFFCURVE",
"193 795 CURVE SMOOTH",
"166 795 OFFCURVE",
"137 771 OFFCURVE",
"137 741 CURVE SMOOTH",
"137 712 OFFCURVE",
"159 696 OFFCURVE",
"185 696 CURVE SMOOTH"
);
},
{
closed = 1;
nodes = (
"104 225 LINE SMOOTH",
"104 90 OFFCURVE",
"110 -10 OFFCURVE",
"263 -10 CURVE SMOOTH",
"330 -10 OFFCURVE",
"396 17 OFFCURVE",
"460 69 CURVE",
"460 25 LINE SMOOTH",
"460 0 OFFCURVE",
"476 -12 OFFCURVE",
"505 -12 CURVE SMOOTH",
"529 -12 OFFCURVE",
"566 -3 OFFCURVE",
"584 5 CURVE",
"584 35 LINE",
"523 35 LINE",
"523 547 LINE",
"509 556 LINE",
"392 534 LINE",
"392 502 LINE",
"453 492 LINE",
"453 107 LINE",
"434 89 OFFCURVE",
"366 41 OFFCURVE",
"291 41 CURVE SMOOTH",
"192 41 OFFCURVE",
"174 92 OFFCURVE",
"174 211 CURVE SMOOTH",
"174 547 LINE",
"159 556 LINE",
"54 536 LINE",
"54 506 LINE",
"104 497 LINE"
);
}
);
width = 631;
}
);
unicode = 00FC;
},
{
glyphname = ugrave;
lastChange = "2014-09-10 13:48:40 +0100";
layers = (
{
layerId = "E777F328-EA17-4AE7-9EBA-8002E537BA4F";
name = Light;
paths = (
{
closed = 1;
nodes = (
"371 677 LINE",
"218 864 LINE",
"166 811 LINE",
"199 762 OFFCURVE",
"291 696 OFFCURVE",
"350 656 CURVE"
);
},
{
closed = 1;
nodes = (
"104 225 LINE SMOOTH",
"104 90 OFFCURVE",
"110 -10 OFFCURVE",
"263 -10 CURVE SMOOTH",
"330 -10 OFFCURVE",
"396 17 OFFCURVE",
"460 69 CURVE",
"460 25 LINE SMOOTH",
"460 0 OFFCURVE",
"476 -12 OFFCURVE",
"505 -12 CURVE SMOOTH",
"529 -12 OFFCURVE",
"566 -3 OFFCURVE",
"584 5 CURVE",
"584 35 LINE",
"523 35 LINE",
"523 547 LINE",
"509 556 LINE",
"392 534 LINE",
"392 502 LINE",
"453 492 LINE",
"453 107 LINE",
"434 89 OFFCURVE",
"366 41 OFFCURVE",
"291 41 CURVE SMOOTH",
"192 41 OFFCURVE",
"174 92 OFFCURVE",
"174 211 CURVE SMOOTH",
"174 547 LINE",
"159 556 LINE",
"54 536 LINE",
"54 506 LINE",
"104 497 LINE"
);
}
);
width = 631;
}
);
unicode = 00F9;
},
{
glyphname = v;
lastChange = "2014-09-11 13:17:10 +0100";
layers = (
{
layerId = "E777F328-EA17-4AE7-9EBA-8002E537BA4F";
name = Light;
paths = (
{
closed = 1;
nodes = (
"272 -12 LINE",
"323 -12 LINE",
"523 498 LINE",
"581 507 LINE",
"581 546 LINE",
"393 546 LINE",
"393 506 LINE",
"462 498 LINE",
"351 189 LINE",
"306 60 LINE",
"260 193 LINE",
"134 499 LINE",
"205 507 LINE",
"205 546 LINE",
"1 546 LINE",
"1 507 LINE",
"54 499 LINE"
);
}
);
width = 580;
}
);
leftKerningGroup = v;
unicode = 0076;
},
{
glyphname = w;
lastChange = "2014-09-10 13:48:40 +0100";
layers = (
{
layerId = "E777F328-EA17-4AE7-9EBA-8002E537BA4F";
name = Light;
paths = (
{
closed = 1;
nodes = (
"226 -12 LINE",
"287 -12 LINE",
"397 384 LINE",
"417 462 LINE",
"433 384 LINE",
"548 -12 LINE",
"615 -12 LINE",
"762 498 LINE",
"825 507 LINE",
"825 546 LINE",
"637 546 LINE",
"637 506 LINE",
"704 499 LINE",
"608 135 LINE",
"588 56 LINE",
"567 138 LINE",
"453 546 LINE",
"391 546 LINE",
"278 138 LINE",
"261 60 LINE",
"242 138 LINE",
"130 498 LINE",
"207 506 LINE",
"207 546 LINE",
"1 546 LINE",
"1 506 LINE",
"58 499 LINE"
);
}
);
width = 826;
}
);
leftKerningGroup = v;
unicode = 0077;
},
{
glyphname = x;
lastChange = "2014-09-10 13:51:38 +0100";
layers = (
{
layerId = "E777F328-EA17-4AE7-9EBA-8002E537BA4F";
name = Light;
paths = (
{
closed = 1;
nodes = (
"9 0 LINE",
"232 0 LINE",
"232 33 LINE",
"143 41 LINE",
"251 199 LINE",
"273 236 LINE",
"306 191 LINE",
"308 186 OFFCURVE",
"355 123 OFFCURVE",
"410 41 CURVE",
"332 33 LINE",
"332 0 LINE",
"567 0 LINE",
"567 33 LINE",
"493 42 LINE",
"319 273 LINE",
"488 499 LINE",
"561 506 LINE",
"561 546 LINE",
"358 546 LINE",
"358 506 LINE",
"429 500 LINE",
"320 340 LINE",
"295 301 LINE",
"268 341 LINE",
"160 500 LINE",
"236 506 LINE",
"236 546 LINE",
"2 546 LINE",
"2 506 LINE",
"77 499 LINE",
"250 266 LINE",
"82 42 LINE",
"9 33 LINE"
);
}
);
width = 570;
}
);
leftKerningGroup = x;
unicode = 0078;
},
{
glyphname = y;
lastChange = "2014-09-10 13:48:40 +0100";
layers = (
{
layerId = "E777F328-EA17-4AE7-9EBA-8002E537BA4F";
name = Light;
paths = (
{
closed = 1;
nodes = (
"73 -244 LINE",
"79 -248 OFFCURVE",
"99 -251 OFFCURVE",
"112 -251 CURVE SMOOTH",
"127 -251 OFFCURVE",
"142 -250 OFFCURVE",
"154 -247 CURVE SMOOTH",
"235 -227 OFFCURVE",
"286 -146 OFFCURVE",
"336 -16 CURVE SMOOTH",
"352 23 OFFCURVE",
"384 117 OFFCURVE",
"511 500 CURVE",
"572 506 LINE",
"572 546 LINE",
"370 546 LINE",
"370 506 LINE",
"450 500 LINE",
"342 149 LINE",
"309 33 LINE",
"265 157 LINE",
"140 499 LINE",
"221 506 LINE",
"221 546 LINE",
"1 546 LINE",
"1 506 LINE",
"62 499 LINE",
"267 -12 LINE",
"280 -12 LINE",
"233 -159 OFFCURVE",
"159 -192 OFFCURVE",
"112 -190 CURVE SMOOTH",
"101 -190 OFFCURVE",
"84 -188 OFFCURVE",
"73 -184 CURVE"
);
}
);
width = 562;
}
);
leftKerningGroup = v;
unicode = 0079;
},
{
glyphname = yacute;
lastChange = "2014-09-10 13:48:40 +0100";
layers = (
{
layerId = "E777F328-EA17-4AE7-9EBA-8002E537BA4F";
name = Light;
paths = (
{
closed = 1;
nodes = (
"262 656 LINE",
"322 697 OFFCURVE",
"415 764 OFFCURVE",
"446 811 CURVE",
"394 864 LINE",
"241 677 LINE"
);
},
{
closed = 1;
nodes = (
"73 -244 LINE",
"79 -248 OFFCURVE",
"99 -251 OFFCURVE",
"112 -251 CURVE SMOOTH",
"127 -251 OFFCURVE",
"142 -250 OFFCURVE",
"154 -247 CURVE SMOOTH",
"235 -227 OFFCURVE",
"286 -146 OFFCURVE",
"336 -16 CURVE SMOOTH",
"352 23 OFFCURVE",
"384 117 OFFCURVE",
"511 500 CURVE",
"572 506 LINE",
"572 546 LINE",
"370 546 LINE",
"370 506 LINE",
"450 500 LINE",
"342 149 LINE",
"309 33 LINE",
"265 157 LINE",
"140 499 LINE",
"221 506 LINE",
"221 546 LINE",
"1 546 LINE",
"1 506 LINE",
"62 499 LINE",
"267 -12 LINE",
"280 -12 LINE",
"233 -159 OFFCURVE",
"159 -192 OFFCURVE",
"112 -190 CURVE SMOOTH",
"101 -190 OFFCURVE",
"84 -188 OFFCURVE",
"73 -184 CURVE"
);
}
);
width = 562;
}
);
unicode = 00FD;
},
{
glyphname = ydieresis;
lastChange = "2014-09-10 13:48:40 +0100";
layers = (
{
layerId = "E777F328-EA17-4AE7-9EBA-8002E537BA4F";
name = Light;
paths = (
{
closed = 1;
nodes = (
"433 696 OFFCURVE",
"461 716 OFFCURVE",
"461 749 CURVE SMOOTH",
"461 774 OFFCURVE",
"446 795 OFFCURVE",
"413 795 CURVE SMOOTH",
"385 795 OFFCURVE",
"356 771 OFFCURVE",
"356 741 CURVE SMOOTH",
"356 712 OFFCURVE",
"379 696 OFFCURVE",
"404 696 CURVE SMOOTH"
);
},
{
closed = 1;
nodes = (
"211 696 OFFCURVE",
"239 716 OFFCURVE",
"239 749 CURVE SMOOTH",
"239 774 OFFCURVE",
"224 795 OFFCURVE",
"191 795 CURVE SMOOTH",
"163 795 OFFCURVE",
"134 771 OFFCURVE",
"134 741 CURVE SMOOTH",
"134 712 OFFCURVE",
"157 696 OFFCURVE",
"182 696 CURVE SMOOTH"
);
},
{
closed = 1;
nodes = (
"73 -244 LINE",
"79 -248 OFFCURVE",
"99 -251 OFFCURVE",
"112 -251 CURVE SMOOTH",
"127 -251 OFFCURVE",
"142 -250 OFFCURVE",
"154 -247 CURVE SMOOTH",
"235 -227 OFFCURVE",
"286 -146 OFFCURVE",
"336 -16 CURVE SMOOTH",
"352 23 OFFCURVE",
"384 117 OFFCURVE",
"511 500 CURVE",
"572 506 LINE",
"572 546 LINE",
"370 546 LINE",
"370 506 LINE",
"450 500 LINE",
"342 149 LINE",
"309 33 LINE",
"265 157 LINE",
"140 499 LINE",
"221 506 LINE",
"221 546 LINE",
"1 546 LINE",
"1 506 LINE",
"62 499 LINE",
"267 -12 LINE",
"280 -12 LINE",
"233 -159 OFFCURVE",
"159 -192 OFFCURVE",
"112 -190 CURVE SMOOTH",
"101 -190 OFFCURVE",
"84 -188 OFFCURVE",
"73 -184 CURVE"
);
}
);
width = 562;
}
);
unicode = 00FF;
},
{
glyphname = z;
lastChange = "2014-09-10 13:51:46 +0100";
layers = (
{
layerId = "E777F328-EA17-4AE7-9EBA-8002E537BA4F";
name = Light;
paths = (
{
closed = 1;
nodes = (
"43 34 LINE",
"57 0 LINE",
"489 0 LINE",
"498 134 LINE",
"486 134 OFFCURVE",
"471 135 OFFCURVE",
"459 135 CURVE",
"432 47 LINE",
"127 38 LINE",
"176 99 LINE",
"488 514 LINE",
"477 546 LINE",
"67 546 LINE",
"66 411 LINE",
"101 411 LINE",
"125 503 LINE",
"405 511 LINE",
"363 460 LINE",
"81 84 LINE"
);
}
);
width = 526;
}
);
leftKerningGroup = z;
unicode = 007A;
},
{
glyphname = zcaron;
lastChange = "2014-09-10 13:48:40 +0100";
layers = (
{
layerId = "E777F328-EA17-4AE7-9EBA-8002E537BA4F";
name = Light;
paths = (
{
closed = 1;
nodes = (
"239 653 LINE",
"308 653 LINE",
"442 847 LINE",
"412 865 LINE",
"274 715 LINE",
"135 865 LINE",
"102 847 LINE"
);
},
{
closed = 1;
nodes = (
"43 34 LINE",
"57 0 LINE",
"489 0 LINE",
"498 134 LINE",
"486 134 OFFCURVE",
"471 135 OFFCURVE",
"459 135 CURVE",
"432 47 LINE",
"127 38 LINE",
"176 99 LINE",
"488 514 LINE",
"477 546 LINE",
"67 546 LINE",
"66 411 LINE",
"101 411 LINE",
"125 503 LINE",
"405 511 LINE",
"363 460 LINE",
"81 84 LINE"
);
}
);
width = 526;
}
);
unicode = 017E;
},
{
glyphname = zdotaccent;
lastChange = "2014-09-10 13:48:40 +0100";
layers = (
{
layerId = "E777F328-EA17-4AE7-9EBA-8002E537BA4F";
name = Light;
paths = (
{
closed = 1;
nodes = (
"292 688 OFFCURVE",
"321 710 OFFCURVE",
"321 743 CURVE SMOOTH",
"321 768 OFFCURVE",
"306 790 OFFCURVE",
"272 790 CURVE SMOOTH",
"245 790 OFFCURVE",
"215 766 OFFCURVE",
"215 735 CURVE SMOOTH",
"215 706 OFFCURVE",
"238 688 OFFCURVE",
"263 688 CURVE SMOOTH"
);
},
{
closed = 1;
nodes = (
"43 34 LINE",
"57 0 LINE",
"489 0 LINE",
"498 134 LINE",
"486 134 OFFCURVE",
"471 135 OFFCURVE",
"459 135 CURVE",
"432 47 LINE",
"127 38 LINE",
"176 99 LINE",
"488 514 LINE",
"477 546 LINE",
"67 546 LINE",
"66 411 LINE",
"101 411 LINE",
"125 503 LINE",
"405 511 LINE",
"363 460 LINE",
"81 84 LINE"
);
}
);
width = 526;
}
);
unicode = 017C;
},
{
glyphname = f_f;
lastChange = "2014-09-10 13:48:40 +0100";
layers = (
{
layerId = "E777F328-EA17-4AE7-9EBA-8002E537BA4F";
name = Light;
paths = (
{
closed = 1;
nodes = (
"467 0 LINE",
"755 0 LINE",
"755 33 LINE",
"637 41 LINE",
"637 486 LINE",
"797 486 LINE",
"797 537 LINE",
"637 537 LINE",
"637 616 LINE SMOOTH",
"637 741 OFFCURVE",
"691 764 OFFCURVE",
"747 764 CURVE SMOOTH",
"790 764 OFFCURVE",
"819 757 OFFCURVE",
"831 750 CURVE",
"831 813 LINE",
"818 818 OFFCURVE",
"800 821 OFFCURVE",
"761 821 CURVE SMOOTH",
"675 821 OFFCURVE",
"566 734 OFFCURVE",
"566 588 CURVE SMOOTH",
"566 537 LINE",
"457 516 LINE",
"457 486 LINE",
"566 486 LINE",
"566 42 LINE",
"467 33 LINE"
);
},
{
closed = 1;
nodes = (
"58 0 LINE",
"346 0 LINE",
"346 33 LINE",
"229 41 LINE",
"229 486 LINE",
"388 486 LINE",
"388 537 LINE",
"229 537 LINE",
"229 616 LINE SMOOTH",
"229 741 OFFCURVE",
"283 764 OFFCURVE",
"338 764 CURVE SMOOTH",
"381 764 OFFCURVE",
"410 757 OFFCURVE",
"422 750 CURVE",
"422 813 LINE",
"410 818 OFFCURVE",
"391 821 OFFCURVE",
"352 821 CURVE SMOOTH",
"266 821 OFFCURVE",
"158 734 OFFCURVE",
"158 588 CURVE SMOOTH",
"158 537 LINE",
"47 516 LINE",
"47 486 LINE",
"158 486 LINE",
"158 42 LINE",
"58 33 LINE"
);
}
);
width = 818;
}
);
},
{
glyphname = f_f_i;
lastChange = "2014-09-10 13:48:40 +0100";
layers = (
{
layerId = "E777F328-EA17-4AE7-9EBA-8002E537BA4F";
name = Light;
paths = (
{
closed = 1;
nodes = (
"467 0 LINE",
"755 0 LINE",
"755 33 LINE",
"637 41 LINE",
"637 486 LINE",
"797 486 LINE",
"797 537 LINE",
"637 537 LINE",
"637 616 LINE SMOOTH",
"637 741 OFFCURVE",
"691 764 OFFCURVE",
"747 764 CURVE SMOOTH",
"790 764 OFFCURVE",
"819 757 OFFCURVE",
"831 750 CURVE",
"831 813 LINE",
"818 818 OFFCURVE",
"800 821 OFFCURVE",
"761 821 CURVE SMOOTH",
"675 821 OFFCURVE",
"566 734 OFFCURVE",
"566 588 CURVE SMOOTH",
"566 537 LINE",
"457 516 LINE",
"457 486 LINE",
"566 486 LINE",
"566 42 LINE",
"467 33 LINE"
);
},
{
closed = 1;
nodes = (
"58 0 LINE",
"346 0 LINE",
"346 33 LINE",
"229 41 LINE",
"229 486 LINE",
"388 486 LINE",
"388 537 LINE",
"229 537 LINE",
"229 616 LINE SMOOTH",
"229 741 OFFCURVE",
"283 764 OFFCURVE",
"338 764 CURVE SMOOTH",
"381 764 OFFCURVE",
"410 757 OFFCURVE",
"422 750 CURVE",
"422 813 LINE",
"410 818 OFFCURVE",
"391 821 OFFCURVE",
"352 821 CURVE SMOOTH",
"266 821 OFFCURVE",
"158 734 OFFCURVE",
"158 588 CURVE SMOOTH",
"158 537 LINE",
"47 516 LINE",
"47 486 LINE",
"158 486 LINE",
"158 42 LINE",
"58 33 LINE"
);
},
{
closed = 1;
nodes = (
"936 709 OFFCURVE",
"959 691 OFFCURVE",
"984 691 CURVE SMOOTH",
"1013 691 OFFCURVE",
"1042 713 OFFCURVE",
"1042 747 CURVE SMOOTH",
"1042 773 OFFCURVE",
"1026 794 OFFCURVE",
"993 794 CURVE SMOOTH",
"965 794 OFFCURVE",
"936 771 OFFCURVE",
"936 738 CURVE SMOOTH"
);
},
{
closed = 1;
nodes = (
"886 0 LINE",
"1116 0 LINE",
"1116 33 LINE",
"1035 42 LINE",
"1035 544 LINE",
"1016 553 LINE",
"896 523 LINE",
"896 499 LINE",
"967 474 LINE",
"967 41 LINE",
"886 33 LINE"
);
}
);
width = 1151;
}
);
},
{
glyphname = f_f_l;
lastChange = "2014-09-10 13:48:40 +0100";
layers = (
{
layerId = "E777F328-EA17-4AE7-9EBA-8002E537BA4F";
name = Light;
paths = (
{
closed = 1;
nodes = (
"467 0 LINE",
"755 0 LINE",
"755 33 LINE",
"637 41 LINE",
"637 486 LINE",
"797 486 LINE",
"797 537 LINE",
"637 537 LINE",
"637 616 LINE SMOOTH",
"637 741 OFFCURVE",
"691 764 OFFCURVE",
"747 764 CURVE SMOOTH",
"790 764 OFFCURVE",
"819 757 OFFCURVE",
"831 750 CURVE",
"831 813 LINE",
"818 818 OFFCURVE",
"800 821 OFFCURVE",
"761 821 CURVE SMOOTH",
"675 821 OFFCURVE",
"566 734 OFFCURVE",
"566 588 CURVE SMOOTH",
"566 537 LINE",
"457 516 LINE",
"457 486 LINE",
"566 486 LINE",
"566 42 LINE",
"467 33 LINE"
);
},
{
closed = 1;
nodes = (
"58 0 LINE",
"346 0 LINE",
"346 33 LINE",
"229 41 LINE",
"229 486 LINE",
"388 486 LINE",
"388 537 LINE",
"229 537 LINE",
"229 616 LINE SMOOTH",
"229 741 OFFCURVE",
"283 764 OFFCURVE",
"338 764 CURVE SMOOTH",
"381 764 OFFCURVE",
"410 757 OFFCURVE",
"422 750 CURVE",
"422 813 LINE",
"410 818 OFFCURVE",
"391 821 OFFCURVE",
"352 821 CURVE SMOOTH",
"266 821 OFFCURVE",
"158 734 OFFCURVE",
"158 588 CURVE SMOOTH",
"158 537 LINE",
"47 516 LINE",
"47 486 LINE",
"158 486 LINE",
"158 42 LINE",
"58 33 LINE"
);
},
{
closed = 1;
nodes = (
"885 0 LINE",
"1122 0 LINE",
"1122 33 LINE",
"1037 41 LINE",
"1037 782 LINE",
"1020 792 LINE",
"886 776 LINE",
"886 742 LINE",
"966 730 LINE",
"966 42 LINE",
"885 33 LINE"
);
}
);
width = 1159;
}
);
},
{
glyphname = fi;
lastChange = "2014-09-10 13:48:40 +0100";
layers = (
{
layerId = "E777F328-EA17-4AE7-9EBA-8002E537BA4F";
name = Light;
paths = (
{
closed = 1;
nodes = (
"58 0 LINE",
"346 0 LINE",
"346 33 LINE",
"229 41 LINE",
"229 486 LINE",
"388 486 LINE",
"388 537 LINE",
"229 537 LINE",
"229 616 LINE SMOOTH",
"229 741 OFFCURVE",
"283 764 OFFCURVE",
"338 764 CURVE SMOOTH",
"381 764 OFFCURVE",
"410 757 OFFCURVE",
"422 750 CURVE",
"422 813 LINE",
"410 818 OFFCURVE",
"391 821 OFFCURVE",
"352 821 CURVE SMOOTH",
"266 821 OFFCURVE",
"158 734 OFFCURVE",
"158 588 CURVE SMOOTH",
"158 537 LINE",
"47 516 LINE",
"47 486 LINE",
"158 486 LINE",
"158 42 LINE",
"58 33 LINE"
);
},
{
closed = 1;
nodes = (
"604 691 OFFCURVE",
"633 713 OFFCURVE",
"633 747 CURVE SMOOTH",
"633 773 OFFCURVE",
"618 794 OFFCURVE",
"584 794 CURVE SMOOTH",
"557 794 OFFCURVE",
"526 771 OFFCURVE",
"526 738 CURVE SMOOTH",
"526 709 OFFCURVE",
"550 691 OFFCURVE",
"575 691 CURVE SMOOTH"
);
},
{
closed = 1;
nodes = (
"478 0 LINE",
"707 0 LINE",
"707 33 LINE",
"625 42 LINE",
"625 544 LINE",
"607 553 LINE",
"488 523 LINE",
"488 499 LINE",
"558 474 LINE",
"558 41 LINE",
"478 33 LINE"
);
}
);
width = 742;
}
);
unicode = FB01;
},
{
glyphname = fl;
lastChange = "2014-09-10 13:48:40 +0100";
layers = (
{
layerId = "E777F328-EA17-4AE7-9EBA-8002E537BA4F";
name = Light;
paths = (
{
closed = 1;
nodes = (
"58 0 LINE",
"346 0 LINE",
"346 33 LINE",
"229 41 LINE",
"229 486 LINE",
"388 486 LINE",
"388 537 LINE",
"229 537 LINE",
"229 616 LINE SMOOTH",
"229 741 OFFCURVE",
"283 764 OFFCURVE",
"338 764 CURVE SMOOTH",
"381 764 OFFCURVE",
"410 757 OFFCURVE",
"422 750 CURVE",
"422 813 LINE",
"410 818 OFFCURVE",
"391 821 OFFCURVE",
"352 821 CURVE SMOOTH",
"266 821 OFFCURVE",
"158 734 OFFCURVE",
"158 588 CURVE SMOOTH",
"158 537 LINE",
"47 516 LINE",
"47 486 LINE",
"158 486 LINE",
"158 42 LINE",
"58 33 LINE"
);
},
{
closed = 1;
nodes = (
"476 0 LINE",
"713 0 LINE",
"713 33 LINE",
"628 41 LINE",
"628 782 LINE",
"611 792 LINE",
"478 776 LINE",
"478 742 LINE",
"557 730 LINE",
"557 42 LINE",
"476 33 LINE"
);
}
);
width = 750;
}
);
unicode = FB02;
},
{
glyphname = ordfeminine;
lastChange = "2014-09-10 13:48:40 +0100";
layers = (
{
layerId = "E777F328-EA17-4AE7-9EBA-8002E537BA4F";
name = Light;
paths = (
{
closed = 1;
nodes = (
"260 359 OFFCURVE",
"302 393 OFFCURVE",
"326 412 CURVE",
"326 393 LINE SMOOTH",
"326 362 OFFCURVE",
"339 356 OFFCURVE",
"361 356 CURVE SMOOTH",
"380 356 OFFCURVE",
"416 364 OFFCURVE",
"430 370 CURVE",
"430 398 LINE",
"388 398 LINE",
"388 631 LINE SMOOTH",
"388 758 OFFCURVE",
"322 778 OFFCURVE",
"228 778 CURVE SMOOTH",
"165 778 OFFCURVE",
"90 757 OFFCURVE",
"62 731 CURVE",
"76 697 LINE",
"102 718 OFFCURVE",
"155 732 OFFCURVE",
"208 732 CURVE SMOOTH",
"280 732 OFFCURVE",
"324 719 OFFCURVE",
"324 631 CURVE SMOOTH",
"324 611 LINE",
"189 611 OFFCURVE",
"44 592 OFFCURVE",
"44 475 CURVE SMOOTH",
"44 393 OFFCURVE",
"119 359 OFFCURVE",
"167 359 CURVE SMOOTH"
);
},
{
closed = 1;
nodes = (
"141 403 OFFCURVE",
"113 441 OFFCURVE",
"113 486 CURVE SMOOTH",
"113 562 OFFCURVE",
"222 577 OFFCURVE",
"323 577 CURVE",
"323 446 LINE",
"299 423 OFFCURVE",
"251 403 OFFCURVE",
"193 403 CURVE SMOOTH"
);
}
);
width = 471;
}
);
unicode = 00AA;
},
{
glyphname = ordmasculine;
lastChange = "2014-09-10 13:48:40 +0100";
layers = (
{
layerId = "E777F328-EA17-4AE7-9EBA-8002E537BA4F";
name = Light;
paths = (
{
closed = 1;
nodes = (
"329 359 OFFCURVE",
"440 418 OFFCURVE",
"441 564 CURVE SMOOTH",
"443 699 OFFCURVE",
"372 778 OFFCURVE",
"250 778 CURVE SMOOTH",
"157 778 OFFCURVE",
"50 715 OFFCURVE",
"48 569 CURVE SMOOTH",
"45 435 OFFCURVE",
"129 359 OFFCURVE",
"238 359 CURVE SMOOTH"
);
},
{
closed = 1;
nodes = (
"167 398 OFFCURVE",
"119 466 OFFCURVE",
"119 574 CURVE SMOOTH",
"119 674 OFFCURVE",
"162 739 OFFCURVE",
"246 739 CURVE SMOOTH",
"329 739 OFFCURVE",
"370 668 OFFCURVE",
"370 558 CURVE SMOOTH",
"370 446 OFFCURVE",
"325 398 OFFCURVE",
"239 398 CURVE SMOOTH"
);
}
);
width = 487;
}
);
unicode = 00BA;
},
{
glyphname = Omega;
lastChange = "2014-09-10 13:48:40 +0100";
layers = (
{
layerId = "E777F328-EA17-4AE7-9EBA-8002E537BA4F";
name = Light;
paths = (
{
closed = 1;
nodes = (
"69 0 LINE",
"386 0 LINE",
"386 62 LINE",
"298 112 OFFCURVE",
"195 242 OFFCURVE",
"195 398 CURVE SMOOTH",
"195 613 OFFCURVE",
"307 724 OFFCURVE",
"455 724 CURVE SMOOTH",
"596 724 OFFCURVE",
"706 620 OFFCURVE",
"706 414 CURVE SMOOTH",
"706 255 OFFCURVE",
"624 118 OFFCURVE",
"523 59 CURVE",
"523 0 LINE",
"835 0 LINE",
"856 174 LINE",
"819 177 LINE",
"786 66 LINE",
"604 66 LINE",
"690 134 OFFCURVE",
"783 284 OFFCURVE",
"786 414 CURVE SMOOTH",
"790 632 OFFCURVE",
"653 757 OFFCURVE",
"462 757 CURVE SMOOTH",
"286 757 OFFCURVE",
"122 644 OFFCURVE",
"116 398 CURVE SMOOTH",
"114 254 OFFCURVE",
"210 125 OFFCURVE",
"300 66 CURVE",
"122 66 LINE",
"106 167 LINE",
"69 164 LINE"
);
}
);
width = 951;
}
);
unicode = 03A9;
},
{
glyphname = mu;
lastChange = "2014-09-10 13:48:40 +0100";
layers = (
{
layerId = "E777F328-EA17-4AE7-9EBA-8002E537BA4F";
name = Light;
paths = (
{
closed = 1;
nodes = (
"199 10 LINE",
"221 -3 OFFCURVE",
"249 -10 OFFCURVE",
"288 -10 CURVE SMOOTH",
"354 -10 OFFCURVE",
"420 16 OFFCURVE",
"484 69 CURVE",
"484 25 LINE SMOOTH",
"484 0 OFFCURVE",
"500 -12 OFFCURVE",
"530 -12 CURVE SMOOTH",
"554 -12 OFFCURVE",
"590 -3 OFFCURVE",
"609 5 CURVE",
"609 35 LINE",
"547 35 LINE",
"547 547 LINE",
"534 556 LINE",
"417 534 LINE",
"417 502 LINE",
"478 492 LINE",
"478 107 LINE",
"459 89 OFFCURVE",
"391 41 OFFCURVE",
"315 41 CURVE SMOOTH",
"220 41 OFFCURVE",
"199 98 OFFCURVE",
"199 215 CURVE SMOOTH",
"199 547 LINE",
"184 556 LINE",
"79 534 LINE",
"79 505 LINE",
"129 495 LINE",
"129 -196 LINE",
"199 -196 LINE"
);
}
);
width = 691;
}
);
unicode = 03BC;
},
{
glyphname = pi;
lastChange = "2014-09-10 13:48:40 +0100";
layers = (
{
layerId = "E777F328-EA17-4AE7-9EBA-8002E537BA4F";
name = Light;
paths = (
{
closed = 1;
nodes = (
"153 -11 LINE",
"176 -4 OFFCURVE",
"197 5 OFFCURVE",
"214 21 CURVE SMOOTH",
"258 62 OFFCURVE",
"271 102 OFFCURVE",
"279 200 CURVE SMOOTH",
"281 228 OFFCURVE",
"287 388 OFFCURVE",
"291 474 CURVE",
"494 473 LINE",
"488 381 OFFCURVE",
"472 162 OFFCURVE",
"472 122 CURVE",
"468 55 OFFCURVE",
"472 -10 OFFCURVE",
"527 -10 CURVE SMOOTH",
"595 -10 OFFCURVE",
"650 66 OFFCURVE",
"661 108 CURVE",
"619 108 LINE",
"606 80 OFFCURVE",
"575 59 OFFCURVE",
"546 59 CURVE SMOOTH",
"530 59 OFFCURVE",
"522 86 OFFCURVE",
"522 126 CURVE",
"524 163 OFFCURVE",
"533 366 OFFCURVE",
"539 473 CURVE",
"540 473 LINE SMOOTH",
"623 473 OFFCURVE",
"683 523 OFFCURVE",
"692 600 CURVE",
"653 600 LINE",
"635 563 OFFCURVE",
"601 544 OFFCURVE",
"552 544 CURVE SMOOTH",
"226 545 LINE SMOOTH",
"165 545 OFFCURVE",
"118 519 OFFCURVE",
"89 471 CURVE SMOOTH",
"79 456 OFFCURVE",
"76 437 OFFCURVE",
"74 426 CURVE",
"115 421 LINE",
"128 454 OFFCURVE",
"167 474 OFFCURVE",
"208 474 CURVE SMOOTH",
"244 474 LINE",
"242 405 OFFCURVE",
"234 247 OFFCURVE",
"232 217 CURVE SMOOTH",
"228 147 OFFCURVE",
"210 101 OFFCURVE",
"164 69 CURVE SMOOTH",
"139 52 OFFCURVE",
"111 42 OFFCURVE",
"100 40 CURVE"
);
}
);
width = 777;
}
);
unicode = 03C0;
},
{
glyphname = "aShort-deva";
lastChange = "2014-09-10 13:48:40 +0100";
layers = (
{
anchors = (
{
name = top;
position = "{738, 634}";
}
);
background = {
paths = (
{
closed = 1;
nodes = (
"175 937 OFFCURVE",
"165 907 OFFCURVE",
"165 878 CURVE SMOOTH",
"165 835 OFFCURVE",
"221 775 OFFCURVE",
"332 775 CURVE SMOOTH",
"391 775 OFFCURVE",
"443 786 OFFCURVE",
"478 786 CURVE SMOOTH",
"573 786 OFFCURVE",
"583 716 OFFCURVE",
"583 694 CURVE SMOOTH",
"583 664 OFFCURVE",
"576 639 OFFCURVE",
"569 625 CURVE",
"616 622 LINE",
"620 642 OFFCURVE",
"627 665 OFFCURVE",
"627 706 CURVE SMOOTH",
"627 735 OFFCURVE",
"613 762 OFFCURVE",
"592 786 CURVE SMOOTH",
"567 815 OFFCURVE",
"520 836 OFFCURVE",
"468 836 CURVE SMOOTH",
"436 836 OFFCURVE",
"321 824 OFFCURVE",
"284 824 CURVE SMOOTH",
"243 824 OFFCURVE",
"209 850 OFFCURVE",
"209 893 CURVE SMOOTH",
"209 908 OFFCURVE",
"214 927 OFFCURVE",
"220 948 CURVE",
"181 955 LINE"
);
}
);
};
layerId = "E777F328-EA17-4AE7-9EBA-8002E537BA4F";
name = Light;
paths = (
{
closed = 1;
nodes = (
"281 339 LINE",
"322 308 OFFCURVE",
"369 257 OFFCURVE",
"369 202 CURVE SMOOTH",
"369 137 OFFCURVE",
"321 94 OFFCURVE",
"251 94 CURVE SMOOTH",
"155 94 OFFCURVE",
"71 205 OFFCURVE",
"30 280 CURVE",
"0 261 LINE",
"41 185 OFFCURVE",
"124 44 OFFCURVE",
"275 44 CURVE SMOOTH",
"358 44 OFFCURVE",
"419 107 OFFCURVE",
"419 179 CURVE SMOOTH",
"419 260 OFFCURVE",
"359 325 OFFCURVE",
"311 363 CURVE"
);
},
{
closed = 1;
nodes = (
"191 653 OFFCURVE",
"116 622 OFFCURVE",
"83 600 CURVE",
"111 547 LINE",
"148 575 OFFCURVE",
"197 603 OFFCURVE",
"243 603 CURVE",
"288 603 OFFCURVE",
"350 556 OFFCURVE",
"352 510 CURVE SMOOTH",
"354 461 OFFCURVE",
"333 429 OFFCURVE",
"303 408 CURVE SMOOTH",
"266 383 OFFCURVE",
"215 374 OFFCURVE",
"174 370 CURVE",
"170 360 LINE",
"192 320 LINE",
"233 321 OFFCURVE",
"276 328 OFFCURVE",
"312 345 CURVE SMOOTH",
"364 368 OFFCURVE",
"402 408 OFFCURVE",
"402 471 CURVE SMOOTH",
"402 570 OFFCURVE",
"313 653 OFFCURVE",
"222 653 CURVE SMOOTH"
);
},
{
closed = 1;
nodes = (
"326 320 LINE",
"354 303 LINE",
"368 310 LINE",
"387 302 OFFCURVE",
"426 280 OFFCURVE",
"475 280 CURVE SMOOTH",
"514 280 OFFCURVE",
"549 300 OFFCURVE",
"568 312 CURVE",
"570 380 LINE",
"536 351 OFFCURVE",
"495 330 OFFCURVE",
"442 330 CURVE SMOOTH",
"396 330 OFFCURVE",
"351 343 OFFCURVE",
"323 352 CURVE"
);
},
{
closed = 1;
nodes = (
"568 610 LINE",
"567 353 LINE",
"507 310 LINE",
"567 310 LINE",
"567 13 LINE",
"610 -11 LINE",
"622 -11 LINE",
"622 610 LINE"
);
},
{
closed = 1;
nodes = (
"431 634 LINE",
"431 624 LINE",
"448 590 LINE",
"738 590 LINE",
"738 601 LINE",
"719 634 LINE"
);
},
{
closed = 1;
nodes = (
"137 937 OFFCURVE",
"127 907 OFFCURVE",
"127 878 CURVE SMOOTH",
"127 835 OFFCURVE",
"189 775 OFFCURVE",
"314 775 CURVE SMOOTH",
"373 775 OFFCURVE",
"432 786 OFFCURVE",
"470 786 CURVE SMOOTH",
"558 786 OFFCURVE",
"583 721 OFFCURVE",
"583 664 CURVE SMOOTH",
"583 649 OFFCURVE",
"579 636 OFFCURVE",
"572 625 CURVE",
"618 622 LINE",
"622 637 OFFCURVE",
"627 661 OFFCURVE",
"627 679 CURVE SMOOTH",
"627 714 OFFCURVE",
"610 754 OFFCURVE",
"584 786 CURVE SMOOTH",
"560 816 OFFCURVE",
"512 836 OFFCURVE",
"460 836 CURVE SMOOTH",
"426 836 OFFCURVE",
"303 824 OFFCURVE",
"266 824 CURVE SMOOTH",
"212 824 OFFCURVE",
"171 850 OFFCURVE",
"171 893 CURVE SMOOTH",
"171 908 OFFCURVE",
"176 927 OFFCURVE",
"182 948 CURVE",
"143 955 LINE"
);
}
);
width = 738;
}
);
unicode = 0904;
},
{
glyphname = "aCandra-deva";
lastChange = "2014-09-10 13:48:40 +0100";
layers = (
{
anchors = (
{
name = top;
position = "{596, 683}";
}
);
background = {
paths = (
{
closed = 1;
nodes = (
"262 323 LINE",
"301 296 OFFCURVE",
"315 249 OFFCURVE",
"315 210 CURVE SMOOTH",
"315 150 OFFCURVE",
"266 98 OFFCURVE",
"196 98 CURVE SMOOTH",
"102 98 OFFCURVE",
"9 199 OFFCURVE",
"-42 284 CURVE",
"-76 262 LINE",
"-27 173 OFFCURVE",
"69 18 OFFCURVE",
"233 18 CURVE SMOOTH",
"330 18 OFFCURVE",
"394 77 OFFCURVE",
"394 173 CURVE SMOOTH",
"394 251 OFFCURVE",
"357 300 OFFCURVE",
"297 351 CURVE"
);
},
{
closed = 1;
nodes = (
"135 667 OFFCURVE",
"49 630 OFFCURVE",
"12 603 CURVE",
"58 516 LINE",
"99 553 OFFCURVE",
"150 586 OFFCURVE",
"206 586 CURVE SMOOTH",
"258 586 OFFCURVE",
"304 544 OFFCURVE",
"304 497 CURVE SMOOTH",
"304 450 OFFCURVE",
"276 425 OFFCURVE",
"244 407 CURVE SMOOTH",
"208 388 OFFCURVE",
"149 382 OFFCURVE",
"113 380 CURVE",
"102 353 LINE",
"137 289 LINE",
"190 296 OFFCURVE",
"232 303 OFFCURVE",
"296 324 CURVE",
"349 365 OFFCURVE",
"367 422 OFFCURVE",
"367 461 CURVE SMOOTH",
"367 557 OFFCURVE",
"252 665 OFFCURVE",
"172 667 CURVE SMOOTH"
);
},
{
closed = 1;
nodes = (
"304 301 LINE",
"361 261 LINE",
"376 270 LINE",
"414 240 OFFCURVE",
"453 220 OFFCURVE",
"501 220 CURVE SMOOTH",
"537 220 OFFCURVE",
"560 230 OFFCURVE",
"577 243 CURVE",
"571 334 LINE",
"541 313 OFFCURVE",
"509 296 OFFCURVE",
"461 296 CURVE SMOOTH",
"404 296 OFFCURVE",
"337 324 OFFCURVE",
"301 346 CURVE"
);
},
{
closed = 1;
nodes = (
"561 605 LINE",
"561 287 LINE",
"499 232 LINE",
"561 232 LINE",
"561 -1 LINE",
"633 -42 LINE",
"649 -42 LINE",
"649 605 LINE"
);
},
{
closed = 1;
nodes = (
"383 650 LINE",
"383 634 LINE",
"415 575 LINE",
"759 575 LINE",
"759 590 LINE",
"727 650 LINE"
);
},
{
closed = 1;
nodes = (
"736 918 LINE",
"708 874 OFFCURVE",
"647 818 OFFCURVE",
"560 818 CURVE SMOOTH",
"494 818 OFFCURVE",
"441 867 OFFCURVE",
"400 925 CURVE",
"368 911 LINE",
"408 843 OFFCURVE",
"486 752 OFFCURVE",
"598 752 CURVE SMOOTH",
"696 752 OFFCURVE",
"753 798 OFFCURVE",
"800 857 CURVE"
);
}
);
};
components = (
{
name = "a-deva";
transform = "{1, 0, 0, 1, 0, 0}";
},
{
name = "eCandraMatra-deva";
transform = "{1, 0, 0, 1, 748, 0}";
}
);
layerId = "E777F328-EA17-4AE7-9EBA-8002E537BA4F";
name = Light;
width = 738;
}
);
unicode = 0972;
},
{
glyphname = "a-deva";
lastChange = "2014-09-10 13:48:40 +0100";
layers = (
{
anchors = (
{
name = bottom;
position = "{595, 0}";
},
{
name = nukta;
position = "{68, 0}";
},
{
name = top;
position = "{595, 634}";
}
);
background = {
paths = (
{
closed = 1;
nodes = (
"305 330 LINE",
"344 303 OFFCURVE",
"358 256 OFFCURVE",
"358 217 CURVE SMOOTH",
"358 157 OFFCURVE",
"309 105 OFFCURVE",
"239 105 CURVE SMOOTH",
"145 105 OFFCURVE",
"52 206 OFFCURVE",
"1 291 CURVE",
"-33 269 LINE",
"16 180 OFFCURVE",
"112 25 OFFCURVE",
"276 25 CURVE SMOOTH",
"373 25 OFFCURVE",
"437 84 OFFCURVE",
"437 180 CURVE SMOOTH",
"437 258 OFFCURVE",
"400 307 OFFCURVE",
"340 358 CURVE"
);
},
{
closed = 1;
nodes = (
"178 674 OFFCURVE",
"92 637 OFFCURVE",
"55 610 CURVE",
"101 523 LINE",
"142 560 OFFCURVE",
"193 593 OFFCURVE",
"249 593 CURVE SMOOTH",
"301 593 OFFCURVE",
"347 551 OFFCURVE",
"347 504 CURVE SMOOTH",
"347 457 OFFCURVE",
"319 432 OFFCURVE",
"287 414 CURVE SMOOTH",
"251 395 OFFCURVE",
"192 389 OFFCURVE",
"156 387 CURVE",
"145 360 LINE",
"180 296 LINE",
"233 303 OFFCURVE",
"275 310 OFFCURVE",
"339 331 CURVE",
"392 372 OFFCURVE",
"410 429 OFFCURVE",
"410 468 CURVE SMOOTH",
"410 564 OFFCURVE",
"295 672 OFFCURVE",
"215 674 CURVE SMOOTH"
);
},
{
closed = 1;
nodes = (
"347 308 LINE",
"404 268 LINE",
"419 277 LINE",
"457 247 OFFCURVE",
"496 227 OFFCURVE",
"544 227 CURVE SMOOTH",
"580 227 OFFCURVE",
"603 237 OFFCURVE",
"620 250 CURVE",
"614 341 LINE",
"584 320 OFFCURVE",
"552 303 OFFCURVE",
"504 303 CURVE SMOOTH",
"447 303 OFFCURVE",
"380 331 OFFCURVE",
"344 353 CURVE"
);
},
{
closed = 1;
nodes = (
"604 612 LINE",
"604 294 LINE",
"542 239 LINE",
"604 239 LINE",
"604 6 LINE",
"676 -35 LINE",
"692 -35 LINE",
"692 612 LINE"
);
},
{
closed = 1;
nodes = (
"426 657 LINE",
"426 641 LINE",
"458 582 LINE",
"802 582 LINE",
"802 597 LINE",
"770 657 LINE"
);
}
);
};
layerId = "E777F328-EA17-4AE7-9EBA-8002E537BA4F";
name = Light;
paths = (
{
closed = 1;
nodes = (
"281 339 LINE",
"322 308 OFFCURVE",
"369 257 OFFCURVE",
"369 202 CURVE SMOOTH",
"369 137 OFFCURVE",
"321 94 OFFCURVE",
"251 94 CURVE SMOOTH",
"155 94 OFFCURVE",
"71 205 OFFCURVE",
"30 280 CURVE",
"0 261 LINE",
"41 185 OFFCURVE",
"124 44 OFFCURVE",
"275 44 CURVE SMOOTH",
"358 44 OFFCURVE",
"419 107 OFFCURVE",
"419 179 CURVE SMOOTH",
"419 260 OFFCURVE",
"359 325 OFFCURVE",
"311 363 CURVE"
);
},
{
closed = 1;
nodes = (
"191 653 OFFCURVE",
"116 622 OFFCURVE",
"83 600 CURVE",
"111 547 LINE",
"148 575 OFFCURVE",
"197 603 OFFCURVE",
"243 603 CURVE",
"288 603 OFFCURVE",
"350 556 OFFCURVE",
"352 510 CURVE SMOOTH",
"354 461 OFFCURVE",
"333 429 OFFCURVE",
"303 408 CURVE SMOOTH",
"266 383 OFFCURVE",
"215 374 OFFCURVE",
"174 370 CURVE",
"170 360 LINE",
"192 320 LINE",
"233 321 OFFCURVE",
"276 328 OFFCURVE",
"312 345 CURVE SMOOTH",
"364 368 OFFCURVE",
"402 408 OFFCURVE",
"402 471 CURVE SMOOTH",
"402 570 OFFCURVE",
"313 653 OFFCURVE",
"222 653 CURVE SMOOTH"
);
},
{
closed = 1;
nodes = (
"326 320 LINE",
"354 303 LINE",
"368 310 LINE",
"387 302 OFFCURVE",
"426 280 OFFCURVE",
"475 280 CURVE SMOOTH",
"514 280 OFFCURVE",
"549 300 OFFCURVE",
"568 312 CURVE",
"570 380 LINE",
"536 351 OFFCURVE",
"495 330 OFFCURVE",
"442 330 CURVE SMOOTH",
"396 330 OFFCURVE",
"351 343 OFFCURVE",
"323 352 CURVE"
);
},
{
closed = 1;
nodes = (
"568 610 LINE",
"567 353 LINE",
"507 310 LINE",
"567 310 LINE",
"567 13 LINE",
"610 -11 LINE",
"622 -11 LINE",
"622 610 LINE"
);
},
{
closed = 1;
nodes = (
"421 634 LINE",
"421 624 LINE",
"438 590 LINE",
"738 590 LINE",
"738 601 LINE",
"720 634 LINE"
);
}
);
width = 738;
}
);
unicode = 0905;
},
{
glyphname = "aa-deva";
lastChange = "2014-09-10 13:48:40 +0100";
layers = (
{
anchors = (
{
name = bottom;
position = "{881, 0}";
},
{
name = nukta;
position = "{68, 0}";
},
{
name = top;
position = "{881, 634}";
}
);
background = {
paths = (
{
closed = 1;
nodes = (
"721 634 LINE",
"721 624 LINE",
"738 590 LINE",
"867 590 LINE",
"866 13 LINE",
"909 -11 LINE",
"921 -11 LINE",
"921 590 LINE",
"1037 590 LINE",
"1037 601 LINE",
"1018 634 LINE"
);
}
);
};
layerId = "E777F328-EA17-4AE7-9EBA-8002E537BA4F";
name = Light;
paths = (
{
closed = 1;
nodes = (
"281 339 LINE",
"322 308 OFFCURVE",
"369 257 OFFCURVE",
"369 202 CURVE SMOOTH",
"369 137 OFFCURVE",
"321 94 OFFCURVE",
"251 94 CURVE SMOOTH",
"155 94 OFFCURVE",
"71 205 OFFCURVE",
"30 280 CURVE",
"0 261 LINE",
"41 185 OFFCURVE",
"124 44 OFFCURVE",
"275 44 CURVE SMOOTH",
"358 44 OFFCURVE",
"419 107 OFFCURVE",
"419 179 CURVE SMOOTH",
"419 260 OFFCURVE",
"359 325 OFFCURVE",
"311 363 CURVE"
);
},
{
closed = 1;
nodes = (
"191 653 OFFCURVE",
"116 622 OFFCURVE",
"83 600 CURVE",
"111 547 LINE",
"148 575 OFFCURVE",
"197 603 OFFCURVE",
"243 603 CURVE",
"288 603 OFFCURVE",
"350 556 OFFCURVE",
"352 510 CURVE SMOOTH",
"354 461 OFFCURVE",
"333 429 OFFCURVE",
"303 408 CURVE SMOOTH",
"266 383 OFFCURVE",
"215 374 OFFCURVE",
"174 370 CURVE",
"170 360 LINE",
"192 320 LINE",
"233 321 OFFCURVE",
"276 328 OFFCURVE",
"312 345 CURVE SMOOTH",
"364 368 OFFCURVE",
"402 408 OFFCURVE",
"402 471 CURVE SMOOTH",
"402 570 OFFCURVE",
"313 653 OFFCURVE",
"222 653 CURVE SMOOTH"
);
},
{
closed = 1;
nodes = (
"326 320 LINE",
"354 303 LINE",
"368 310 LINE",
"387 302 OFFCURVE",
"426 280 OFFCURVE",
"475 280 CURVE SMOOTH",
"514 280 OFFCURVE",
"549 300 OFFCURVE",
"568 312 CURVE",
"570 380 LINE",
"536 351 OFFCURVE",
"495 330 OFFCURVE",
"442 330 CURVE SMOOTH",
"396 330 OFFCURVE",
"351 343 OFFCURVE",
"323 352 CURVE"
);
},
{
closed = 1;
nodes = (
"568 610 LINE",
"567 353 LINE",
"507 310 LINE",
"567 310 LINE",
"567 13 LINE",
"610 -11 LINE",
"622 -11 LINE",
"622 610 LINE"
);
},
{
closed = 1;
nodes = (
"421 634 LINE",
"421 624 LINE",
"438 590 LINE",
"738 590 LINE",
"738 601 LINE",
"720 634 LINE"
);
},
{
closed = 1;
nodes = (
"854 610 LINE",
"853 13 LINE",
"896 -11 LINE",
"908 -11 LINE",
"908 610 LINE"
);
},
{
closed = 1;
nodes = (
"707 634 LINE",
"707 624 LINE",
"724 590 LINE",
"1024 590 LINE",
"1024 601 LINE",
"1005 634 LINE"
);
}
);
width = 1024;
}
);
unicode = 0906;
},
{
glyphname = "i-deva";
lastChange = "2014-09-10 13:48:40 +0100";
layers = (
{
anchors = (
{
name = top;
position = "{343, 634}";
}
);
background = {
paths = (
{
closed = 0;
nodes = (
"321 -98 LINE",
"98 236 LINE"
);
}
);
};
layerId = "E777F328-EA17-4AE7-9EBA-8002E537BA4F";
name = Light;
paths = (
{
closed = 1;
nodes = (
"-29 634 LINE",
"-29 624 LINE",
"-12 590 LINE",
"316 590 LINE",
"316 481 LINE",
"165 481 LINE SMOOTH",
"109 481 OFFCURVE",
"76 443 OFFCURVE",
"76 383 CURVE SMOOTH",
"76 329 OFFCURVE",
"143 245 OFFCURVE",
"197 245 CURVE SMOOTH",
"245 245 OFFCURVE",
"304 273 OFFCURVE",
"337 273 CURVE",
"349 267 OFFCURVE",
"372 241 OFFCURVE",
"372 196 CURVE SMOOTH",
"372 125 OFFCURVE",
"289 95 OFFCURVE",
"197 88 CURVE",
"146 164 LINE",
"144 165 OFFCURVE",
"139 166 OFFCURVE",
"133 166 CURVE SMOOTH",
"100 166 OFFCURVE",
"66 144 OFFCURVE",
"66 102 CURVE SMOOTH",
"66 57 OFFCURVE",
"201 43 OFFCURVE",
"209 43 CURVE SMOOTH",
"320 43 OFFCURVE",
"422 104 OFFCURVE",
"422 171 CURVE SMOOTH",
"422 234 OFFCURVE",
"381 317 OFFCURVE",
"321 317 CURVE SMOOTH",
"286 317 OFFCURVE",
"228 289 OFFCURVE",
"180 289 CURVE SMOOTH",
"160 289 OFFCURVE",
"126 324 OFFCURVE",
"126 362 CURVE SMOOTH",
"126 397 OFFCURVE",
"139 437 OFFCURVE",
"186 437 CURVE SMOOTH",
"370 437 LINE",
"370 590 LINE",
"490 590 LINE",
"490 601 LINE",
"471 634 LINE"
);
},
{
closed = 1;
nodes = (
"177 63 LINE",
"272 -122 LINE SMOOTH",
"321 -98 LINE SMOOTH",
"216 60 LINE"
);
}
);
width = 474;
}
);
unicode = 0907;
},
{
glyphname = "ii-deva";
lastChange = "2014-09-10 13:48:40 +0100";
layers = (
{
anchors = (
{
name = top;
position = "{339, 634}";
}
);
background = {
paths = (
{
closed = 1;
nodes = (
"268 964 OFFCURVE",
"186 909 OFFCURVE",
"186 822 CURVE SMOOTH",
"186 755 OFFCURVE",
"239 684 OFFCURVE",
"304 633 CURVE",
"304 572 LINE",
"369 631 LINE",
"329 668 OFFCURVE",
"281 735 OFFCURVE",
"281 795 CURVE SMOOTH",
"281 859 OFFCURVE",
"321 890 OFFCURVE",
"370 890 CURVE SMOOTH",
"414 890 OFFCURVE",
"467 864 OFFCURVE",
"489 847 CURVE",
"515 889 LINE",
"472 934 OFFCURVE",
"414 964 OFFCURVE",
"355 964 CURVE SMOOTH"
);
},
{
closed = 0;
nodes = (
"183 826 LINE",
"288 796 LINE"
);
},
{
closed = 0;
nodes = (
"347 979 LINE",
"368 876 LINE"
);
}
);
};
layerId = "E777F328-EA17-4AE7-9EBA-8002E537BA4F";
name = Light;
paths = (
{
closed = 1;
nodes = (
"-29 634 LINE",
"-29 624 LINE",
"-12 590 LINE",
"316 590 LINE",
"316 481 LINE",
"165 481 LINE SMOOTH",
"109 481 OFFCURVE",
"76 443 OFFCURVE",
"76 383 CURVE SMOOTH",
"76 329 OFFCURVE",
"143 245 OFFCURVE",
"197 245 CURVE SMOOTH",
"245 245 OFFCURVE",
"304 273 OFFCURVE",
"337 273 CURVE",
"349 267 OFFCURVE",
"372 241 OFFCURVE",
"372 196 CURVE SMOOTH",
"372 125 OFFCURVE",
"289 95 OFFCURVE",
"197 88 CURVE",
"146 164 LINE",
"144 165 OFFCURVE",
"139 166 OFFCURVE",
"133 166 CURVE SMOOTH",
"100 166 OFFCURVE",
"66 144 OFFCURVE",
"66 102 CURVE SMOOTH",
"66 57 OFFCURVE",
"201 43 OFFCURVE",
"209 43 CURVE SMOOTH",
"320 43 OFFCURVE",
"422 104 OFFCURVE",
"422 171 CURVE SMOOTH",
"422 234 OFFCURVE",
"381 317 OFFCURVE",
"321 317 CURVE SMOOTH",
"286 317 OFFCURVE",
"228 289 OFFCURVE",
"180 289 CURVE SMOOTH",
"160 289 OFFCURVE",
"126 324 OFFCURVE",
"126 362 CURVE SMOOTH",
"126 397 OFFCURVE",
"139 437 OFFCURVE",
"186 437 CURVE SMOOTH",
"370 437 LINE",
"370 590 LINE",
"490 590 LINE",
"490 601 LINE",
"471 634 LINE"
);
},
{
closed = 1;
nodes = (
"177 63 LINE",
"272 -122 LINE SMOOTH",
"321 -98 LINE SMOOTH",
"216 60 LINE"
);
},
{
closed = 1;
nodes = (
"278 952 OFFCURVE",
"208 897 OFFCURVE",
"208 819 CURVE SMOOTH",
"208 743 OFFCURVE",
"256 684 OFFCURVE",
"306 636 CURVE",
"306 615 LINE",
"366 634 LINE",
"312 675 OFFCURVE",
"258 741 OFFCURVE",
"258 804 CURVE SMOOTH",
"258 868 OFFCURVE",
"308 902 OFFCURVE",
"363 902 CURVE SMOOTH",
"405 902 OFFCURVE",
"439 882 OFFCURVE",
"469 862 CURVE",
"491 895 LINE",
"453 928 OFFCURVE",
"403 952 OFFCURVE",
"353 952 CURVE SMOOTH"
);
}
);
width = 474;
}
);
unicode = 0908;
},
{
glyphname = "u-deva";
lastChange = "2014-09-10 13:48:40 +0100";
layers = (
{
anchors = (
{
name = bottom;
position = "{330, 18}";
},
{
name = top;
position = "{304, 634}";
}
);
background = {
paths = (
{
closed = 1;
nodes = (
"328 333 LINE",
"369 302 OFFCURVE",
"416 251 OFFCURVE",
"416 196 CURVE SMOOTH",
"416 131 OFFCURVE",
"368 88 OFFCURVE",
"298 88 CURVE SMOOTH",
"202 88 OFFCURVE",
"118 199 OFFCURVE",
"77 274 CURVE",
"47 255 LINE",
"88 179 OFFCURVE",
"171 38 OFFCURVE",
"322 38 CURVE SMOOTH",
"405 38 OFFCURVE",
"466 101 OFFCURVE",
"466 173 CURVE SMOOTH",
"466 254 OFFCURVE",
"406 319 OFFCURVE",
"358 357 CURVE"
);
}
);
};
layerId = "E777F328-EA17-4AE7-9EBA-8002E537BA4F";
name = Light;
paths = (
{
closed = 1;
nodes = (
"313 340 LINE",
"370 304 OFFCURVE",
"437 246 OFFCURVE",
"436 178 CURVE SMOOTH",
"435 111 OFFCURVE",
"384 67 OFFCURVE",
"307 68 CURVE SMOOTH",
"214 69 OFFCURVE",
"107 192 OFFCURVE",
"57 274 CURVE",
"27 255 LINE",
"79 173 OFFCURVE",
"180 20 OFFCURVE",
"330 18 CURVE SMOOTH",
"421 17 OFFCURVE",
"485 84 OFFCURVE",
"486 160 CURVE SMOOTH",
"487 252 OFFCURVE",
"409 322 OFFCURVE",
"348 364 CURVE"
);
},
{
closed = 1;
nodes = (
"277 599 LINE",
"337 568 OFFCURVE",
"392 519 OFFCURVE",
"394 466 CURVE SMOOTH",
"397 408 OFFCURVE",
"335 371 OFFCURVE",
"257 370 CURVE SMOOTH",
"238 370 OFFCURVE",
"217 372 OFFCURVE",
"191 377 CURVE",
"187 367 LINE",
"209 327 LINE",
"232 320 OFFCURVE",
"251 318 OFFCURVE",
"272 318 CURVE SMOOTH",
"360 319 OFFCURVE",
"444 367 OFFCURVE",
"444 440 CURVE SMOOTH",
"444 505 OFFCURVE",
"397 562 OFFCURVE",
"331 607 CURVE"
);
},
{
closed = 1;
nodes = (
"-29 634 LINE",
"-29 624 LINE",
"-12 590 LINE",
"553 590 LINE",
"553 601 LINE",
"534 634 LINE"
);
}
);
width = 553;
}
);
unicode = 0909;
},
{
glyphname = "uu-deva";
lastChange = "2014-09-10 13:48:40 +0100";
layers = (
{
anchors = (
{
name = bottom;
position = "{330, 18}";
},
{
name = top;
position = "{304, 634}";
}
);
background = {
paths = (
{
closed = 1;
nodes = (
"114 412 OFFCURVE",
"53 342 OFFCURVE",
"53 261 CURVE",
"53 152 OFFCURVE",
"132 100 OFFCURVE",
"215 100 CURVE",
"310 100 OFFCURVE",
"365 162 OFFCURVE",
"415 201 CURVE SMOOTH",
"444 228 LINE SMOOTH",
"513 299 OFFCURVE",
"568 338 OFFCURVE",
"622 338 CURVE",
"659 338 OFFCURVE",
"692 305 OFFCURVE",
"695 257 CURVE",
"695 186 OFFCURVE",
"642 115 OFFCURVE",
"621 92 CURVE SMOOTH",
"664 48 LINE SMOOTH",
"690 86 OFFCURVE",
"740 164 OFFCURVE",
"740 231 CURVE",
"739 327 OFFCURVE",
"682 388 OFFCURVE",
"606 388 CURVE",
"545 388 OFFCURVE",
"476 330 OFFCURVE",
"438 289 CURVE",
"410 263 LINE",
"352 207 OFFCURVE",
"279 150 OFFCURVE",
"195 150 CURVE",
"140 150 OFFCURVE",
"98 186 OFFCURVE",
"98 240 CURVE",
"98 313 OFFCURVE",
"161 361 OFFCURVE",
"228 362 CURVE",
"295 363 OFFCURVE",
"362 306 OFFCURVE",
"405 244 CURVE",
"404 309 LINE",
"368 350 OFFCURVE",
"294 412 OFFCURVE",
"208 412 CURVE"
);
}
);
};
layerId = "E777F328-EA17-4AE7-9EBA-8002E537BA4F";
name = Light;
paths = (
{
closed = 1;
nodes = (
"313 340 LINE",
"370 304 OFFCURVE",
"437 246 OFFCURVE",
"436 178 CURVE SMOOTH",
"435 111 OFFCURVE",
"384 67 OFFCURVE",
"307 68 CURVE SMOOTH",
"214 69 OFFCURVE",
"107 192 OFFCURVE",
"57 274 CURVE",
"27 255 LINE",
"79 173 OFFCURVE",
"180 20 OFFCURVE",
"330 18 CURVE SMOOTH",
"421 17 OFFCURVE",
"485 84 OFFCURVE",
"486 160 CURVE SMOOTH",
"487 252 OFFCURVE",
"409 322 OFFCURVE",
"348 364 CURVE"
);
},
{
closed = 1;
nodes = (
"277 599 LINE",
"337 568 OFFCURVE",
"392 519 OFFCURVE",
"394 466 CURVE SMOOTH",
"397 408 OFFCURVE",
"335 371 OFFCURVE",
"257 370 CURVE SMOOTH",
"238 370 OFFCURVE",
"217 372 OFFCURVE",
"191 377 CURVE",
"187 367 LINE",
"209 327 LINE",
"232 320 OFFCURVE",
"251 318 OFFCURVE",
"272 318 CURVE SMOOTH",
"360 319 OFFCURVE",
"444 367 OFFCURVE",
"444 440 CURVE SMOOTH",
"444 505 OFFCURVE",
"397 562 OFFCURVE",
"331 607 CURVE"
);
},
{
closed = 1;
nodes = (
"541 388 OFFCURVE",
"467 320 OFFCURVE",
"414 275 CURVE",
"446 238 LINE",
"503 290 OFFCURVE",
"562 338 OFFCURVE",
"619 338 CURVE SMOOTH",
"659 338 OFFCURVE",
"696 310 OFFCURVE",
"696 254 CURVE SMOOTH",
"696 192 OFFCURVE",
"649 117 OFFCURVE",
"627 84 CURVE",
"681 56 LINE",
"709 108 OFFCURVE",
"740 182 OFFCURVE",
"740 232 CURVE SMOOTH",
"740 322 OFFCURVE",
"684 388 OFFCURVE",
"609 388 CURVE SMOOTH"
);
},
{
closed = 1;
nodes = (
"-29 634 LINE",
"-29 624 LINE",
"-12 590 LINE",
"796 590 LINE",
"796 601 LINE",
"777 634 LINE"
);
}
);
width = 796;
}
);
unicode = 090A;
},
{
glyphname = "rVocalic-deva";
lastChange = "2014-09-10 13:48:40 +0100";
layers = (
{
anchors = (
{
name = bottom;
position = "{412, 0}";
},
{
name = top;
position = "{412, 634}";
}
);
background = {
paths = (
{
closed = 1;
nodes = (
"638 201 LINE",
"581 167 OFFCURVE",
"548 122 OFFCURVE",
"548 82 CURVE SMOOTH",
"548 10 OFFCURVE",
"655 -68 OFFCURVE",
"727 -68 CURVE SMOOTH",
"755 -68 OFFCURVE",
"794 -56 OFFCURVE",
"821 -41 CURVE",
"773 30 LINE",
"745 14 OFFCURVE",
"704 4 OFFCURVE",
"678 4 CURVE SMOOTH",
"636 4 OFFCURVE",
"614 31 OFFCURVE",
"614 54 CURVE SMOOTH",
"614 93 OFFCURVE",
"649 122 OFFCURVE",
"718 158 CURVE",
"646 333 LINE",
"662 349 OFFCURVE",
"670 368 OFFCURVE",
"670 389 CURVE SMOOTH",
"670 431 OFFCURVE",
"637 459 OFFCURVE",
"593 459 CURVE SMOOTH",
"572 459 OFFCURVE",
"547 447 OFFCURVE",
"539 438 CURVE",
"568 363 LINE",
"532 338 OFFCURVE",
"488 327 OFFCURVE",
"440 328 CURVE",
"440 569 LINE",
"821 569 LINE",
"821 584 LINE",
"789 644 LINE",
"-80 644 LINE",
"-80 628 LINE",
"-49 569 LINE",
"352 569 LINE",
"352 355 LINE",
"282 411 OFFCURVE",
"202 460 OFFCURVE",
"136 460 CURVE SMOOTH",
"89 460 OFFCURVE",
"6 434 OFFCURVE",
"-15 426 CURVE",
"33 340 LINE",
"63 351 OFFCURVE",
"124 375 OFFCURVE",
"175 375 CURVE SMOOTH",
"227 375 OFFCURVE",
"284 361 OFFCURVE",
"350 304 CURVE",
"35 99 LINE",
"95 32 LINE",
"353 219 LINE",
"354 216 LINE",
"350 -6 LINE",
"424 -48 LINE",
"440 -48 LINE",
"440 264 LINE",
"492 258 OFFCURVE",
"552 272 OFFCURVE",
"599 298 CURVE"
);
},
{
closed = 1;
nodes = (
"575 455 OFFCURVE",
"550 443 OFFCURVE",
"542 434 CURVE",
"663 203 LINE",
"600 165 OFFCURVE",
"573 126 OFFCURVE",
"573 84 CURVE SMOOTH",
"573 1 OFFCURVE",
"640 -51 OFFCURVE",
"730 -51 CURVE SMOOTH",
"758 -51 OFFCURVE",
"797 -39 OFFCURVE",
"824 -24 CURVE",
"790 25 LINE",
"762 9 OFFCURVE",
"721 -1 OFFCURVE",
"695 -1 CURVE SMOOTH",
"640 -1 OFFCURVE",
"617 35 OFFCURVE",
"616 64 CURVE SMOOTH",
"614 103 OFFCURVE",
"653 133 OFFCURVE",
"723 170 CURVE",
"594 418 LINE",
"581 359 LINE",
"540 323 OFFCURVE",
"484 322 OFFCURVE",
"435 329 CURVE",
"429 282 LINE",
"501 262 OFFCURVE",
"661 295 OFFCURVE",
"662 395 CURVE SMOOTH",
"659 433 OFFCURVE",
"632 455 OFFCURVE",
"596 455 CURVE"
);
}
);
};
layerId = "E777F328-EA17-4AE7-9EBA-8002E537BA4F";
name = Light;
paths = (
{
closed = 1;
nodes = (
"575 455 OFFCURVE",
"550 443 OFFCURVE",
"542 434 CURVE",
"663 203 LINE",
"600 165 OFFCURVE",
"573 126 OFFCURVE",
"573 84 CURVE SMOOTH",
"573 1 OFFCURVE",
"640 -51 OFFCURVE",
"730 -51 CURVE SMOOTH",
"758 -51 OFFCURVE",
"797 -39 OFFCURVE",
"824 -24 CURVE",
"790 25 LINE",
"762 9 OFFCURVE",
"721 -1 OFFCURVE",
"695 -1 CURVE SMOOTH",
"640 -1 OFFCURVE",
"617 35 OFFCURVE",
"616 64 CURVE SMOOTH",
"614 103 OFFCURVE",
"653 133 OFFCURVE",
"723 170 CURVE",
"594 418 LINE",
"586 357 LINE",
"544 324 OFFCURVE",
"486 322 OFFCURVE",
"435 329 CURVE",
"429 282 LINE",
"512 258 OFFCURVE",
"667 307 OFFCURVE",
"667 394 CURVE SMOOTH",
"667 433 OFFCURVE",
"633 455 OFFCURVE",
"596 455 CURVE"
);
},
{
closed = 1;
nodes = (
"71 71 LINE",
"111 28 LINE",
"403 268 LINE",
"403 325 LINE"
);
},
{
closed = 1;
nodes = (
"133 449 OFFCURVE",
"57 425 OFFCURVE",
"36 417 CURVE",
"65 365 LINE",
"95 376 OFFCURVE",
"150 399 OFFCURVE",
"197 398 CURVE SMOOTH",
"256 397 OFFCURVE",
"320 378 OFFCURVE",
"396 296 CURVE",
"400 359 LINE",
"328 412 OFFCURVE",
"275 448 OFFCURVE",
"177 449 CURVE SMOOTH"
);
},
{
closed = 1;
nodes = (
"384 610 LINE",
"383 289 LINE",
"337 265 LINE",
"383 249 LINE",
"383 13 LINE",
"426 -11 LINE",
"438 -11 LINE",
"438 610 LINE"
);
},
{
closed = 1;
nodes = (
"-29 634 LINE",
"-29 624 LINE",
"-12 590 LINE",
"824 590 LINE",
"824 601 LINE",
"805 634 LINE"
);
}
);
width = 824;
}
);
unicode = 090B;
},
{
glyphname = "rrVocalic-deva";
lastChange = "2014-09-10 13:48:40 +0100";
layers = (
{
anchors = (
{
name = bottom;
position = "{412, 0}";
},
{
name = top;
position = "{412, 634}";
}
);
background = {
paths = (
{
closed = 1;
nodes = (
"653 207 LINE",
"596 173 OFFCURVE",
"563 128 OFFCURVE",
"563 88 CURVE SMOOTH",
"563 42 OFFCURVE",
"602 -4 OFFCURVE",
"651 -30 CURVE",
"638 -52 OFFCURVE",
"635 -76 OFFCURVE",
"635 -96 CURVE SMOOTH",
"635 -168 OFFCURVE",
"737 -242 OFFCURVE",
"809 -242 CURVE SMOOTH",
"838 -242 OFFCURVE",
"877 -230 OFFCURVE",
"904 -216 CURVE",
"855 -143 LINE",
"828 -160 OFFCURVE",
"788 -171 OFFCURVE",
"760 -171 CURVE SMOOTH",
"718 -171 OFFCURVE",
"696 -141 OFFCURVE",
"696 -118 CURVE SMOOTH",
"696 -96 OFFCURVE",
"705 -71 OFFCURVE",
"727 -55 CURVE",
"733 -55 LINE SMOOTH",
"760 -55 OFFCURVE",
"800 -43 OFFCURVE",
"827 -28 CURVE",
"778 44 LINE",
"752 28 OFFCURVE",
"711 17 OFFCURVE",
"683 17 CURVE SMOOTH",
"641 17 OFFCURVE",
"629 37 OFFCURVE",
"629 60 CURVE SMOOTH",
"629 99 OFFCURVE",
"664 128 OFFCURVE",
"733 164 CURVE",
"661 339 LINE",
"677 355 OFFCURVE",
"685 374 OFFCURVE",
"685 395 CURVE SMOOTH",
"685 437 OFFCURVE",
"652 465 OFFCURVE",
"608 465 CURVE SMOOTH",
"587 465 OFFCURVE",
"562 453 OFFCURVE",
"554 444 CURVE",
"583 369 LINE",
"547 344 OFFCURVE",
"503 333 OFFCURVE",
"455 334 CURVE",
"455 575 LINE",
"836 575 LINE",
"836 590 LINE",
"804 650 LINE",
"-65 650 LINE",
"-65 634 LINE",
"-34 575 LINE",
"367 575 LINE",
"367 361 LINE",
"297 417 OFFCURVE",
"217 466 OFFCURVE",
"151 466 CURVE SMOOTH",
"104 466 OFFCURVE",
"21 440 OFFCURVE",
"0 432 CURVE",
"48 346 LINE",
"78 357 OFFCURVE",
"139 381 OFFCURVE",
"190 381 CURVE SMOOTH",
"242 381 OFFCURVE",
"299 367 OFFCURVE",
"365 310 CURVE",
"50 105 LINE",
"110 38 LINE",
"368 225 LINE",
"369 222 LINE",
"365 0 LINE",
"439 -42 LINE",
"455 -42 LINE",
"455 270 LINE",
"507 264 OFFCURVE",
"567 278 OFFCURVE",
"614 304 CURVE"
);
},
{
closed = 0;
nodes = (
"604 -85 LINE",
"738 -133 LINE"
);
}
);
};
layerId = "E777F328-EA17-4AE7-9EBA-8002E537BA4F";
name = Light;
paths = (
{
closed = 1;
nodes = (
"575 455 OFFCURVE",
"550 443 OFFCURVE",
"542 434 CURVE",
"663 203 LINE",
"600 165 OFFCURVE",
"573 126 OFFCURVE",
"573 84 CURVE SMOOTH",
"573 8 OFFCURVE",
"626 -41 OFFCURVE",
"720 -41 CURVE SMOOTH",
"748 -41 OFFCURVE",
"787 -29 OFFCURVE",
"814 -14 CURVE",
"780 35 LINE",
"752 19 OFFCURVE",
"711 9 OFFCURVE",
"685 9 CURVE SMOOTH",
"630 9 OFFCURVE",
"617 40 OFFCURVE",
"616 64 CURVE SMOOTH",
"614 103 OFFCURVE",
"653 133 OFFCURVE",
"723 170 CURVE",
"594 418 LINE",
"581 359 LINE",
"540 323 OFFCURVE",
"484 322 OFFCURVE",
"435 329 CURVE",
"429 282 LINE",
"501 262 OFFCURVE",
"662 295 OFFCURVE",
"662 395 CURVE SMOOTH",
"662 433 OFFCURVE",
"633 455 OFFCURVE",
"596 455 CURVE"
);
},
{
closed = 1;
nodes = (
"71 71 LINE",
"111 28 LINE",
"403 268 LINE",
"403 325 LINE"
);
},
{
closed = 1;
nodes = (
"133 449 OFFCURVE",
"57 425 OFFCURVE",
"36 417 CURVE",
"65 365 LINE",
"95 376 OFFCURVE",
"150 399 OFFCURVE",
"197 398 CURVE SMOOTH",
"256 397 OFFCURVE",
"320 378 OFFCURVE",
"396 296 CURVE",
"400 359 LINE",
"328 412 OFFCURVE",
"275 448 OFFCURVE",
"177 449 CURVE SMOOTH"
);
},
{
closed = 1;
nodes = (
"655 -38 OFFCURVE",
"644 -67 OFFCURVE",
"644 -99 CURVE SMOOTH",
"644 -173 OFFCURVE",
"697 -221 OFFCURVE",
"791 -221 CURVE SMOOTH",
"819 -221 OFFCURVE",
"858 -209 OFFCURVE",
"885 -194 CURVE",
"851 -145 LINE",
"823 -161 OFFCURVE",
"782 -171 OFFCURVE",
"756 -171 CURVE SMOOTH",
"701 -171 OFFCURVE",
"688 -139 OFFCURVE",
"687 -115 CURVE SMOOTH",
"686 -84 OFFCURVE",
"702 -58 OFFCURVE",
"738 -30 CURVE",
"683 -7 LINE"
);
},
{
closed = 1;
nodes = (
"384 610 LINE",
"383 289 LINE",
"337 265 LINE",
"383 249 LINE",
"383 13 LINE",
"426 -11 LINE",
"438 -11 LINE",
"438 610 LINE"
);
},
{
closed = 1;
nodes = (
"-29 634 LINE",
"-29 624 LINE",
"-12 590 LINE",
"824 590 LINE",
"824 601 LINE",
"805 634 LINE"
);
}
);
width = 824;
}
);
unicode = 0960;
},
{
glyphname = "lVocalic-deva";
lastChange = "2014-09-10 13:48:40 +0100";
layers = (
{
anchors = (
{
name = bottom;
position = "{369, 0}";
},
{
name = top;
position = "{472, 634}";
}
);
background = {
paths = (
{
closed = 1;
nodes = (
"620 180 OFFCURVE",
"448 114 OFFCURVE",
"448 34 CURVE SMOOTH",
"448 -39 OFFCURVE",
"561 -104 OFFCURVE",
"617 -104 CURVE SMOOTH",
"672 -104 OFFCURVE",
"717 -81 OFFCURVE",
"777 -29 CURVE",
"714 29 LINE",
"684 -8 OFFCURVE",
"641 -54 OFFCURVE",
"592 -54 CURVE SMOOTH",
"554 -54 OFFCURVE",
"531 -32 OFFCURVE",
"531 -1 CURVE SMOOTH",
"531 75 OFFCURVE",
"703 156 OFFCURVE",
"703 273 CURVE SMOOTH",
"703 342 OFFCURVE",
"630 403 OFFCURVE",
"569 427 CURVE",
"569 575 LINE",
"755 575 LINE",
"755 590 LINE",
"724 650 LINE",
"-33 650 LINE",
"-33 634 LINE",
"-2 575 LINE",
"481 575 LINE",
"481 434 LINE",
"433 424 OFFCURVE",
"395 392 OFFCURVE",
"366 353 CURVE",
"320 407 OFFCURVE",
"248 454 OFFCURVE",
"184 454 CURVE SMOOTH",
"103 454 OFFCURVE",
"43 389 OFFCURVE",
"43 303 CURVE SMOOTH",
"43 180 OFFCURVE",
"137 51 OFFCURVE",
"189 -17 CURVE",
"224 3 LINE",
"178 67 OFFCURVE",
"122 149 OFFCURVE",
"122 265 CURVE SMOOTH",
"122 331 OFFCURVE",
"166 375 OFFCURVE",
"221 375 CURVE SMOOTH",
"254 375 OFFCURVE",
"307 350 OFFCURVE",
"341 315 CURVE",
"318 276 OFFCURVE",
"303 233 OFFCURVE",
"294 193 CURVE",
"292 193 OFFCURVE",
"379 156 OFFCURVE",
"379 156 CURVE",
"396 236 OFFCURVE",
"438 386 OFFCURVE",
"545 386 CURVE SMOOTH",
"563 386 OFFCURVE",
"620 360 OFFCURVE",
"620 308 CURVE SMOOTH"
);
},
{
closed = 0;
nodes = (
"586 322 LINE",
"737 259 LINE"
);
},
{
closed = 0;
nodes = (
"407 51 LINE",
"581 -22 LINE"
);
},
{
closed = 0;
nodes = (
"586 -42 LINE",
"629 -128 LINE"
);
},
{
closed = 0;
nodes = (
"149 252 LINE",
"18 315 LINE"
);
}
);
};
layerId = "E777F328-EA17-4AE7-9EBA-8002E537BA4F";
name = Light;
paths = (
{
closed = 1;
nodes = (
"121 442 OFFCURVE",
"58 379 OFFCURVE",
"58 296 CURVE SMOOTH",
"58 166 OFFCURVE",
"145 44 OFFCURVE",
"189 -13 CURVE",
"219 7 LINE",
"187 52 OFFCURVE",
"108 159 OFFCURVE",
"108 272 CURVE SMOOTH",
"108 343 OFFCURVE",
"151 392 OFFCURVE",
"216 392 CURVE SMOOTH",
"270 392 OFFCURVE",
"320 345 OFFCURVE",
"351 304 CURVE",
"375 334 LINE",
"337 382 OFFCURVE",
"273 442 OFFCURVE",
"193 442 CURVE SMOOTH"
);
},
{
closed = 1;
nodes = (
"-29 634 LINE",
"-29 624 LINE",
"-12 590 LINE",
"698 590 LINE",
"698 601 LINE",
"679 634 LINE"
);
},
{
closed = 1;
nodes = (
"572 171 OFFCURVE",
"416 105 OFFCURVE",
"416 24 CURVE SMOOTH",
"415 -61 OFFCURVE",
"502 -98 OFFCURVE",
"559 -98 CURVE SMOOTH",
"609 -98 OFFCURVE",
"656 -71 OFFCURVE",
"695 -32 CURVE",
"660 9 LINE",
"618 -30 OFFCURVE",
"580 -54 OFFCURVE",
"537 -54 CURVE SMOOTH",
"494 -54 OFFCURVE",
"466 -30 OFFCURVE",
"466 3 CURVE SMOOTH",
"467 79 OFFCURVE",
"624 145 OFFCURVE",
"626 282 CURVE SMOOTH",
"627 368 OFFCURVE",
"540 424 OFFCURVE",
"469 424 CURVE SMOOTH",
"373 424 OFFCURVE",
"308 311 OFFCURVE",
"284 212 CURVE",
"343 178 LINE",
"362 258 OFFCURVE",
"412 380 OFFCURVE",
"491 380 CURVE SMOOTH",
"528 380 OFFCURVE",
"578 361 OFFCURVE",
"576 303 CURVE SMOOTH"
);
},
{
closed = 1;
nodes = (
"444 610 LINE",
"443 393 LINE",
"498 393 LINE",
"498 610 LINE"
);
}
);
width = 698;
}
);
unicode = 090C;
},
{
glyphname = "llVocalic-deva";
lastChange = "2014-09-10 13:48:40 +0100";
layers = (
{
anchors = (
{
name = bottom;
position = "{369, 0}";
},
{
name = top;
position = "{472, 634}";
}
);
background = {
paths = (
{
closed = 1;
nodes = (
"557 180 OFFCURVE",
"385 114 OFFCURVE",
"385 34 CURVE SMOOTH",
"385 -30 OFFCURVE",
"474 -89 OFFCURVE",
"532 -102 CURVE",
"525 -114 OFFCURVE",
"522 -126 OFFCURVE",
"522 -137 CURVE SMOOTH",
"522 -210 OFFCURVE",
"626 -248 OFFCURVE",
"682 -248 CURVE SMOOTH",
"737 -248 OFFCURVE",
"781 -224 OFFCURVE",
"841 -173 CURVE",
"778 -113 LINE",
"748 -150 OFFCURVE",
"705 -197 OFFCURVE",
"656 -197 CURVE SMOOTH",
"618 -197 OFFCURVE",
"595 -176 OFFCURVE",
"595 -143 CURVE SMOOTH",
"595 -126 OFFCURVE",
"609 -105 OFFCURVE",
"626 -89 CURVE",
"654 -76 OFFCURVE",
"682 -57 OFFCURVE",
"714 -29 CURVE",
"651 29 LINE",
"621 -8 OFFCURVE",
"578 -54 OFFCURVE",
"529 -54 CURVE SMOOTH",
"491 -54 OFFCURVE",
"468 -32 OFFCURVE",
"468 -1 CURVE SMOOTH",
"468 75 OFFCURVE",
"640 156 OFFCURVE",
"640 273 CURVE SMOOTH",
"640 342 OFFCURVE",
"567 403 OFFCURVE",
"506 427 CURVE",
"506 575 LINE",
"692 575 LINE",
"692 590 LINE",
"661 650 LINE",
"-96 650 LINE",
"-96 634 LINE",
"-65 575 LINE",
"418 575 LINE",
"418 434 LINE",
"370 424 OFFCURVE",
"332 392 OFFCURVE",
"303 353 CURVE",
"257 407 OFFCURVE",
"185 454 OFFCURVE",
"121 454 CURVE SMOOTH",
"40 454 OFFCURVE",
"-20 389 OFFCURVE",
"-20 303 CURVE SMOOTH",
"-20 180 OFFCURVE",
"74 51 OFFCURVE",
"126 -17 CURVE",
"161 3 LINE",
"115 67 OFFCURVE",
"59 149 OFFCURVE",
"59 265 CURVE SMOOTH",
"59 331 OFFCURVE",
"103 375 OFFCURVE",
"158 375 CURVE SMOOTH",
"191 375 OFFCURVE",
"244 350 OFFCURVE",
"278 315 CURVE",
"255 276 OFFCURVE",
"240 233 OFFCURVE",
"231 193 CURVE",
"229 193 OFFCURVE",
"316 156 OFFCURVE",
"316 156 CURVE",
"333 236 OFFCURVE",
"375 386 OFFCURVE",
"482 386 CURVE SMOOTH",
"500 386 OFFCURVE",
"557 360 OFFCURVE",
"557 308 CURVE SMOOTH"
);
},
{
closed = 0;
nodes = (
"618 -145 LINE",
"494 -135 LINE"
);
}
);
};
components = (
{
name = "lVocalic-deva";
transform = "{1, 0, 0, 1, 0, 0}";
}
);
layerId = "E777F328-EA17-4AE7-9EBA-8002E537BA4F";
name = Light;
paths = (
{
closed = 1;
nodes = (
"562 -76 LINE",
"540 -100 OFFCURVE",
"535 -121 OFFCURVE",
"535 -138 CURVE SMOOTH",
"534 -213 OFFCURVE",
"621 -244 OFFCURVE",
"678 -244 CURVE SMOOTH",
"728 -244 OFFCURVE",
"775 -217 OFFCURVE",
"814 -178 CURVE",
"779 -137 LINE",
"737 -176 OFFCURVE",
"699 -200 OFFCURVE",
"656 -200 CURVE SMOOTH",
"613 -200 OFFCURVE",
"585 -176 OFFCURVE",
"585 -142 CURVE SMOOTH",
"585 -120 OFFCURVE",
"597 -100 OFFCURVE",
"627 -75 CURVE"
);
}
);
width = 698;
}
);
unicode = 0961;
},
{
glyphname = "eCandra-deva";
lastChange = "2014-09-10 13:48:40 +0100";
layers = (
{
anchors = (
{
name = top;
position = "{286, 762}";
}
);
background = {
paths = (
{
closed = 1;
nodes = (
"399 325 LINE SMOOTH",
"399 281 OFFCURVE",
"362 263 OFFCURVE",
"319 244 CURVE",
"319 233 LINE",
"384 189 LINE",
"427 204 OFFCURVE",
"487 242 OFFCURVE",
"487 342 CURVE SMOOTH",
"487 575 LINE",
"588 575 LINE",
"588 590 LINE",
"556 650 LINE",
"-31 650 LINE",
"-31 634 LINE",
"0 575 LINE",
"91 575 LINE",
"91 279 LINE SMOOTH",
"91 232 OFFCURVE",
"103 211 OFFCURVE",
"199 147 CURVE SMOOTH",
"559 -95 LINE",
"505 -154 LINE",
"505 -156 LINE",
"514 -176 OFFCURVE",
"536 -202 OFFCURVE",
"573 -202 CURVE SMOOTH",
"613 -202 OFFCURVE",
"647 -180 OFFCURVE",
"647 -136 CURVE SMOOTH",
"647 -101 OFFCURVE",
"625 -73 OFFCURVE",
"529 -10 CURVE SMOOTH",
"224 197 LINE SMOOTH",
"186 223 OFFCURVE",
"180 240 OFFCURVE",
"180 268 CURVE SMOOTH",
"180 575 LINE",
"399 575 LINE"
);
},
{
closed = 1;
nodes = (
"433 918 LINE",
"406 874 OFFCURVE",
"345 818 OFFCURVE",
"257 818 CURVE SMOOTH",
"191 818 OFFCURVE",
"139 867 OFFCURVE",
"98 925 CURVE",
"65 911 LINE",
"104 843 OFFCURVE",
"183 752 OFFCURVE",
"295 752 CURVE SMOOTH",
"392 752 OFFCURVE",
"451 798 OFFCURVE",
"498 857 CURVE"
);
}
);
};
components = (
{
name = "e-deva";
transform = "{1, 0, 0, 1, 0, 0}";
},
{
name = "eCandraMatra-deva";
transform = "{1, 0, 0, 1, 596, 0}";
}
);
layerId = "E777F328-EA17-4AE7-9EBA-8002E537BA4F";
name = Light;
width = 569;
}
);
unicode = 090D;
},
{
glyphname = "eShort-deva";
lastChange = "2014-09-10 13:48:40 +0100";
layers = (
{
background = {
paths = (
{
closed = 1;
nodes = (
"128 339 LINE",
"169 308 OFFCURVE",
"216 257 OFFCURVE",
"216 202 CURVE SMOOTH",
"216 137 OFFCURVE",
"168 94 OFFCURVE",
"98 94 CURVE SMOOTH",
"2 94 OFFCURVE",
"-82 205 OFFCURVE",
"-123 280 CURVE",
"-153 261 LINE",
"-112 185 OFFCURVE",
"-29 44 OFFCURVE",
"122 44 CURVE SMOOTH",
"205 44 OFFCURVE",
"266 107 OFFCURVE",
"266 179 CURVE SMOOTH",
"266 260 OFFCURVE",
"206 325 OFFCURVE",
"158 363 CURVE"
);
},
{
closed = 1;
nodes = (
"38 653 OFFCURVE",
"-37 622 OFFCURVE",
"-70 600 CURVE",
"-42 547 LINE",
"-5 575 OFFCURVE",
"44 603 OFFCURVE",
"90 603 CURVE",
"135 603 OFFCURVE",
"197 556 OFFCURVE",
"199 510 CURVE SMOOTH",
"201 461 OFFCURVE",
"180 429 OFFCURVE",
"150 408 CURVE SMOOTH",
"113 383 OFFCURVE",
"62 374 OFFCURVE",
"21 370 CURVE",
"17 360 LINE",
"39 320 LINE",
"80 321 OFFCURVE",
"123 328 OFFCURVE",
"159 345 CURVE SMOOTH",
"211 368 OFFCURVE",
"249 408 OFFCURVE",
"249 471 CURVE SMOOTH",
"249 570 OFFCURVE",
"160 653 OFFCURVE",
"69 653 CURVE SMOOTH"
);
},
{
closed = 1;
nodes = (
"173 320 LINE",
"201 303 LINE",
"215 310 LINE",
"234 302 OFFCURVE",
"273 280 OFFCURVE",
"322 280 CURVE SMOOTH",
"361 280 OFFCURVE",
"396 300 OFFCURVE",
"415 312 CURVE",
"417 380 LINE",
"383 351 OFFCURVE",
"342 330 OFFCURVE",
"289 330 CURVE SMOOTH",
"243 330 OFFCURVE",
"198 343 OFFCURVE",
"170 352 CURVE"
);
},
{
closed = 1;
nodes = (
"415 610 LINE",
"414 353 LINE",
"354 310 LINE",
"414 310 LINE",
"414 13 LINE",
"457 -11 LINE",
"469 -11 LINE",
"469 610 LINE"
);
},
{
closed = 1;
nodes = (
"278 634 LINE",
"278 624 LINE",
"295 590 LINE",
"585 590 LINE",
"585 601 LINE",
"566 634 LINE"
);
},
{
closed = 1;
nodes = (
"-16 937 OFFCURVE",
"-26 907 OFFCURVE",
"-26 878 CURVE SMOOTH",
"-26 835 OFFCURVE",
"36 775 OFFCURVE",
"161 775 CURVE SMOOTH",
"220 775 OFFCURVE",
"279 786 OFFCURVE",
"317 786 CURVE SMOOTH",
"405 786 OFFCURVE",
"430 721 OFFCURVE",
"430 664 CURVE SMOOTH",
"430 649 OFFCURVE",
"426 636 OFFCURVE",
"419 625 CURVE",
"465 622 LINE",
"469 637 OFFCURVE",
"474 661 OFFCURVE",
"474 679 CURVE SMOOTH",
"474 715 OFFCURVE",
"457 754 OFFCURVE",
"431 786 CURVE SMOOTH",
"407 816 OFFCURVE",
"359 836 OFFCURVE",
"307 836 CURVE SMOOTH",
"273 836 OFFCURVE",
"150 824 OFFCURVE",
"113 824 CURVE SMOOTH",
"59 824 OFFCURVE",
"18 850 OFFCURVE",
"18 893 CURVE SMOOTH",
"18 908 OFFCURVE",
"23 927 OFFCURVE",
"29 948 CURVE",
"-10 955 LINE"
);
}
);
};
components = (
{
name = "e-deva";
transform = "{1, 0, 0, 1, 0, 0}";
}
);
layerId = "E777F328-EA17-4AE7-9EBA-8002E537BA4F";
name = Light;
paths = (
{
closed = 1;
nodes = (
"-16 937 OFFCURVE",
"-26 907 OFFCURVE",
"-26 878 CURVE SMOOTH",
"-26 835 OFFCURVE",
"36 775 OFFCURVE",
"161 775 CURVE SMOOTH",
"220 775 OFFCURVE",
"279 786 OFFCURVE",
"317 786 CURVE SMOOTH",
"405 786 OFFCURVE",
"430 721 OFFCURVE",
"430 664 CURVE SMOOTH",
"430 649 OFFCURVE",
"426 636 OFFCURVE",
"419 625 CURVE",
"465 622 LINE",
"469 637 OFFCURVE",
"474 661 OFFCURVE",
"474 679 CURVE SMOOTH",
"474 715 OFFCURVE",
"457 754 OFFCURVE",
"431 786 CURVE SMOOTH",
"407 816 OFFCURVE",
"359 836 OFFCURVE",
"307 836 CURVE SMOOTH",
"273 836 OFFCURVE",
"150 824 OFFCURVE",
"113 824 CURVE SMOOTH",
"59 824 OFFCURVE",
"18 850 OFFCURVE",
"18 893 CURVE SMOOTH",
"18 908 OFFCURVE",
"23 927 OFFCURVE",
"29 948 CURVE",
"-10 955 LINE"
);
}
);
width = 569;
}
);
unicode = 090E;
},
{
glyphname = "e-deva";
lastChange = "2014-09-10 13:48:40 +0100";
layers = (
{
anchors = (
{
name = top;
position = "{443, 634}";
}
);
background = {
paths = (
{
closed = 1;
nodes = (
"91 605 LINE",
"91 279 LINE SMOOTH",
"91 232 OFFCURVE",
"103 211 OFFCURVE",
"199 147 CURVE SMOOTH",
"559 -95 LINE",
"505 -154 LINE",
"505 -156 LINE",
"514 -176 OFFCURVE",
"536 -202 OFFCURVE",
"573 -202 CURVE SMOOTH",
"613 -202 OFFCURVE",
"647 -180 OFFCURVE",
"647 -136 CURVE SMOOTH",
"647 -101 OFFCURVE",
"625 -73 OFFCURVE",
"529 -10 CURVE SMOOTH",
"224 197 LINE SMOOTH",
"186 223 OFFCURVE",
"180 240 OFFCURVE",
"180 268 CURVE SMOOTH",
"180 605 LINE"
);
},
{
closed = 1;
nodes = (
"399 605 LINE",
"399 325 LINE SMOOTH",
"399 281 OFFCURVE",
"362 263 OFFCURVE",
"319 244 CURVE",
"319 233 LINE",
"384 189 LINE",
"427 204 OFFCURVE",
"487 242 OFFCURVE",
"487 342 CURVE SMOOTH",
"487 605 LINE"
);
},
{
closed = 1;
nodes = (
"-31 650 LINE",
"-31 634 LINE",
"0 575 LINE",
"588 575 LINE",
"588 590 LINE",
"556 650 LINE"
);
},
{
closed = 0;
nodes = (
"385 322 LINE",
"497 344 LINE"
);
}
);
};
layerId = "E777F328-EA17-4AE7-9EBA-8002E537BA4F";
name = Light;
paths = (
{
closed = 1;
nodes = (
"-29 634 LINE",
"-29 624 LINE",
"-12 590 LINE",
"569 590 LINE",
"569 601 LINE",
"550 634 LINE"
);
},
{
closed = 1;
nodes = (
"109 605 LINE",
"109 279 LINE SMOOTH",
"109 235 OFFCURVE",
"127 203 OFFCURVE",
"199 154 CURVE SMOOTH",
"562 -91 LINE",
"511 -147 LINE",
"511 -149 LINE",
"521 -168 OFFCURVE",
"544 -192 OFFCURVE",
"573 -192 CURVE SMOOTH",
"607 -192 OFFCURVE",
"635 -171 OFFCURVE",
"637 -138 CURVE SMOOTH",
"639 -103 OFFCURVE",
"615 -79 OFFCURVE",
"529 -21 CURVE SMOOTH",
"224 186 LINE SMOOTH",
"183 214 OFFCURVE",
"163 235 OFFCURVE",
"163 268 CURVE SMOOTH",
"163 605 LINE"
);
},
{
closed = 1;
nodes = (
"415 605 LINE",
"415 328 LINE SMOOTH",
"415 283 OFFCURVE",
"378 259 OFFCURVE",
"336 240 CURVE",
"336 231 LINE",
"378 202 LINE",
"416 215 OFFCURVE",
"469 250 OFFCURVE",
"469 339 CURVE SMOOTH",
"469 605 LINE"
);
}
);
width = 569;
}
);
unicode = 090F;
},
{
glyphname = "ai-deva";
lastChange = "2014-09-10 13:48:40 +0100";
layers = (
{
background = {
paths = (
{
closed = 1;
nodes = (
"269 634 LINE",
"269 624 LINE",
"286 590 LINE",
"415 590 LINE",
"414 13 LINE",
"457 -11 LINE",
"469 -11 LINE",
"469 590 LINE",
"585 590 LINE",
"585 601 LINE",
"566 634 LINE"
);
},
{
closed = 1;
nodes = (
"127 1010 OFFCURVE",
"103 990 OFFCURVE",
"103 956 CURVE SMOOTH",
"103 929 OFFCURVE",
"119 905 OFFCURVE",
"133 894 CURVE",
"247 928 LINE",
"264 917 OFFCURVE",
"307 848 OFFCURVE",
"360 748 CURVE SMOOTH",
"371 727 OFFCURVE",
"400 667 OFFCURVE",
"415 633 CURVE",
"465 633 LINE",
"446 676 OFFCURVE",
"403 760 OFFCURVE",
"385 795 CURVE SMOOTH",
"323 913 OFFCURVE",
"262 1010 OFFCURVE",
"165 1010 CURVE SMOOTH"
);
}
);
};
components = (
{
name = "e-deva";
transform = "{1, 0, 0, 1, 0, 0}";
},
{
name = "eMatra-deva";
transform = "{1, 0, 0, 1, 601, 0}";
}
);
layerId = "E777F328-EA17-4AE7-9EBA-8002E537BA4F";
name = Light;
width = 569;
}
);
unicode = 0910;
},
{
glyphname = "oCandra-deva";
lastChange = "2014-09-10 13:48:40 +0100";
layers = (
{
background = {
paths = (
{
closed = 1;
nodes = (
"708 634 LINE",
"708 624 LINE",
"725 590 LINE",
"854 590 LINE",
"853 13 LINE",
"896 -11 LINE",
"908 -11 LINE",
"908 590 LINE",
"1024 590 LINE",
"1024 601 LINE",
"1005 634 LINE"
);
},
{
closed = 1;
nodes = (
"1027 874 LINE",
"997 835 OFFCURVE",
"933 784 OFFCURVE",
"843 785 CURVE SMOOTH",
"778 786 OFFCURVE",
"726 831 OFFCURVE",
"685 885 CURVE",
"662 868 LINE",
"699 812 OFFCURVE",
"770 736 OFFCURVE",
"872 735 CURVE SMOOTH",
"966 734 OFFCURVE",
"1021 780 OFFCURVE",
"1067 837 CURVE"
);
}
);
};
components = (
{
name = "aa-deva";
transform = "{1, 0, 0, 1, 0, 0}";
},
{
name = "eCandraMatra-deva";
transform = "{1, 0, 0, 1, 1034, 0}";
}
);
layerId = "E777F328-EA17-4AE7-9EBA-8002E537BA4F";
name = Light;
width = 1024;
}
);
unicode = 0911;
},
{
glyphname = "oShort-deva";
lastChange = "2014-09-10 13:48:40 +0100";
layers = (
{
background = {
paths = (
{
closed = 1;
nodes = (
"567 339 LINE",
"608 308 OFFCURVE",
"655 257 OFFCURVE",
"655 202 CURVE SMOOTH",
"655 137 OFFCURVE",
"607 94 OFFCURVE",
"537 94 CURVE SMOOTH",
"441 94 OFFCURVE",
"357 205 OFFCURVE",
"316 280 CURVE",
"286 261 LINE",
"327 185 OFFCURVE",
"410 44 OFFCURVE",
"561 44 CURVE SMOOTH",
"644 44 OFFCURVE",
"705 107 OFFCURVE",
"705 179 CURVE SMOOTH",
"705 260 OFFCURVE",
"645 325 OFFCURVE",
"597 363 CURVE"
);
},
{
closed = 1;
nodes = (
"477 653 OFFCURVE",
"402 622 OFFCURVE",
"369 600 CURVE",
"397 547 LINE",
"434 575 OFFCURVE",
"483 603 OFFCURVE",
"529 603 CURVE",
"574 603 OFFCURVE",
"636 556 OFFCURVE",
"638 510 CURVE SMOOTH",
"640 461 OFFCURVE",
"619 429 OFFCURVE",
"589 408 CURVE SMOOTH",
"552 383 OFFCURVE",
"501 374 OFFCURVE",
"460 370 CURVE",
"456 360 LINE",
"478 320 LINE",
"519 321 OFFCURVE",
"562 328 OFFCURVE",
"598 345 CURVE SMOOTH",
"650 368 OFFCURVE",
"688 408 OFFCURVE",
"688 471 CURVE SMOOTH",
"688 570 OFFCURVE",
"599 653 OFFCURVE",
"508 653 CURVE SMOOTH"
);
},
{
closed = 1;
nodes = (
"612 320 LINE",
"640 303 LINE",
"654 310 LINE",
"673 302 OFFCURVE",
"712 280 OFFCURVE",
"761 280 CURVE SMOOTH",
"800 280 OFFCURVE",
"835 300 OFFCURVE",
"854 312 CURVE",
"856 380 LINE",
"822 351 OFFCURVE",
"781 330 OFFCURVE",
"728 330 CURVE SMOOTH",
"682 330 OFFCURVE",
"637 343 OFFCURVE",
"609 352 CURVE"
);
},
{
closed = 1;
nodes = (
"854 610 LINE",
"853 353 LINE",
"793 310 LINE",
"853 310 LINE",
"853 13 LINE",
"896 -11 LINE",
"908 -11 LINE",
"908 610 LINE"
);
},
{
closed = 1;
nodes = (
"717 634 LINE",
"717 624 LINE",
"734 590 LINE",
"1024 590 LINE",
"1024 601 LINE",
"1005 634 LINE"
);
},
{
closed = 1;
nodes = (
"423 937 OFFCURVE",
"413 907 OFFCURVE",
"413 878 CURVE SMOOTH",
"413 835 OFFCURVE",
"475 775 OFFCURVE",
"600 775 CURVE SMOOTH",
"659 775 OFFCURVE",
"718 786 OFFCURVE",
"756 786 CURVE SMOOTH",
"844 786 OFFCURVE",
"869 721 OFFCURVE",
"869 664 CURVE SMOOTH",
"869 649 OFFCURVE",
"865 636 OFFCURVE",
"858 625 CURVE",
"904 622 LINE",
"908 637 OFFCURVE",
"913 661 OFFCURVE",
"913 679 CURVE SMOOTH",
"913 714 OFFCURVE",
"896 754 OFFCURVE",
"870 786 CURVE SMOOTH",
"846 816 OFFCURVE",
"798 836 OFFCURVE",
"746 836 CURVE SMOOTH",
"712 836 OFFCURVE",
"589 824 OFFCURVE",
"552 824 CURVE SMOOTH",
"498 824 OFFCURVE",
"457 850 OFFCURVE",
"457 893 CURVE SMOOTH",
"457 908 OFFCURVE",
"462 927 OFFCURVE",
"468 948 CURVE",
"429 955 LINE"
);
}
);
};
components = (
{
name = "aa-deva";
transform = "{1, 0, 0, 1, 0, 0}";
}
);
layerId = "E777F328-EA17-4AE7-9EBA-8002E537BA4F";
name = Light;
paths = (
{
closed = 1;
nodes = (
"423 937 OFFCURVE",
"413 907 OFFCURVE",
"413 878 CURVE SMOOTH",
"413 835 OFFCURVE",
"475 775 OFFCURVE",
"600 775 CURVE SMOOTH",
"659 775 OFFCURVE",
"718 786 OFFCURVE",
"756 786 CURVE SMOOTH",
"844 786 OFFCURVE",
"869 721 OFFCURVE",
"869 664 CURVE SMOOTH",
"869 649 OFFCURVE",
"865 636 OFFCURVE",
"858 625 CURVE",
"904 622 LINE",
"908 637 OFFCURVE",
"913 661 OFFCURVE",
"913 679 CURVE SMOOTH",
"913 715 OFFCURVE",
"896 754 OFFCURVE",
"870 786 CURVE SMOOTH",
"846 816 OFFCURVE",
"798 836 OFFCURVE",
"746 836 CURVE SMOOTH",
"712 836 OFFCURVE",
"589 824 OFFCURVE",
"552 824 CURVE SMOOTH",
"498 824 OFFCURVE",
"457 850 OFFCURVE",
"457 893 CURVE SMOOTH",
"457 908 OFFCURVE",
"462 927 OFFCURVE",
"468 948 CURVE",
"429 955 LINE"
);
}
);
width = 1024;
}
);
unicode = 0912;
},
